Graphik-Light.ufo
<glyph name="exclam" format="2">
  <advance width="271"/>
  <unicode hex="0021"/>
  <outline>
    <contour>
      <point x="136" y="-5" type="curve" smooth="yes"/>
      <point x="112" y="-5"/>
      <point x="93" y="14"/>
      <point x="93" y="37" type="curve" smooth="yes"/>
      <point x="93" y="61"/>
      <point x="112" y="80"/>
      <point x="136" y="80" type="curve" smooth="yes"/>
      <point x="159" y="80"/>
      <point x="178" y="61"/>
      <point x="178" y="37" type="curve" smooth="yes"/>
      <point x="178" y="14"/>
      <point x="159" y="-5"/>
    </contour>
    <contour>
      <point x="116" y="179" type="line"/>
      <point x="107" y="715" type="line"/>
      <point x="166" y="715" type="line"/>
      <point x="158" y="179" type="line"/>
    </contour>
  </outline>
</glyph>
<glyph name="quotedbl" format="2">
  <advance width="305"/>
  <unicode hex="0022"/>
  <outline>
    <contour>
      <point x="67" y="506" type="line"/>
      <point x="58" y="715" type="line"/>
      <point x="116" y="715" type="line"/>
      <point x="107" y="506" type="line"/>
    </contour>
    <contour>
      <point x="198" y="506" type="line"/>
      <point x="189" y="715" type="line"/>
      <point x="247" y="715" type="line"/>
      <point x="238" y="506" type="line"/>
    </contour>
  </outline>
</glyph>
<glyph name="numbersign" format="2">
  <advance width="492"/>
  <unicode hex="0023"/>
  <outline>
    <contour>
      <point x="258" y="99" type="line"/>
      <point x="286" y="295" type="line"/>
      <point x="166" y="295" type="line"/>
      <point x="138" y="99" type="line"/>
      <point x="93" y="99" type="line"/>
      <point x="121" y="295" type="line"/>
      <point x="31" y="295" type="line"/>
      <point x="31" y="340" type="line"/>
      <point x="128" y="340" type="line"/>
      <point x="151" y="497" type="line"/>
      <point x="59" y="497" type="line"/>
      <point x="59" y="542" type="line"/>
      <point x="157" y="542" type="line"/>
      <point x="183" y="715" type="line"/>
      <point x="228" y="715" type="line"/>
      <point x="202" y="542" type="line"/>
      <point x="322" y="542" type="line"/>
      <point x="348" y="715" type="line"/>
      <point x="393" y="715" type="line"/>
      <point x="367" y="542" type="line"/>
      <point x="460" y="542" type="line"/>
      <point x="460" y="497" type="line"/>
      <point x="361" y="497" type="line"/>
      <point x="338" y="340" type="line"/>
      <point x="432" y="340" type="line"/>
      <point x="432" y="295" type="line"/>
      <point x="331" y="295" type="line"/>
      <point x="303" y="99" type="line"/>
    </contour>
    <contour>
      <point x="196" y="497" type="line"/>
      <point x="173" y="340" type="line"/>
      <point x="293" y="340" type="line"/>
      <point x="316" y="497" type="line"/>
    </contour>
  </outline>
</glyph>
<glyph name="dollar" format="2">
  <advance width="606"/>
  <unicode hex="0024"/>
  <outline>
    <contour>
      <point x="283" y="-135" type="line"/>
      <point x="283" y="-7" type="line"/>
      <point x="121" y="1"/>
      <point x="57" y="94"/>
      <point x="43" y="205" type="curve"/>
      <point x="97" y="205" type="line"/>
      <point x="109" y="120"/>
      <point x="151" y="47"/>
      <point x="283" y="38" type="curve"/>
      <point x="283" y="352" type="line"/>
      <point x="141" y="376"/>
      <point x="70" y="428"/>
      <point x="70" y="536" type="curve" smooth="yes"/>
      <point x="70" y="643"/>
      <point x="157" y="718"/>
      <point x="283" y="723" type="curve"/>
      <point x="283" y="813" type="line"/>
      <point x="323" y="813" type="line"/>
      <point x="323" y="722" type="line"/>
      <point x="441" y="714"/>
      <point x="514" y="649"/>
      <point x="529" y="543" type="curve"/>
      <point x="478" y="543" type="line"/>
      <point x="462" y="624"/>
      <point x="413" y="670"/>
      <point x="323" y="677" type="curve"/>
      <point x="323" y="394" type="line"/>
      <point x="475" y="369"/>
      <point x="549" y="325"/>
      <point x="549" y="195" type="curve" smooth="yes"/>
      <point x="549" y="85"/>
      <point x="460" y="-3"/>
      <point x="323" y="-8" type="curve"/>
      <point x="323" y="-135" type="line"/>
    </contour>
    <contour>
      <point x="495" y="191" type="curve" smooth="yes"/>
      <point x="495" y="286"/>
      <point x="450" y="323"/>
      <point x="323" y="345" type="curve"/>
      <point x="323" y="37" type="line"/>
      <point x="428" y="42"/>
      <point x="495" y="106"/>
    </contour>
    <contour>
      <point x="122" y="540" type="curve" smooth="yes"/>
      <point x="122" y="467"/>
      <point x="156" y="424"/>
      <point x="283" y="400" type="curve"/>
      <point x="283" y="677" type="line"/>
      <point x="183" y="673"/>
      <point x="122" y="622"/>
    </contour>
  </outline>
</glyph>
<glyph name="percent" format="2">
  <advance width="766"/>
  <unicode hex="0025"/>
  <outline>
    <contour>
      <point x="197" y="440" type="curve" smooth="yes"/>
      <point x="258" y="440"/>
      <point x="304" y="483"/>
      <point x="304" y="559" type="curve" smooth="yes"/>
      <point x="304" y="632"/>
      <point x="258" y="678"/>
      <point x="197" y="678" type="curve" smooth="yes"/>
      <point x="137" y="678"/>
      <point x="90" y="634"/>
      <point x="90" y="557" type="curve" smooth="yes"/>
      <point x="90" y="482"/>
      <point x="137" y="440"/>
    </contour>
    <contour>
      <point x="197" y="398" type="curve" smooth="yes"/>
      <point x="116" y="398"/>
      <point x="40" y="461"/>
      <point x="40" y="557" type="curve" smooth="yes"/>
      <point x="40" y="653"/>
      <point x="114" y="720"/>
      <point x="197" y="720" type="curve" smooth="yes"/>
      <point x="282" y="720"/>
      <point x="353" y="653"/>
      <point x="353" y="559" type="curve" smooth="yes"/>
      <point x="353" y="461"/>
      <point x="279" y="398"/>
    </contour>
    <contour>
      <point x="129" y="0" type="line"/>
      <point x="585" y="715" type="line"/>
      <point x="635" y="715" type="line"/>
      <point x="180" y="0" type="line"/>
    </contour>
    <contour>
      <point x="568" y="36" type="curve" smooth="yes"/>
      <point x="629" y="36"/>
      <point x="675" y="79"/>
      <point x="675" y="155" type="curve" smooth="yes"/>
      <point x="675" y="228"/>
      <point x="630" y="273"/>
      <point x="568" y="273" type="curve" smooth="yes"/>
      <point x="508" y="273"/>
      <point x="461" y="229"/>
      <point x="461" y="153" type="curve" smooth="yes"/>
      <point x="461" y="78"/>
      <point x="509" y="36"/>
    </contour>
    <contour>
      <point x="568" y="-7" type="curve" smooth="yes"/>
      <point x="487" y="-7"/>
      <point x="412" y="57"/>
      <point x="412" y="153" type="curve" smooth="yes"/>
      <point x="412" y="249"/>
      <point x="485" y="316"/>
      <point x="568" y="316" type="curve" smooth="yes"/>
      <point x="653" y="316"/>
      <point x="725" y="249"/>
      <point x="725" y="155" type="curve" smooth="yes"/>
      <point x="725" y="57"/>
      <point x="650" y="-7"/>
    </contour>
  </outline>
</glyph>
<glyph name="ampersand" format="2">
  <advance width="663"/>
  <unicode hex="0026"/>
  <outline>
    <contour>
      <point x="621" y="362" type="line"/>
      <point x="504" y="146" type="line"/>
      <point x="629" y="0" type="line"/>
      <point x="563" y="0" type="line"/>
      <point x="472" y="106" type="line"/>
      <point x="427" y="47"/>
      <point x="362" y="-7"/>
      <point x="262" y="-7" type="curve" smooth="yes"/>
      <point x="133" y="-7"/>
      <point x="49" y="73"/>
      <point x="49" y="186" type="curve" smooth="yes"/>
      <point x="49" y="298"/>
      <point x="131" y="358"/>
      <point x="222" y="403" type="curve"/>
      <point x="175" y="461"/>
      <point x="149" y="508"/>
      <point x="149" y="563" type="curve" smooth="yes"/>
      <point x="149" y="659"/>
      <point x="224" y="719"/>
      <point x="311" y="719" type="curve" smooth="yes"/>
      <point x="398" y="719"/>
      <point x="459" y="656"/>
      <point x="459" y="575" type="curve" smooth="yes"/>
      <point x="459" y="489"/>
      <point x="390" y="433"/>
      <point x="297" y="392" type="curve"/>
      <point x="474" y="184" type="line"/>
      <point x="570" y="362" type="line"/>
    </contour>
    <contour>
      <point x="264" y="38" type="curve" smooth="yes"/>
      <point x="343" y="38"/>
      <point x="400" y="82"/>
      <point x="443" y="141" type="curve"/>
      <point x="248" y="372" type="line"/>
      <point x="171" y="334"/>
      <point x="103" y="283"/>
      <point x="103" y="191" type="curve" smooth="yes"/>
      <point x="103" y="100"/>
      <point x="162" y="38"/>
    </contour>
    <contour>
      <point x="201" y="563" type="curve" smooth="yes"/>
      <point x="201" y="516"/>
      <point x="228" y="476"/>
      <point x="273" y="422" type="curve"/>
      <point x="357" y="461"/>
      <point x="408" y="503"/>
      <point x="408" y="576" type="curve" smooth="yes"/>
      <point x="408" y="634"/>
      <point x="370" y="676"/>
      <point x="309" y="676" type="curve" smooth="yes"/>
      <point x="248" y="676"/>
      <point x="201" y="634"/>
    </contour>
  </outline>
</glyph>
<glyph name="quotesingle" format="2">
  <advance width="174"/>
  <unicode hex="0027"/>
  <outline>
    <contour>
      <point x="67" y="506" type="line"/>
      <point x="58" y="715" type="line"/>
      <point x="116" y="715" type="line"/>
      <point x="107" y="506" type="line"/>
    </contour>
  </outline>
</glyph>
<glyph name="parenleft" format="2">
  <advance width="299"/>
  <unicode hex="0028"/>
  <outline>
    <contour>
      <point x="220" y="-148" type="line"/>
      <point x="129" y="-40"/>
      <point x="55" y="113"/>
      <point x="55" y="312" type="curve" smooth="yes"/>
      <point x="55" y="511"/>
      <point x="129" y="665"/>
      <point x="220" y="773" type="curve"/>
      <point x="274" y="773" type="line"/>
      <point x="184" y="661"/>
      <point x="111" y="517"/>
      <point x="111" y="312" type="curve" smooth="yes"/>
      <point x="111" y="107"/>
      <point x="184" y="-36"/>
      <point x="274" y="-148" type="curve"/>
    </contour>
  </outline>
</glyph>
<glyph name="parenright" format="2">
  <advance width="299"/>
  <unicode hex="0029"/>
  <outline>
    <contour>
      <point x="26" y="-146" type="line"/>
      <point x="116" y="-34"/>
      <point x="189" y="110"/>
      <point x="189" y="314" type="curve" smooth="yes"/>
      <point x="189" y="519"/>
      <point x="116" y="663"/>
      <point x="26" y="775" type="curve"/>
      <point x="79" y="775" type="line"/>
      <point x="171" y="667"/>
      <point x="244" y="513"/>
      <point x="244" y="314" type="curve" smooth="yes"/>
      <point x="244" y="115"/>
      <point x="171" y="-38"/>
      <point x="79" y="-146" type="curve"/>
    </contour>
  </outline>
</glyph>
<glyph name="asterisk" format="2">
  <advance width="417"/>
  <unicode hex="002A"/>
  <outline>
    <contour>
      <point x="125" y="423" type="line"/>
      <point x="88" y="450" type="line"/>
      <point x="178" y="567" type="line"/>
      <point x="46" y="607" type="line"/>
      <point x="61" y="651" type="line"/>
      <point x="189" y="600" type="line"/>
      <point x="185" y="743" type="line"/>
      <point x="233" y="743" type="line"/>
      <point x="229" y="600" type="line"/>
      <point x="357" y="651" type="line"/>
      <point x="371" y="607" type="line"/>
      <point x="239" y="567" type="line"/>
      <point x="329" y="450" type="line"/>
      <point x="292" y="423" type="line"/>
      <point x="208" y="545" type="line"/>
    </contour>
  </outline>
</glyph>
<glyph name="plus" format="2">
  <advance width="510"/>
  <unicode hex="002B"/>
  <outline>
    <contour>
      <point x="231" y="110" type="line"/>
      <point x="231" y="319" type="line"/>
      <point x="36" y="319" type="line"/>
      <point x="36" y="365" type="line"/>
      <point x="231" y="365" type="line"/>
      <point x="231" y="574" type="line"/>
      <point x="279" y="574" type="line"/>
      <point x="279" y="365" type="line"/>
      <point x="474" y="365" type="line"/>
      <point x="474" y="319" type="line"/>
      <point x="279" y="319" type="line"/>
      <point x="279" y="110" type="line"/>
    </contour>
  </outline>
</glyph>
<glyph name="comma" format="2">
  <advance width="229"/>
  <unicode hex="002C"/>
  <outline>
    <contour>
      <point x="69" y="-117" type="line"/>
      <point x="33" y="-99" type="line"/>
      <point x="110" y="84" type="line"/>
      <point x="162" y="60" type="line"/>
    </contour>
  </outline>
</glyph>
<glyph name="hyphen" format="2">
  <advance width="333"/>
  <unicode hex="002D"/>
  <outline>
    <contour>
      <point x="62" y="252" type="line"/>
      <point x="62" y="302" type="line"/>
      <point x="271" y="302" type="line"/>
      <point x="271" y="252" type="line"/>
    </contour>
  </outline>
</glyph>
<glyph name="period" format="2">
  <advance width="229"/>
  <unicode hex="002E"/>
  <outline>
    <contour>
      <point x="114" y="-5" type="curve" smooth="yes"/>
      <point x="91" y="-5"/>
      <point x="72" y="14"/>
      <point x="72" y="37" type="curve" smooth="yes"/>
      <point x="72" y="61"/>
      <point x="91" y="80"/>
      <point x="114" y="80" type="curve" smooth="yes"/>
      <point x="138" y="80"/>
      <point x="157" y="61"/>
      <point x="157" y="37" type="curve" smooth="yes"/>
      <point x="157" y="14"/>
      <point x="138" y="-5"/>
    </contour>
  </outline>
</glyph>
<glyph name="slash" format="2">
  <advance width="391"/>
  <unicode hex="002F"/>
  <outline>
    <contour>
      <point x="13" y="-148" type="line"/>
      <point x="304" y="776" type="line"/>
      <point x="354" y="776" type="line"/>
      <point x="63" y="-148" type="line"/>
    </contour>
  </outline>
</glyph>
<glyph name="zero" format="2">
  <advance width="659"/>
  <unicode hex="0030"/>
  <outline>
    <contour>
      <point x="332" y="39" type="curve" smooth="yes"/>
      <point x="473" y="39"/>
      <point x="546" y="140"/>
      <point x="546" y="330" type="curve" smooth="yes"/>
      <point x="546" y="390" type="line" smooth="yes"/>
      <point x="546" y="565"/>
      <point x="466" y="677"/>
      <point x="329" y="677" type="curve" smooth="yes"/>
      <point x="193" y="677"/>
      <point x="114" y="572"/>
      <point x="114" y="388" type="curve" smooth="yes"/>
      <point x="114" y="327" type="line" smooth="yes"/>
      <point x="114" y="137"/>
      <point x="196" y="39"/>
    </contour>
    <contour>
      <point x="332" y="-8" type="curve" smooth="yes"/>
      <point x="162" y="-8"/>
      <point x="57" y="119"/>
      <point x="57" y="327" type="curve" smooth="yes"/>
      <point x="57" y="387" type="line" smooth="yes"/>
      <point x="57" y="596"/>
      <point x="159" y="723"/>
      <point x="329" y="723" type="curve" smooth="yes"/>
      <point x="499" y="723"/>
      <point x="603" y="594"/>
      <point x="603" y="390" type="curve" smooth="yes"/>
      <point x="603" y="329" type="line" smooth="yes"/>
      <point x="603" y="121"/>
      <point x="505" y="-8"/>
    </contour>
  </outline>
</glyph>
<glyph name="two" format="2">
  <advance width="537"/>
  <unicode hex="0032"/>
  <outline>
    <contour>
      <point x="20" y="0" type="line"/>
      <point x="20" y="13" type="line"/>
      <point x="307" y="310" type="line" smooth="yes"/>
      <point x="383" y="388"/>
      <point x="419" y="453"/>
      <point x="419" y="530" type="curve" smooth="yes"/>
      <point x="419" y="625"/>
      <point x="359" y="677"/>
      <point x="267" y="677" type="curve" smooth="yes"/>
      <point x="175" y="677"/>
      <point x="110" y="624"/>
      <point x="96" y="507" type="curve"/>
      <point x="44" y="507" type="line"/>
      <point x="55" y="642"/>
      <point x="142" y="723"/>
      <point x="267" y="723" type="curve" smooth="yes"/>
      <point x="390" y="723"/>
      <point x="475" y="652"/>
      <point x="475" y="528" type="curve" smooth="yes"/>
      <point x="475" y="441"/>
      <point x="427" y="361"/>
      <point x="339" y="275" type="curve" smooth="yes"/>
      <point x="108" y="46" type="line"/>
      <point x="485" y="46" type="line"/>
      <point x="485" y="0" type="line"/>
    </contour>
  </outline>
</glyph>
<glyph name="three" format="2">
  <advance width="567"/>
  <unicode hex="0033"/>
  <outline>
    <contour>
      <point x="276" y="-8" type="curve" smooth="yes"/>
      <point x="129" y="-8"/>
      <point x="42" y="88"/>
      <point x="37" y="202" type="curve"/>
      <point x="88" y="202" type="line"/>
      <point x="97" y="112"/>
      <point x="155" y="38"/>
      <point x="277" y="38" type="curve" smooth="yes"/>
      <point x="392" y="38"/>
      <point x="456" y="97"/>
      <point x="456" y="198" type="curve" smooth="yes"/>
      <point x="456" y="290"/>
      <point x="404" y="351"/>
      <point x="293" y="351" type="curve" smooth="yes"/>
      <point x="241" y="351" type="line"/>
      <point x="241" y="398" type="line"/>
      <point x="289" y="398" type="line" smooth="yes"/>
      <point x="392" y="398"/>
      <point x="434" y="459"/>
      <point x="434" y="534" type="curve" smooth="yes"/>
      <point x="434" y="615"/>
      <point x="383" y="676"/>
      <point x="287" y="676" type="curve" smooth="yes"/>
      <point x="188" y="676"/>
      <point x="124" y="613"/>
      <point x="115" y="527" type="curve"/>
      <point x="65" y="527" type="line"/>
      <point x="72" y="636"/>
      <point x="161" y="723"/>
      <point x="287" y="723" type="curve" smooth="yes"/>
      <point x="414" y="723"/>
      <point x="488" y="637"/>
      <point x="488" y="535" type="curve" smooth="yes"/>
      <point x="488" y="457"/>
      <point x="441" y="400"/>
      <point x="371" y="378" type="curve"/>
      <point x="456" y="359"/>
      <point x="513" y="297"/>
      <point x="513" y="198" type="curve" smooth="yes"/>
      <point x="513" y="68"/>
      <point x="416" y="-8"/>
    </contour>
  </outline>
</glyph>
<glyph name="four" format="2">
  <advance width="595"/>
  <unicode hex="0034"/>
  <outline>
    <contour>
      <point x="402" y="0" type="line"/>
      <point x="402" y="161" type="line"/>
      <point x="33" y="161" type="line"/>
      <point x="33" y="178" type="line"/>
      <point x="379" y="715" type="line"/>
      <point x="457" y="715" type="line"/>
      <point x="457" y="207" type="line"/>
      <point x="556" y="207" type="line"/>
      <point x="556" y="161" type="line"/>
      <point x="457" y="161" type="line"/>
      <point x="457" y="0" type="line"/>
    </contour>
    <contour>
      <point x="107" y="207" type="line"/>
      <point x="402" y="207" type="line"/>
      <point x="402" y="674" type="line"/>
    </contour>
  </outline>
</glyph>
<glyph name="five" format="2">
  <advance width="561"/>
  <unicode hex="0035"/>
  <outline>
    <contour>
      <point x="268" y="-8" type="curve" smooth="yes"/>
      <point x="123" y="-8"/>
      <point x="48" y="79"/>
      <point x="38" y="184" type="curve"/>
      <point x="92" y="184" type="line"/>
      <point x="104" y="104"/>
      <point x="152" y="38"/>
      <point x="268" y="38" type="curve" smooth="yes"/>
      <point x="382" y="38"/>
      <point x="450" y="112"/>
      <point x="450" y="232" type="curve" smooth="yes"/>
      <point x="450" y="345"/>
      <point x="377" y="419"/>
      <point x="278" y="419" type="curve" smooth="yes"/>
      <point x="191" y="419"/>
      <point x="138" y="386"/>
      <point x="101" y="341" type="curve"/>
      <point x="80" y="341" type="line"/>
      <point x="80" y="715" type="line"/>
      <point x="470" y="715" type="line"/>
      <point x="470" y="667" type="line"/>
      <point x="127" y="667" type="line"/>
      <point x="127" y="405" type="line"/>
      <point x="157" y="435"/>
      <point x="213" y="465"/>
      <point x="287" y="465" type="curve" smooth="yes"/>
      <point x="411" y="465"/>
      <point x="507" y="375"/>
      <point x="507" y="232" type="curve" smooth="yes"/>
      <point x="507" y="83"/>
      <point x="406" y="-8"/>
    </contour>
  </outline>
</glyph>
<glyph name="six" format="2">
  <advance width="600"/>
  <unicode hex="0036"/>
  <outline>
    <contour>
      <point x="309" y="-8" type="curve" smooth="yes"/>
      <point x="128" y="-8"/>
      <point x="60" y="124"/>
      <point x="60" y="293" type="curve" smooth="yes"/>
      <point x="60" y="345" type="line" smooth="yes"/>
      <point x="60" y="607"/>
      <point x="172" y="723"/>
      <point x="329" y="723" type="curve" smooth="yes"/>
      <point x="434" y="723"/>
      <point x="513" y="671"/>
      <point x="530" y="560" type="curve"/>
      <point x="477" y="560" type="line"/>
      <point x="462" y="638"/>
      <point x="413" y="676"/>
      <point x="326" y="676" type="curve" smooth="yes"/>
      <point x="203" y="676"/>
      <point x="117" y="585"/>
      <point x="115" y="362" type="curve" smooth="yes"/>
      <point x="115" y="333" type="line"/>
      <point x="148" y="412"/>
      <point x="231" y="455"/>
      <point x="315" y="455" type="curve" smooth="yes"/>
      <point x="464" y="455"/>
      <point x="549" y="355"/>
      <point x="549" y="226" type="curve" smooth="yes"/>
      <point x="549" y="87"/>
      <point x="455" y="-8"/>
    </contour>
    <contour>
      <point x="309" y="37" type="curve" smooth="yes"/>
      <point x="420" y="37"/>
      <point x="492" y="113"/>
      <point x="492" y="224" type="curve" smooth="yes"/>
      <point x="492" y="335"/>
      <point x="427" y="410"/>
      <point x="308" y="410" type="curve" smooth="yes"/>
      <point x="206" y="410"/>
      <point x="121" y="343"/>
      <point x="121" y="233" type="curve" smooth="yes"/>
      <point x="121" y="124"/>
      <point x="185" y="37"/>
    </contour>
  </outline>
</glyph>
<glyph name="seven" format="2">
  <advance width="504"/>
  <unicode hex="0037"/>
  <outline>
    <contour>
      <point x="149" y="0" type="line"/>
      <point x="415" y="669" type="line"/>
      <point x="28" y="669" type="line"/>
      <point x="28" y="715" type="line"/>
      <point x="485" y="715" type="line"/>
      <point x="485" y="706" type="line"/>
      <point x="206" y="0" type="line"/>
    </contour>
  </outline>
</glyph>
<glyph name="eight" format="2">
  <advance width="583"/>
  <unicode hex="0038"/>
  <outline>
    <contour>
      <point x="292" y="-8" type="curve" smooth="yes"/>
      <point x="170" y="-8"/>
      <point x="52" y="62"/>
      <point x="52" y="199" type="curve" smooth="yes"/>
      <point x="52" y="299"/>
      <point x="120" y="364"/>
      <point x="209" y="387" type="curve"/>
      <point x="136" y="408"/>
      <point x="82" y="462"/>
      <point x="82" y="543" type="curve" smooth="yes"/>
      <point x="82" y="654"/>
      <point x="184" y="723"/>
      <point x="292" y="723" type="curve" smooth="yes"/>
      <point x="401" y="723"/>
      <point x="501" y="652"/>
      <point x="501" y="545" type="curve" smooth="yes"/>
      <point x="501" y="462"/>
      <point x="449" y="410"/>
      <point x="376" y="387" type="curve"/>
      <point x="468" y="363"/>
      <point x="531" y="300"/>
      <point x="531" y="201" type="curve" smooth="yes"/>
      <point x="531" y="63"/>
      <point x="419" y="-8"/>
    </contour>
    <contour>
      <point x="292" y="39" type="curve" smooth="yes"/>
      <point x="398" y="39"/>
      <point x="474" y="94"/>
      <point x="474" y="203" type="curve" smooth="yes"/>
      <point x="474" y="306"/>
      <point x="393" y="362"/>
      <point x="294" y="362" type="curve" smooth="yes"/>
      <point x="195" y="362"/>
      <point x="109" y="305"/>
      <point x="109" y="201" type="curve" smooth="yes"/>
      <point x="109" y="93"/>
      <point x="192" y="39"/>
    </contour>
    <contour>
      <point x="295" y="407" type="curve" smooth="yes"/>
      <point x="380" y="407"/>
      <point x="445" y="455"/>
      <point x="445" y="545" type="curve" smooth="yes"/>
      <point x="445" y="623"/>
      <point x="380" y="678"/>
      <point x="292" y="678" type="curve" smooth="yes"/>
      <point x="204" y="678"/>
      <point x="138" y="626"/>
      <point x="138" y="543" type="curve" smooth="yes"/>
      <point x="138" y="454"/>
      <point x="216" y="407"/>
    </contour>
  </outline>
</glyph>
<glyph name="nine" format="2">
  <advance width="599"/>
  <unicode hex="0039"/>
  <outline>
    <contour>
      <point x="281" y="-7" type="curve" smooth="yes"/>
      <point x="164" y="-7"/>
      <point x="82" y="53"/>
      <point x="62" y="164" type="curve"/>
      <point x="116" y="164" type="line"/>
      <point x="134" y="84"/>
      <point x="189" y="39"/>
      <point x="282" y="39" type="curve" smooth="yes"/>
      <point x="408" y="39"/>
      <point x="485" y="116"/>
      <point x="486" y="339" type="curve" smooth="yes"/>
      <point x="486" y="377" type="line"/>
      <point x="453" y="301"/>
      <point x="368" y="260"/>
      <point x="283" y="260" type="curve" smooth="yes"/>
      <point x="138" y="260"/>
      <point x="50" y="357"/>
      <point x="50" y="490" type="curve" smooth="yes"/>
      <point x="50" y="629"/>
      <point x="145" y="723"/>
      <point x="291" y="723" type="curve" smooth="yes"/>
      <point x="460" y="723"/>
      <point x="540" y="604"/>
      <point x="540" y="428" type="curve" smooth="yes"/>
      <point x="540" y="346" type="line" smooth="yes"/>
      <point x="540" y="94"/>
      <point x="443" y="-7"/>
    </contour>
    <contour>
      <point x="290" y="305" type="curve" smooth="yes"/>
      <point x="393" y="305"/>
      <point x="479" y="371"/>
      <point x="479" y="477" type="curve" smooth="yes"/>
      <point x="479" y="588"/>
      <point x="415" y="679"/>
      <point x="291" y="679" type="curve" smooth="yes"/>
      <point x="179" y="679"/>
      <point x="107" y="603"/>
      <point x="107" y="492" type="curve" smooth="yes"/>
      <point x="107" y="381"/>
      <point x="172" y="305"/>
    </contour>
  </outline>
</glyph>
<glyph name="colon" format="2">
  <advance width="237"/>
  <unicode hex="003A"/>
  <outline>
    <contour>
      <point x="118" y="-5" type="curve" smooth="yes"/>
      <point x="95" y="-5"/>
      <point x="76" y="14"/>
      <point x="76" y="37" type="curve" smooth="yes"/>
      <point x="76" y="61"/>
      <point x="95" y="80"/>
      <point x="118" y="80" type="curve" smooth="yes"/>
      <point x="142" y="80"/>
      <point x="161" y="61"/>
      <point x="161" y="37" type="curve" smooth="yes"/>
      <point x="161" y="14"/>
      <point x="142" y="-5"/>
    </contour>
    <contour>
      <point x="118" y="320" type="curve" smooth="yes"/>
      <point x="95" y="320"/>
      <point x="76" y="338"/>
      <point x="76" y="362" type="curve" smooth="yes"/>
      <point x="76" y="386"/>
      <point x="95" y="404"/>
      <point x="118" y="404" type="curve" smooth="yes"/>
      <point x="142" y="404"/>
      <point x="161" y="386"/>
      <point x="161" y="362" type="curve" smooth="yes"/>
      <point x="161" y="338"/>
      <point x="142" y="320"/>
    </contour>
  </outline>
</glyph>
<glyph name="semicolon" format="2">
  <advance width="237"/>
  <unicode hex="003B"/>
  <outline>
    <contour>
      <point x="59" y="-117" type="line"/>
      <point x="23" y="-99" type="line"/>
      <point x="100" y="84" type="line"/>
      <point x="153" y="60" type="line"/>
    </contour>
    <contour>
      <point x="123" y="320" type="curve" smooth="yes"/>
      <point x="100" y="320"/>
      <point x="81" y="338"/>
      <point x="81" y="362" type="curve" smooth="yes"/>
      <point x="81" y="386"/>
      <point x="100" y="404"/>
      <point x="123" y="404" type="curve" smooth="yes"/>
      <point x="147" y="404"/>
      <point x="166" y="386"/>
      <point x="166" y="362" type="curve" smooth="yes"/>
      <point x="166" y="338"/>
      <point x="147" y="320"/>
    </contour>
  </outline>
</glyph>
<glyph name="less" format="2">
  <advance width="496"/>
  <unicode hex="003C"/>
  <outline>
    <contour>
      <point x="435" y="104" type="line"/>
      <point x="51" y="315" type="line"/>
      <point x="51" y="329" type="line"/>
      <point x="435" y="540" type="line"/>
      <point x="435" y="488" type="line"/>
      <point x="129" y="322" type="line"/>
      <point x="435" y="156" type="line"/>
    </contour>
  </outline>
</glyph>
<glyph name="greater" format="2">
  <advance width="496"/>
  <unicode hex="003E"/>
  <outline>
    <contour>
      <point x="61" y="104" type="line"/>
      <point x="61" y="156" type="line"/>
      <point x="367" y="322" type="line"/>
      <point x="61" y="488" type="line"/>
      <point x="61" y="540" type="line"/>
      <point x="445" y="329" type="line"/>
      <point x="445" y="315" type="line"/>
    </contour>
  </outline>
</glyph>
<glyph name="question" format="2">
  <advance width="477"/>
  <unicode hex="003F"/>
  <outline>
    <contour>
      <point x="188" y="179" type="line"/>
      <point x="188" y="236" type="line" smooth="yes"/>
      <point x="188" y="316"/>
      <point x="233" y="360"/>
      <point x="288" y="415" type="curve" smooth="yes"/>
      <point x="334" y="461"/>
      <point x="373" y="498"/>
      <point x="373" y="561" type="curve" smooth="yes"/>
      <point x="373" y="629"/>
      <point x="332" y="678"/>
      <point x="243" y="678" type="curve" smooth="yes"/>
      <point x="156" y="678"/>
      <point x="96" y="621"/>
      <point x="88" y="528" type="curve"/>
      <point x="37" y="528" type="line"/>
      <point x="44" y="645"/>
      <point x="127" y="723"/>
      <point x="244" y="723" type="curve" smooth="yes"/>
      <point x="369" y="723"/>
      <point x="428" y="649"/>
      <point x="428" y="563" type="curve" smooth="yes"/>
      <point x="428" y="482"/>
      <point x="379" y="441"/>
      <point x="325" y="387" type="curve" smooth="yes"/>
      <point x="274" y="337"/>
      <point x="236" y="299"/>
      <point x="236" y="232" type="curve" smooth="yes"/>
      <point x="236" y="179" type="line"/>
    </contour>
    <contour>
      <point x="211" y="-5" type="curve" smooth="yes"/>
      <point x="187" y="-5"/>
      <point x="168" y="14"/>
      <point x="168" y="37" type="curve" smooth="yes"/>
      <point x="168" y="61"/>
      <point x="187" y="80"/>
      <point x="211" y="80" type="curve" smooth="yes"/>
      <point x="234" y="80"/>
      <point x="253" y="61"/>
      <point x="253" y="37" type="curve" smooth="yes"/>
      <point x="253" y="14"/>
      <point x="234" y="-5"/>
    </contour>
  </outline>
</glyph>
<glyph name="at" format="2">
  <advance width="909"/>
  <unicode hex="0040"/>
  <outline>
    <contour>
      <point x="460" y="-147" type="curve" smooth="yes"/>
      <point x="192" y="-147"/>
      <point x="46" y="48"/>
      <point x="46" y="262" type="curve" smooth="yes"/>
      <point x="46" y="506"/>
      <point x="245" y="688"/>
      <point x="472" y="688" type="curve" smooth="yes"/>
      <point x="711" y="688"/>
      <point x="865" y="528"/>
      <point x="865" y="322" type="curve" smooth="yes"/>
      <point x="865" y="139"/>
      <point x="769" y="70"/>
      <point x="689" y="70" type="curve" smooth="yes"/>
      <point x="615" y="70"/>
      <point x="581" y="107"/>
      <point x="575" y="171" type="curve"/>
      <point x="551" y="119"/>
      <point x="494" y="63"/>
      <point x="421" y="63" type="curve" smooth="yes"/>
      <point x="327" y="63"/>
      <point x="262" y="129"/>
      <point x="262" y="237" type="curve" smooth="yes"/>
      <point x="262" y="371"/>
      <point x="352" y="469"/>
      <point x="456" y="469" type="curve" smooth="yes"/>
      <point x="529" y="469"/>
      <point x="574" y="426"/>
      <point x="587" y="376" type="curve"/>
      <point x="596" y="460" type="line"/>
      <point x="649" y="460" type="line"/>
      <point x="621" y="220" type="line" smooth="yes"/>
      <point x="612" y="153"/>
      <point x="633" y="110"/>
      <point x="689" y="110" type="curve" smooth="yes"/>
      <point x="757" y="110"/>
      <point x="818" y="174"/>
      <point x="818" y="320" type="curve" smooth="yes"/>
      <point x="818" y="509"/>
      <point x="690" y="645"/>
      <point x="472" y="645" type="curve" smooth="yes"/>
      <point x="263" y="645"/>
      <point x="96" y="485"/>
      <point x="96" y="263" type="curve" smooth="yes"/>
      <point x="96" y="70"/>
      <point x="220" y="-104"/>
      <point x="460" y="-104" type="curve" smooth="yes"/>
      <point x="592" y="-104"/>
      <point x="675" y="-60"/>
      <point x="732" y="0" type="curve"/>
      <point x="782" y="0" type="line"/>
      <point x="733" y="-81"/>
      <point x="615" y="-147"/>
    </contour>
    <contour>
      <point x="430" y="105" type="curve" smooth="yes"/>
      <point x="508" y="105"/>
      <point x="577" y="184"/>
      <point x="577" y="290" type="curve" smooth="yes"/>
      <point x="577" y="377"/>
      <point x="531" y="426"/>
      <point x="460" y="426" type="curve" smooth="yes"/>
      <point x="385" y="426"/>
      <point x="316" y="352"/>
      <point x="316" y="237" type="curve" smooth="yes"/>
      <point x="316" y="154"/>
      <point x="363" y="105"/>
    </contour>
  </outline>
</glyph>
<glyph name="B" format="2">
  <advance width="604"/>
  <unicode hex="0042"/>
  <outline>
    <contour>
      <point x="92" y="0" type="line"/>
      <point x="92" y="715" type="line"/>
      <point x="295" y="715" type="line" smooth="yes"/>
      <point x="421" y="715"/>
      <point x="512" y="664"/>
      <point x="512" y="534" type="curve" smooth="yes"/>
      <point x="512" y="530" type="line" smooth="yes"/>
      <point x="512" y="451"/>
      <point x="470" y="397"/>
      <point x="390" y="375" type="curve"/>
      <point x="497" y="355"/>
      <point x="547" y="298"/>
      <point x="547" y="201" type="curve" smooth="yes"/>
      <point x="547" y="197" type="line" smooth="yes"/>
      <point x="547" y="66"/>
      <point x="461" y="0"/>
      <point x="325" y="0" type="curve" smooth="yes"/>
    </contour>
    <contour>
      <point x="147" y="45" type="line"/>
      <point x="324" y="45" type="line" smooth="yes"/>
      <point x="436" y="45"/>
      <point x="493" y="98"/>
      <point x="493" y="197" type="curve" smooth="yes"/>
      <point x="493" y="201" type="line" smooth="yes"/>
      <point x="493" y="299"/>
      <point x="430" y="349"/>
      <point x="305" y="349" type="curve" smooth="yes"/>
      <point x="147" y="349" type="line"/>
    </contour>
    <contour>
      <point x="147" y="393" type="line"/>
      <point x="296" y="393" type="line" smooth="yes"/>
      <point x="405" y="393"/>
      <point x="457" y="441"/>
      <point x="457" y="531" type="curve" smooth="yes"/>
      <point x="457" y="535" type="line" smooth="yes"/>
      <point x="457" y="628"/>
      <point x="399" y="670"/>
      <point x="294" y="670" type="curve" smooth="yes"/>
      <point x="147" y="670" type="line"/>
    </contour>
  </outline>
</glyph>
<glyph name="F" format="2">
  <advance width="540"/>
  <unicode hex="0046"/>
  <outline>
    <contour>
      <point x="92" y="0" type="line"/>
      <point x="92" y="715" type="line"/>
      <point x="499" y="715" type="line"/>
      <point x="499" y="669" type="line"/>
      <point x="148" y="669" type="line"/>
      <point x="148" y="385" type="line"/>
      <point x="424" y="385" type="line"/>
      <point x="424" y="339" type="line"/>
      <point x="148" y="339" type="line"/>
      <point x="148" y="0" type="line"/>
    </contour>
  </outline>
</glyph>
<glyph name="H" format="2">
  <advance width="717"/>
  <unicode hex="0048"/>
  <outline>
    <contour>
      <point x="92" y="0" type="line"/>
      <point x="92" y="715" type="line"/>
      <point x="148" y="715" type="line"/>
      <point x="148" y="382" type="line"/>
      <point x="569" y="382" type="line"/>
      <point x="569" y="715" type="line"/>
      <point x="625" y="715" type="line"/>
      <point x="625" y="0" type="line"/>
      <point x="569" y="0" type="line"/>
      <point x="569" y="335" type="line"/>
      <point x="148" y="335" type="line"/>
      <point x="148" y="0" type="line"/>
    </contour>
  </outline>
</glyph>
<glyph name="L" format="2">
  <advance width="530"/>
  <unicode hex="004C"/>
  <outline>
    <contour>
      <point x="92" y="0" type="line"/>
      <point x="92" y="715" type="line"/>
      <point x="148" y="715" type="line"/>
      <point x="148" y="46" type="line"/>
      <point x="495" y="46" type="line"/>
      <point x="495" y="0" type="line"/>
    </contour>
  </outline>
</glyph>
<glyph name="M" format="2">
  <advance width="851"/>
  <unicode hex="004D"/>
  <outline>
    <contour>
      <point x="92" y="0" type="line"/>
      <point x="92" y="715" type="line"/>
      <point x="172" y="715" type="line"/>
      <point x="424" y="101" type="line"/>
      <point x="677" y="715" type="line"/>
      <point x="755" y="715" type="line"/>
      <point x="755" y="0" type="line"/>
      <point x="700" y="0" type="line"/>
      <point x="700" y="645" type="line"/>
      <point x="431" y="0" type="line"/>
      <point x="413" y="0" type="line"/>
      <point x="144" y="645" type="line"/>
      <point x="144" y="0" type="line"/>
    </contour>
  </outline>
</glyph>
<glyph name="P" format="2">
  <advance width="568"/>
  <unicode hex="0050"/>
  <outline>
    <contour>
      <point x="92" y="0" type="line"/>
      <point x="92" y="715" type="line"/>
      <point x="281" y="715" type="line" smooth="yes"/>
      <point x="420" y="715"/>
      <point x="525" y="659"/>
      <point x="525" y="514" type="curve" smooth="yes"/>
      <point x="525" y="510" type="line" smooth="yes"/>
      <point x="525" y="363"/>
      <point x="421" y="306"/>
      <point x="282" y="306" type="curve" smooth="yes"/>
      <point x="148" y="306" type="line"/>
      <point x="148" y="0" type="line"/>
    </contour>
    <contour>
      <point x="148" y="351" type="line"/>
      <point x="286" y="351" type="line" smooth="yes"/>
      <point x="401" y="351"/>
      <point x="469" y="400"/>
      <point x="469" y="510" type="curve" smooth="yes"/>
      <point x="469" y="514" type="line" smooth="yes"/>
      <point x="469" y="630"/>
      <point x="396" y="669"/>
      <point x="284" y="669" type="curve" smooth="yes"/>
      <point x="148" y="669" type="line"/>
    </contour>
  </outline>
</glyph>
<glyph name="Q" format="2">
  <advance width="801"/>
  <unicode hex="0051"/>
  <outline>
    <contour>
      <point x="672" y="-60" type="line"/>
      <point x="579" y="40" type="line"/>
      <point x="528" y="9"/>
      <point x="469" y="-8"/>
      <point x="403" y="-8" type="curve" smooth="yes"/>
      <point x="199" y="-8"/>
      <point x="53" y="153"/>
      <point x="53" y="353" type="curve" smooth="yes"/>
      <point x="53" y="361" type="line" smooth="yes"/>
      <point x="53" y="564"/>
      <point x="200" y="723"/>
      <point x="401" y="723" type="curve" smooth="yes"/>
      <point x="603" y="723"/>
      <point x="749" y="564"/>
      <point x="749" y="363" type="curve" smooth="yes"/>
      <point x="749" y="355" type="line" smooth="yes"/>
      <point x="749" y="237"/>
      <point x="699" y="133"/>
      <point x="618" y="67" type="curve"/>
      <point x="706" y="-27" type="line"/>
    </contour>
    <contour>
      <point x="403" y="39" type="curve" smooth="yes"/>
      <point x="457" y="39"/>
      <point x="505" y="52"/>
      <point x="546" y="76" type="curve"/>
      <point x="445" y="186" type="line"/>
      <point x="479" y="219" type="line"/>
      <point x="585" y="103" type="line"/>
      <point x="652" y="160"/>
      <point x="691" y="250"/>
      <point x="691" y="356" type="curve" smooth="yes"/>
      <point x="691" y="364" type="line" smooth="yes"/>
      <point x="691" y="538"/>
      <point x="576" y="677"/>
      <point x="401" y="677" type="curve" smooth="yes"/>
      <point x="226" y="677"/>
      <point x="110" y="542"/>
      <point x="110" y="362" type="curve" smooth="yes"/>
      <point x="110" y="354" type="line" smooth="yes"/>
      <point x="110" y="172"/>
      <point x="237" y="39"/>
    </contour>
  </outline>
</glyph>
<glyph name="T" format="2">
  <advance width="559"/>
  <unicode hex="0054"/>
  <outline>
    <contour>
      <point x="252" y="0" type="line"/>
      <point x="252" y="669" type="line"/>
      <point x="30" y="669" type="line"/>
      <point x="30" y="715" type="line"/>
      <point x="529" y="715" type="line"/>
      <point x="529" y="669" type="line"/>
      <point x="307" y="669" type="line"/>
      <point x="307" y="0" type="line"/>
    </contour>
  </outline>
</glyph>
<glyph name="W" format="2">
  <advance width="920"/>
  <unicode hex="0057"/>
  <outline>
    <contour>
      <point x="222" y="0" type="line"/>
      <point x="33" y="715" type="line"/>
      <point x="89" y="715" type="line"/>
      <point x="253" y="85" type="line"/>
      <point x="442" y="715" type="line"/>
      <point x="481" y="715" type="line"/>
      <point x="663" y="83" type="line"/>
      <point x="836" y="715" type="line"/>
      <point x="887" y="715" type="line"/>
      <point x="691" y="0" type="line"/>
      <point x="637" y="0" type="line"/>
      <point x="461" y="616" type="line"/>
      <point x="275" y="0" type="line"/>
    </contour>
  </outline>
</glyph>
<glyph name="X" format="2">
  <advance width="646"/>
  <unicode hex="0058"/>
  <outline>
    <contour>
      <point x="46" y="0" type="line"/>
      <point x="293" y="370" type="line"/>
      <point x="67" y="715" type="line"/>
      <point x="128" y="715" type="line"/>
      <point x="328" y="412" type="line"/>
      <point x="526" y="715" type="line"/>
      <point x="584" y="715" type="line"/>
      <point x="356" y="369" type="line"/>
      <point x="600" y="0" type="line"/>
      <point x="537" y="0" type="line"/>
      <point x="320" y="328" type="line"/>
      <point x="103" y="0" type="line"/>
    </contour>
  </outline>
</glyph>
<glyph name="Z" format="2">
  <advance width="587"/>
  <unicode hex="005A"/>
  <outline>
    <contour>
      <point x="27" y="0" type="line"/>
      <point x="27" y="11" type="line"/>
      <point x="470" y="669" type="line"/>
      <point x="63" y="669" type="line"/>
      <point x="63" y="715" type="line"/>
      <point x="548" y="715" type="line"/>
      <point x="548" y="705" type="line"/>
      <point x="111" y="48" type="line"/>
      <point x="542" y="48" type="line"/>
      <point x="542" y="0" type="line"/>
    </contour>
  </outline>
</glyph>
<glyph name="bracketleft" format="2">
  <advance width="340"/>
  <unicode hex="005B"/>
  <outline>
    <contour>
      <point x="93" y="-148" type="line"/>
      <point x="93" y="776" type="line"/>
      <point x="299" y="776" type="line"/>
      <point x="299" y="733" type="line"/>
      <point x="146" y="733" type="line"/>
      <point x="146" y="-105" type="line"/>
      <point x="299" y="-105" type="line"/>
      <point x="299" y="-148" type="line"/>
    </contour>
  </outline>
</glyph>
<glyph name="backslash" format="2">
  <advance width="391"/>
  <unicode hex="005C"/>
  <outline>
    <contour>
      <point x="328" y="-148" type="line"/>
      <point x="37" y="776" type="line"/>
      <point x="87" y="776" type="line"/>
      <point x="378" y="-148" type="line"/>
    </contour>
  </outline>
</glyph>
<glyph name="bracketright" format="2">
  <advance width="340"/>
  <unicode hex="005D"/>
  <outline>
    <contour>
      <point x="42" y="-148" type="line"/>
      <point x="42" y="-105" type="line"/>
      <point x="194" y="-105" type="line"/>
      <point x="194" y="733" type="line"/>
      <point x="42" y="733" type="line"/>
      <point x="42" y="776" type="line"/>
      <point x="247" y="776" type="line"/>
      <point x="247" y="-148" type="line"/>
    </contour>
  </outline>
</glyph>
<glyph name="asciicircum" format="2">
  <advance width="478"/>
  <unicode hex="005E"/>
  <outline>
    <contour>
      <point x="46" y="422" type="line"/>
      <point x="213" y="715" type="line"/>
      <point x="266" y="715" type="line"/>
      <point x="433" y="422" type="line"/>
      <point x="378" y="422" type="line"/>
      <point x="239" y="667" type="line"/>
      <point x="99" y="422" type="line"/>
    </contour>
  </outline>
</glyph>
<glyph name="underscore" format="2">
  <advance width="389"/>
  <unicode hex="005F"/>
  <outline>
    <contour>
      <point x="-1" y="-151" type="line"/>
      <point x="-1" y="-107" type="line"/>
      <point x="390" y="-107" type="line"/>
      <point x="390" y="-151" type="line"/>
    </contour>
  </outline>
</glyph>
<glyph name="grave" format="2">
  <advance width="400"/>
  <unicode hex="0060"/>
  <outline>
    <contour>
      <point x="184" y="605" type="line"/>
      <point x="92" y="752" type="line"/>
      <point x="157" y="752" type="line"/>
      <point x="225" y="605" type="line"/>
    </contour>
  </outline>
</glyph>
<glyph name="b" format="2">
  <advance width="612"/>
  <unicode hex="0062"/>
  <outline>
    <contour>
      <point x="334" y="-8" type="curve" smooth="yes"/>
      <point x="231" y="-8"/>
      <point x="163" y="55"/>
      <point x="135" y="119" type="curve"/>
      <point x="135" y="0" type="line"/>
      <point x="82" y="0" type="line"/>
      <point x="82" y="773" type="line"/>
      <point x="135" y="773" type="line"/>
      <point x="135" y="401" type="line"/>
      <point x="165" y="469"/>
      <point x="242" y="531"/>
      <point x="334" y="531" type="curve" smooth="yes"/>
      <point x="466" y="531"/>
      <point x="569" y="430"/>
      <point x="569" y="267" type="curve" smooth="yes"/>
      <point x="569" y="259" type="line" smooth="yes"/>
      <point x="569" y="95"/>
      <point x="469" y="-8"/>
    </contour>
    <contour>
      <point x="330" y="37" type="curve" smooth="yes"/>
      <point x="440" y="37"/>
      <point x="514" y="117"/>
      <point x="514" y="257" type="curve" smooth="yes"/>
      <point x="514" y="265" type="line" smooth="yes"/>
      <point x="514" y="409"/>
      <point x="429" y="486"/>
      <point x="329" y="486" type="curve" smooth="yes"/>
      <point x="227" y="486"/>
      <point x="134" y="409"/>
      <point x="134" y="265" type="curve" smooth="yes"/>
      <point x="134" y="257" type="line" smooth="yes"/>
      <point x="134" y="114"/>
      <point x="221" y="37"/>
    </contour>
  </outline>
</glyph>
<glyph name="j" format="2">
  <advance width="221"/>
  <unicode hex="006A"/>
  <outline>
    <contour>
      <point x="7" y="-188" type="curve"/>
      <point x="7" y="-143" type="line"/>
      <point x="66" y="-138"/>
      <point x="84" y="-108"/>
      <point x="84" y="-52" type="curve" smooth="yes"/>
      <point x="84" y="523" type="line"/>
      <point x="137" y="523" type="line"/>
      <point x="137" y="-48" type="line" smooth="yes"/>
      <point x="137" y="-139"/>
      <point x="102" y="-184"/>
    </contour>
    <contour>
      <point x="110" y="635" type="curve" smooth="yes"/>
      <point x="89" y="635"/>
      <point x="72" y="652"/>
      <point x="72" y="673" type="curve" smooth="yes"/>
      <point x="72" y="693"/>
      <point x="89" y="710"/>
      <point x="110" y="710" type="curve" smooth="yes"/>
      <point x="131" y="710"/>
      <point x="147" y="693"/>
      <point x="147" y="673" type="curve" smooth="yes"/>
      <point x="147" y="652"/>
      <point x="131" y="635"/>
    </contour>
  </outline>
</glyph>
<glyph name="k" format="2">
  <advance width="487"/>
  <unicode hex="006B"/>
  <outline>
    <contour>
      <point x="82" y="0" type="line"/>
      <point x="82" y="773" type="line"/>
      <point x="135" y="773" type="line"/>
      <point x="135" y="277" type="line"/>
      <point x="390" y="523" type="line"/>
      <point x="453" y="523" type="line"/>
      <point x="198" y="279" type="line"/>
      <point x="470" y="0" type="line"/>
      <point x="404" y="0" type="line"/>
      <point x="135" y="277" type="line"/>
      <point x="135" y="0" type="line"/>
    </contour>
  </outline>
</glyph>
<glyph name="m" format="2">
  <advance width="904"/>
  <unicode hex="006D"/>
  <outline>
    <contour>
      <point x="82" y="0" type="line"/>
      <point x="82" y="523" type="line"/>
      <point x="135" y="523" type="line"/>
      <point x="135" y="424" type="line"/>
      <point x="159" y="481"/>
      <point x="221" y="531"/>
      <point x="306" y="531" type="curve" smooth="yes"/>
      <point x="384" y="531"/>
      <point x="444" y="498"/>
      <point x="466" y="414" type="curve"/>
      <point x="499" y="488"/>
      <point x="573" y="531"/>
      <point x="652" y="531" type="curve" smooth="yes"/>
      <point x="753" y="531"/>
      <point x="827" y="476"/>
      <point x="827" y="327" type="curve" smooth="yes"/>
      <point x="827" y="0" type="line"/>
      <point x="774" y="0" type="line"/>
      <point x="774" y="330" type="line" smooth="yes"/>
      <point x="774" y="441"/>
      <point x="727" y="485"/>
      <point x="643" y="485" type="curve" smooth="yes"/>
      <point x="563" y="485"/>
      <point x="481" y="428"/>
      <point x="481" y="319" type="curve" smooth="yes"/>
      <point x="481" y="0" type="line"/>
      <point x="428" y="0" type="line"/>
      <point x="428" y="330" type="line" smooth="yes"/>
      <point x="428" y="441"/>
      <point x="381" y="485"/>
      <point x="297" y="485" type="curve" smooth="yes"/>
      <point x="217" y="485"/>
      <point x="135" y="428"/>
      <point x="135" y="319" type="curve" smooth="yes"/>
      <point x="135" y="0" type="line"/>
    </contour>
  </outline>
</glyph>
<glyph name="r" format="2">
  <advance width="348"/>
  <unicode hex="0072"/>
  <outline>
    <contour>
      <point x="82" y="0" type="line"/>
      <point x="82" y="523" type="line"/>
      <point x="135" y="523" type="line"/>
      <point x="135" y="413" type="line"/>
      <point x="164" y="477"/>
      <point x="216" y="527"/>
      <point x="312" y="530" type="curve"/>
      <point x="312" y="480" type="line"/>
      <point x="211" y="476"/>
      <point x="135" y="429"/>
      <point x="135" y="290" type="curve" smooth="yes"/>
      <point x="135" y="0" type="line"/>
    </contour>
  </outline>
</glyph>
<glyph name="t" format="2">
  <advance width="338"/>
  <unicode hex="0074"/>
  <outline>
    <contour>
      <point x="230" y="-7" type="curve" smooth="yes"/>
      <point x="147" y="-7"/>
      <point x="102" y="42"/>
      <point x="102" y="126" type="curve" smooth="yes"/>
      <point x="102" y="478" type="line"/>
      <point x="25" y="478" type="line"/>
      <point x="25" y="523" type="line"/>
      <point x="102" y="523" type="line"/>
      <point x="102" y="642" type="line"/>
      <point x="155" y="642" type="line"/>
      <point x="155" y="523" type="line"/>
      <point x="292" y="523" type="line"/>
      <point x="292" y="478" type="line"/>
      <point x="155" y="478" type="line"/>
      <point x="155" y="130" type="line" smooth="yes"/>
      <point x="155" y="67"/>
      <point x="185" y="38"/>
      <point x="233" y="38" type="curve" smooth="yes"/>
      <point x="260" y="38"/>
      <point x="281" y="43"/>
      <point x="299" y="49" type="curve"/>
      <point x="299" y="4" type="line"/>
      <point x="282" y="-2"/>
      <point x="262" y="-7"/>
    </contour>
  </outline>
</glyph>
<glyph name="x" format="2">
  <advance width="511"/>
  <unicode hex="0078"/>
  <outline>
    <contour>
      <point x="29" y="0" type="line"/>
      <point x="223" y="270" type="line"/>
      <point x="41" y="523" type="line"/>
      <point x="104" y="523" type="line"/>
      <point x="255" y="310" type="line"/>
      <point x="404" y="523" type="line"/>
      <point x="463" y="523" type="line"/>
      <point x="284" y="274" type="line"/>
      <point x="482" y="0" type="line"/>
      <point x="419" y="0" type="line"/>
      <point x="253" y="234" type="line"/>
      <point x="87" y="0" type="line"/>
    </contour>
  </outline>
</glyph>
<glyph name="y" format="2">
  <advance width="508"/>
  <unicode hex="0079"/>
  <outline>
    <contour>
      <point x="137" y="-182" type="line"/>
      <point x="232" y="45" type="line"/>
      <point x="25" y="523" type="line"/>
      <point x="82" y="523" type="line"/>
      <point x="261" y="106" type="line"/>
      <point x="428" y="523" type="line"/>
      <point x="482" y="523" type="line"/>
      <point x="192" y="-182" type="line"/>
    </contour>
  </outline>
</glyph>
<glyph name="z" format="2">
  <advance width="474"/>
  <unicode hex="007A"/>
  <outline>
    <contour>
      <point x="24" y="0" type="line"/>
      <point x="24" y="9" type="line"/>
      <point x="364" y="478" type="line"/>
      <point x="54" y="478" type="line"/>
      <point x="54" y="523" type="line"/>
      <point x="447" y="523" type="line"/>
      <point x="447" y="513" type="line"/>
      <point x="110" y="47" type="line"/>
      <point x="440" y="47" type="line"/>
      <point x="440" y="0" type="line"/>
    </contour>
  </outline>
</glyph>
<glyph name="braceleft" format="2">
  <advance width="363"/>
  <unicode hex="007B"/>
  <outline>
    <contour>
      <point x="321" y="-146" type="line"/>
      <point x="184" y="-146"/>
      <point x="112" y="-94"/>
      <point x="140" y="53" type="curve" smooth="yes"/>
      <point x="162" y="167" type="line" smooth="yes"/>
      <point x="176" y="237"/>
      <point x="146" y="295"/>
      <point x="42" y="296" type="curve"/>
      <point x="42" y="336" type="line"/>
      <point x="146" y="337"/>
      <point x="176" y="395"/>
      <point x="162" y="465" type="curve" smooth="yes"/>
      <point x="140" y="579" type="line" smooth="yes"/>
      <point x="112" y="726"/>
      <point x="184" y="778"/>
      <point x="321" y="778" type="curve"/>
      <point x="321" y="736" type="line"/>
      <point x="217" y="735"/>
      <point x="168" y="703"/>
      <point x="190" y="580" type="curve" smooth="yes"/>
      <point x="213" y="460" type="line" smooth="yes"/>
      <point x="228" y="376"/>
      <point x="186" y="332"/>
      <point x="119" y="316" type="curve"/>
      <point x="186" y="300"/>
      <point x="228" y="256"/>
      <point x="213" y="172" type="curve" smooth="yes"/>
      <point x="190" y="52" type="line" smooth="yes"/>
      <point x="168" y="-71"/>
      <point x="217" y="-103"/>
      <point x="321" y="-104" type="curve"/>
    </contour>
  </outline>
</glyph>
<glyph name="braceright" format="2">
  <advance width="363"/>
  <unicode hex="007D"/>
  <outline>
    <contour>
      <point x="42" y="-146" type="curve"/>
      <point x="42" y="-104" type="line"/>
      <point x="145" y="-103"/>
      <point x="195" y="-71"/>
      <point x="172" y="52" type="curve" smooth="yes"/>
      <point x="150" y="172" type="line" smooth="yes"/>
      <point x="135" y="256"/>
      <point x="177" y="300"/>
      <point x="244" y="316" type="curve"/>
      <point x="177" y="332"/>
      <point x="135" y="376"/>
      <point x="150" y="460" type="curve" smooth="yes"/>
      <point x="172" y="580" type="line" smooth="yes"/>
      <point x="195" y="703"/>
      <point x="145" y="735"/>
      <point x="42" y="736" type="curve"/>
      <point x="42" y="778" type="line"/>
      <point x="179" y="778"/>
      <point x="251" y="726"/>
      <point x="223" y="579" type="curve" smooth="yes"/>
      <point x="200" y="465" type="line" smooth="yes"/>
      <point x="187" y="395"/>
      <point x="216" y="337"/>
      <point x="321" y="336" type="curve"/>
      <point x="321" y="296" type="line"/>
      <point x="216" y="295"/>
      <point x="187" y="237"/>
      <point x="200" y="167" type="curve" smooth="yes"/>
      <point x="223" y="53" type="line" smooth="yes"/>
      <point x="251" y="-94"/>
      <point x="179" y="-146"/>
    </contour>
  </outline>
</glyph>
<glyph name="asciitilde" format="2">
  <advance width="438"/>
  <unicode hex="007E"/>
  <outline>
    <contour>
      <point x="46" y="232" type="line"/>
      <point x="53" y="301"/>
      <point x="93" y="342"/>
      <point x="143" y="342" type="curve" smooth="yes"/>
      <point x="207" y="342"/>
      <point x="250" y="282"/>
      <point x="293" y="282" type="curve" smooth="yes"/>
      <point x="322" y="282"/>
      <point x="344" y="307"/>
      <point x="347" y="344" type="curve"/>
      <point x="391" y="344" type="line"/>
      <point x="385" y="273"/>
      <point x="345" y="234"/>
      <point x="297" y="234" type="curve" smooth="yes"/>
      <point x="230" y="234"/>
      <point x="188" y="294"/>
      <point x="145" y="294" type="curve" smooth="yes"/>
      <point x="116" y="294"/>
      <point x="95" y="268"/>
      <point x="90" y="232" type="curve"/>
    </contour>
  </outline>
</glyph>
<glyph name="exclamdown" format="2">
  <advance width="272"/>
  <unicode hex="00A1"/>
  <outline>
    <contour>
      <point x="106" y="-117" type="line"/>
      <point x="114" y="419" type="line"/>
      <point x="156" y="419" type="line"/>
      <point x="165" y="-117" type="line"/>
    </contour>
    <contour>
      <point x="136" y="518" type="curve" smooth="yes"/>
      <point x="113" y="518"/>
      <point x="94" y="537"/>
      <point x="94" y="561" type="curve" smooth="yes"/>
      <point x="94" y="584"/>
      <point x="113" y="603"/>
      <point x="136" y="603" type="curve" smooth="yes"/>
      <point x="160" y="603"/>
      <point x="179" y="584"/>
      <point x="179" y="561" type="curve" smooth="yes"/>
      <point x="179" y="537"/>
      <point x="160" y="518"/>
    </contour>
  </outline>
</glyph>
<glyph name="cent" format="2">
  <advance width="553"/>
  <unicode hex="00A2"/>
  <outline>
    <contour>
      <point x="270" y="-135" type="line"/>
      <point x="270" y="-7" type="line"/>
      <point x="140" y="3"/>
      <point x="43" y="101"/>
      <point x="43" y="256" type="curve" smooth="yes"/>
      <point x="43" y="264" type="line" smooth="yes"/>
      <point x="43" y="419"/>
      <point x="143" y="520"/>
      <point x="270" y="530" type="curve"/>
      <point x="270" y="629" type="line"/>
      <point x="310" y="629" type="line"/>
      <point x="310" y="530" type="line"/>
      <point x="409" y="524"/>
      <point x="498" y="468"/>
      <point x="511" y="357" type="curve"/>
      <point x="459" y="357" type="line"/>
      <point x="447" y="438"/>
      <point x="385" y="479"/>
      <point x="310" y="485" type="curve"/>
      <point x="310" y="38" type="line"/>
      <point x="389" y="44"/>
      <point x="455" y="93"/>
      <point x="467" y="181" type="curve"/>
      <point x="516" y="181" type="line"/>
      <point x="502" y="75"/>
      <point x="420" y="0"/>
      <point x="310" y="-7" type="curve"/>
      <point x="310" y="-135" type="line"/>
    </contour>
    <contour>
      <point x="98" y="256" type="line" smooth="yes"/>
      <point x="98" y="123"/>
      <point x="171" y="47"/>
      <point x="270" y="38" type="curve"/>
      <point x="270" y="485" type="line"/>
      <point x="172" y="475"/>
      <point x="98" y="396"/>
      <point x="98" y="264" type="curve" smooth="yes"/>
    </contour>
  </outline>
</glyph>
<glyph name="sterling" format="2">
  <advance width="589"/>
  <unicode hex="00A3"/>
  <outline>
    <contour>
      <point x="49" y="327" type="line"/>
      <point x="49" y="368" type="line"/>
      <point x="120" y="368" type="line"/>
      <point x="107" y="413"/>
      <point x="96" y="461"/>
      <point x="96" y="519" type="curve" smooth="yes"/>
      <point x="96" y="641"/>
      <point x="188" y="723"/>
      <point x="312" y="723" type="curve" smooth="yes"/>
      <point x="441" y="723"/>
      <point x="513" y="649"/>
      <point x="523" y="540" type="curve"/>
      <point x="469" y="540" type="line"/>
      <point x="455" y="627"/>
      <point x="411" y="676"/>
      <point x="312" y="676" type="curve" smooth="yes"/>
      <point x="218" y="676"/>
      <point x="153" y="612"/>
      <point x="153" y="519" type="curve" smooth="yes"/>
      <point x="153" y="461"/>
      <point x="164" y="414"/>
      <point x="176" y="368" type="curve"/>
      <point x="405" y="368" type="line"/>
      <point x="405" y="327" type="line"/>
      <point x="187" y="327" type="line"/>
      <point x="197" y="286"/>
      <point x="206" y="243"/>
      <point x="206" y="190" type="curve" smooth="yes"/>
      <point x="206" y="160"/>
      <point x="199" y="133"/>
      <point x="188" y="109" type="curve"/>
      <point x="263" y="97"/>
      <point x="337" y="40"/>
      <point x="401" y="40" type="curve" smooth="yes"/>
      <point x="462" y="40"/>
      <point x="500" y="73"/>
      <point x="504" y="144" type="curve"/>
      <point x="552" y="144" type="line"/>
      <point x="546" y="53"/>
      <point x="492" y="-8"/>
      <point x="406" y="-8" type="curve" smooth="yes"/>
      <point x="314" y="-8"/>
      <point x="236" y="65"/>
      <point x="168" y="65" type="curve" smooth="yes"/>
      <point x="121" y="65"/>
      <point x="95" y="35"/>
      <point x="90" y="0" type="curve"/>
      <point x="42" y="0" type="line"/>
      <point x="47" y="44"/>
      <point x="76" y="96"/>
      <point x="136" y="108" type="curve"/>
      <point x="148" y="131"/>
      <point x="156" y="158"/>
      <point x="156" y="191" type="curve" smooth="yes"/>
      <point x="156" y="240"/>
      <point x="145" y="283"/>
      <point x="132" y="327" type="curve"/>
    </contour>
  </outline>
</glyph>
<glyph name="yen" format="2">
  <advance width="548"/>
  <unicode hex="00A5"/>
  <outline>
    <contour>
      <point x="73" y="305" type="line"/>
      <point x="73" y="344" type="line"/>
      <point x="244" y="344" type="line"/>
      <point x="28" y="715" type="line"/>
      <point x="88" y="715" type="line"/>
      <point x="283" y="375" type="line"/>
      <point x="466" y="715" type="line"/>
      <point x="520" y="715" type="line"/>
      <point x="317" y="344" type="line"/>
      <point x="488" y="344" type="line"/>
      <point x="488" y="305" type="line"/>
      <point x="308" y="305" type="line"/>
      <point x="308" y="208" type="line"/>
      <point x="488" y="208" type="line"/>
      <point x="488" y="169" type="line"/>
      <point x="308" y="169" type="line"/>
      <point x="308" y="0" type="line"/>
      <point x="254" y="0" type="line"/>
      <point x="254" y="169" type="line"/>
      <point x="73" y="169" type="line"/>
      <point x="73" y="208" type="line"/>
      <point x="254" y="208" type="line"/>
      <point x="254" y="305" type="line"/>
    </contour>
  </outline>
</glyph>
<glyph name="section" format="2">
  <advance width="535"/>
  <unicode hex="00A7"/>
  <outline>
    <contour>
      <point x="266" y="-137" type="curve" smooth="yes"/>
      <point x="161" y="-137"/>
      <point x="86" y="-82"/>
      <point x="81" y="16" type="curve"/>
      <point x="136" y="16" type="line"/>
      <point x="142" y="-51"/>
      <point x="186" y="-91"/>
      <point x="265" y="-91" type="curve" smooth="yes"/>
      <point x="346" y="-91"/>
      <point x="385" y="-46"/>
      <point x="385" y="16" type="curve" smooth="yes"/>
      <point x="385" y="86"/>
      <point x="349" y="113"/>
      <point x="231" y="143" type="curve" smooth="yes"/>
      <point x="121" y="172"/>
      <point x="46" y="210"/>
      <point x="46" y="307" type="curve" smooth="yes"/>
      <point x="46" y="377"/>
      <point x="101" y="426"/>
      <point x="174" y="444" type="curve"/>
      <point x="129" y="472"/>
      <point x="104" y="506"/>
      <point x="104" y="572" type="curve" smooth="yes"/>
      <point x="104" y="662"/>
      <point x="183" y="724"/>
      <point x="273" y="724" type="curve" smooth="yes"/>
      <point x="375" y="724"/>
      <point x="437" y="671"/>
      <point x="443" y="578" type="curve"/>
      <point x="389" y="578" type="line"/>
      <point x="383" y="641"/>
      <point x="352" y="678"/>
      <point x="274" y="678" type="curve" smooth="yes"/>
      <point x="203" y="678"/>
      <point x="156" y="637"/>
      <point x="156" y="573" type="curve" smooth="yes"/>
      <point x="156" y="507"/>
      <point x="189" y="480"/>
      <point x="302" y="448" type="curve" smooth="yes"/>
      <point x="413" y="417"/>
      <point x="489" y="382"/>
      <point x="489" y="282" type="curve" smooth="yes"/>
      <point x="489" y="214"/>
      <point x="441" y="166"/>
      <point x="367" y="146" type="curve"/>
      <point x="414" y="119"/>
      <point x="437" y="79"/>
      <point x="437" y="17" type="curve" smooth="yes"/>
      <point x="437" y="-72"/>
      <point x="367" y="-137"/>
    </contour>
    <contour>
      <point x="325" y="169" type="line"/>
      <point x="397" y="185"/>
      <point x="436" y="220"/>
      <point x="436" y="279" type="curve" smooth="yes"/>
      <point x="436" y="346"/>
      <point x="384" y="371"/>
      <point x="291" y="398" type="curve" smooth="yes"/>
      <point x="214" y="421" type="line"/>
      <point x="148" y="409"/>
      <point x="99" y="371"/>
      <point x="99" y="311" type="curve" smooth="yes"/>
      <point x="99" y="243"/>
      <point x="153" y="218"/>
      <point x="247" y="192" type="curve" smooth="yes"/>
    </contour>
  </outline>
</glyph>
<glyph name="dieresis" format="2">
  <advance width="400"/>
  <unicode hex="00A8"/>
  <outline>
    <contour>
      <point x="117" y="636" type="curve" smooth="yes"/>
      <point x="96" y="636"/>
      <point x="80" y="653"/>
      <point x="80" y="673" type="curve" smooth="yes"/>
      <point x="80" y="693"/>
      <point x="96" y="709"/>
      <point x="117" y="709" type="curve" smooth="yes"/>
      <point x="137" y="709"/>
      <point x="153" y="693"/>
      <point x="153" y="673" type="curve" smooth="yes"/>
      <point x="153" y="653"/>
      <point x="137" y="636"/>
    </contour>
    <contour>
      <point x="283" y="636" type="curve" smooth="yes"/>
      <point x="263" y="636"/>
      <point x="247" y="653"/>
      <point x="247" y="673" type="curve" smooth="yes"/>
      <point x="247" y="693"/>
      <point x="263" y="709"/>
      <point x="283" y="709" type="curve" smooth="yes"/>
      <point x="304" y="709"/>
      <point x="320" y="693"/>
      <point x="320" y="673" type="curve" smooth="yes"/>
      <point x="320" y="653"/>
      <point x="304" y="636"/>
    </contour>
  </outline>
</glyph>
<glyph name="copyright" format="2">
  <advance width="844"/>
  <unicode hex="00A9"/>
  <outline>
    <contour>
      <point x="424" y="151" type="curve" smooth="yes"/>
      <point x="303" y="151"/>
      <point x="229" y="233"/>
      <point x="229" y="356" type="curve" smooth="yes"/>
      <point x="229" y="363" type="line" smooth="yes"/>
      <point x="229" y="485"/>
      <point x="314" y="568"/>
      <point x="423" y="568" type="curve" smooth="yes"/>
      <point x="512" y="568"/>
      <point x="582" y="523"/>
      <point x="594" y="435" type="curve"/>
      <point x="542" y="435" type="line"/>
      <point x="531" y="494"/>
      <point x="490" y="526"/>
      <point x="423" y="526" type="curve" smooth="yes"/>
      <point x="341" y="526"/>
      <point x="283" y="463"/>
      <point x="283" y="363" type="curve" smooth="yes"/>
      <point x="283" y="357" type="line" smooth="yes"/>
      <point x="283" y="256"/>
      <point x="337" y="194"/>
      <point x="424" y="194" type="curve" smooth="yes"/>
      <point x="490" y="194"/>
      <point x="538" y="229"/>
      <point x="549" y="293" type="curve"/>
      <point x="598" y="293" type="line"/>
      <point x="586" y="201"/>
      <point x="516" y="151"/>
    </contour>
    <contour>
      <point x="421" y="23" type="curve" smooth="yes"/>
      <point x="601" y="23"/>
      <point x="752" y="164"/>
      <point x="752" y="359" type="curve" smooth="yes"/>
      <point x="752" y="551"/>
      <point x="606" y="692"/>
      <point x="423" y="692" type="curve" smooth="yes"/>
      <point x="240" y="692"/>
      <point x="92" y="550"/>
      <point x="92" y="357" type="curve" smooth="yes"/>
      <point x="92" y="162"/>
      <point x="244" y="23"/>
    </contour>
    <contour>
      <point x="421" y="-9" type="curve" smooth="yes"/>
      <point x="218" y="-9"/>
      <point x="55" y="150"/>
      <point x="55" y="357" type="curve" smooth="yes"/>
      <point x="55" y="561"/>
      <point x="217" y="724"/>
      <point x="423" y="724" type="curve" smooth="yes"/>
      <point x="631" y="724"/>
      <point x="789" y="562"/>
      <point x="789" y="359" type="curve" smooth="yes"/>
      <point x="789" y="151"/>
      <point x="627" y="-9"/>
    </contour>
  </outline>
</glyph>
<glyph name="ordfeminine" format="2">
  <advance width="418"/>
  <unicode hex="00AA"/>
  <outline>
    <contour>
      <point x="176" y="302" type="curve" smooth="yes"/>
      <point x="96" y="302"/>
      <point x="37" y="341"/>
      <point x="37" y="419" type="curve" smooth="yes"/>
      <point x="37" y="514"/>
      <point x="127" y="544"/>
      <point x="231" y="544" type="curve" smooth="yes"/>
      <point x="312" y="544" type="line"/>
      <point x="312" y="577" type="line" smooth="yes"/>
      <point x="312" y="649"/>
      <point x="282" y="681"/>
      <point x="213" y="681" type="curve" smooth="yes"/>
      <point x="154" y="681"/>
      <point x="115" y="655"/>
      <point x="105" y="601" type="curve"/>
      <point x="55" y="601" type="line"/>
      <point x="64" y="685"/>
      <point x="135" y="723"/>
      <point x="216" y="723" type="curve" smooth="yes"/>
      <point x="304" y="723"/>
      <point x="362" y="681"/>
      <point x="362" y="577" type="curve" smooth="yes"/>
      <point x="362" y="309" type="line"/>
      <point x="312" y="309" type="line"/>
      <point x="312" y="369" type="line"/>
      <point x="287" y="331"/>
      <point x="244" y="302"/>
    </contour>
    <contour>
      <point x="184" y="342" type="curve" smooth="yes"/>
      <point x="255" y="342"/>
      <point x="312" y="383"/>
      <point x="312" y="442" type="curve" smooth="yes"/>
      <point x="312" y="507" type="line"/>
      <point x="233" y="507" type="line" smooth="yes"/>
      <point x="150" y="507"/>
      <point x="88" y="489"/>
      <point x="88" y="420" type="curve" smooth="yes"/>
      <point x="88" y="370"/>
      <point x="119" y="342"/>
    </contour>
  </outline>
</glyph>
<glyph name="guillemotleft" format="2">
  <advance width="448"/>
  <unicode hex="00AB"/>
  <outline>
    <contour>
      <point x="189" y="83" type="line"/>
      <point x="54" y="261" type="line"/>
      <point x="189" y="439" type="line"/>
      <point x="243" y="439" type="line"/>
      <point x="111" y="261" type="line"/>
      <point x="243" y="83" type="line"/>
    </contour>
    <contour>
      <point x="347" y="83" type="line"/>
      <point x="212" y="261" type="line"/>
      <point x="347" y="439" type="line"/>
      <point x="401" y="439" type="line"/>
      <point x="269" y="261" type="line"/>
      <point x="401" y="83" type="line"/>
    </contour>
  </outline>
</glyph>
<glyph name="registered" format="2">
  <advance width="514"/>
  <unicode hex="00AE"/>
  <outline>
    <contour>
      <point x="183" y="393" type="line"/>
      <point x="183" y="621" type="line"/>
      <point x="258" y="621" type="line" smooth="yes"/>
      <point x="308" y="621"/>
      <point x="341" y="599"/>
      <point x="341" y="554" type="curve" smooth="yes"/>
      <point x="341" y="553" type="line" smooth="yes"/>
      <point x="341" y="518"/>
      <point x="321" y="499"/>
      <point x="290" y="492" type="curve"/>
      <point x="355" y="393" type="line"/>
      <point x="314" y="393" type="line"/>
      <point x="253" y="486" type="line"/>
      <point x="220" y="486" type="line"/>
      <point x="220" y="393" type="line"/>
    </contour>
    <contour>
      <point x="220" y="514" type="line"/>
      <point x="257" y="514" type="line" smooth="yes"/>
      <point x="289" y="514"/>
      <point x="305" y="527"/>
      <point x="305" y="552" type="curve" smooth="yes"/>
      <point x="305" y="553" type="line" smooth="yes"/>
      <point x="305" y="581"/>
      <point x="288" y="592"/>
      <point x="257" y="592" type="curve" smooth="yes"/>
      <point x="220" y="592" type="line"/>
    </contour>
    <contour>
      <point x="257" y="310" type="curve" smooth="yes"/>
      <point x="365" y="310"/>
      <point x="448" y="391"/>
      <point x="448" y="503" type="curve" smooth="yes"/>
      <point x="448" y="615"/>
      <point x="367" y="697"/>
      <point x="257" y="697" type="curve" smooth="yes"/>
      <point x="148" y="697"/>
      <point x="66" y="614"/>
      <point x="66" y="502" type="curve" smooth="yes"/>
      <point x="66" y="389"/>
      <point x="150" y="310"/>
    </contour>
    <contour>
      <point x="257" y="282" type="curve" smooth="yes"/>
      <point x="134" y="282"/>
      <point x="35" y="377"/>
      <point x="35" y="502" type="curve" smooth="yes"/>
      <point x="35" y="625"/>
      <point x="133" y="724"/>
      <point x="257" y="724" type="curve" smooth="yes"/>
      <point x="383" y="724"/>
      <point x="479" y="626"/>
      <point x="479" y="503" type="curve" smooth="yes"/>
      <point x="479" y="378"/>
      <point x="381" y="282"/>
    </contour>
  </outline>
</glyph>
<glyph name="macron" format="2">
  <advance width="400"/>
  <unicode hex="00AF"/>
  <outline>
    <contour>
      <point x="79" y="647" type="line"/>
      <point x="79" y="689" type="line"/>
      <point x="321" y="689" type="line"/>
      <point x="321" y="647" type="line"/>
    </contour>
  </outline>
</glyph>
<glyph name="degree" format="2">
  <advance width="407"/>
  <unicode hex="00B0"/>
  <outline>
    <contour>
      <point x="204" y="466" type="curve" smooth="yes"/>
      <point x="264" y="466"/>
      <point x="308" y="514"/>
      <point x="308" y="575" type="curve" smooth="yes"/>
      <point x="308" y="636"/>
      <point x="264" y="685"/>
      <point x="204" y="685" type="curve" smooth="yes"/>
      <point x="143" y="685"/>
      <point x="98" y="636"/>
      <point x="98" y="575" type="curve" smooth="yes"/>
      <point x="98" y="514"/>
      <point x="143" y="466"/>
    </contour>
    <contour>
      <point x="204" y="427" type="curve" smooth="yes"/>
      <point x="119" y="427"/>
      <point x="51" y="494"/>
      <point x="51" y="575" type="curve" smooth="yes"/>
      <point x="51" y="657"/>
      <point x="119" y="724"/>
      <point x="204" y="724" type="curve" smooth="yes"/>
      <point x="288" y="724"/>
      <point x="356" y="657"/>
      <point x="356" y="575" type="curve" smooth="yes"/>
      <point x="356" y="494"/>
      <point x="288" y="427"/>
    </contour>
  </outline>
</glyph>
<glyph name="plusminus" format="2">
  <advance width="510"/>
  <unicode hex="00B1"/>
  <outline>
    <contour>
      <point x="231" y="131" type="line"/>
      <point x="231" y="330" type="line"/>
      <point x="36" y="330" type="line"/>
      <point x="36" y="375" type="line"/>
      <point x="231" y="375" type="line"/>
      <point x="231" y="574" type="line"/>
      <point x="279" y="574" type="line"/>
      <point x="279" y="375" type="line"/>
      <point x="474" y="375" type="line"/>
      <point x="474" y="330" type="line"/>
      <point x="279" y="330" type="line"/>
      <point x="279" y="131" type="line"/>
    </contour>
    <contour>
      <point x="36" y="0" type="line"/>
      <point x="36" y="45" type="line"/>
      <point x="474" y="45" type="line"/>
      <point x="474" y="0" type="line"/>
    </contour>
  </outline>
</glyph>
<glyph name="twosuperior" format="2">
  <advance width="287"/>
  <unicode hex="00B2"/>
  <outline>
    <contour>
      <point x="15" y="372" type="line"/>
      <point x="15" y="381" type="line"/>
      <point x="145" y="512" type="line" smooth="yes"/>
      <point x="186" y="554"/>
      <point x="207" y="584"/>
      <point x="207" y="620" type="curve" smooth="yes"/>
      <point x="207" y="660"/>
      <point x="181" y="684"/>
      <point x="141" y="684" type="curve" smooth="yes"/>
      <point x="97" y="684"/>
      <point x="72" y="656"/>
      <point x="66" y="606" type="curve"/>
      <point x="25" y="606" type="line"/>
      <point x="29" y="677"/>
      <point x="74" y="719"/>
      <point x="142" y="719" type="curve" smooth="yes"/>
      <point x="210" y="719"/>
      <point x="251" y="679"/>
      <point x="251" y="621" type="curve" smooth="yes"/>
      <point x="251" y="574"/>
      <point x="227" y="540"/>
      <point x="179" y="494" type="curve" smooth="yes"/>
      <point x="89" y="407" type="line"/>
      <point x="255" y="407" type="line"/>
      <point x="255" y="372" type="line"/>
    </contour>
  </outline>
</glyph>
<glyph name="threesuperior" format="2">
  <advance width="308"/>
  <unicode hex="00B3"/>
  <outline>
    <contour>
      <point x="153" y="368" type="curve" smooth="yes"/>
      <point x="74" y="368"/>
      <point x="27" y="412"/>
      <point x="24" y="473" type="curve"/>
      <point x="65" y="473" type="line"/>
      <point x="70" y="434"/>
      <point x="97" y="402"/>
      <point x="152" y="402" type="curve" smooth="yes"/>
      <point x="202" y="402"/>
      <point x="230" y="427"/>
      <point x="230" y="469" type="curve" smooth="yes"/>
      <point x="230" y="508"/>
      <point x="204" y="534"/>
      <point x="157" y="534" type="curve" smooth="yes"/>
      <point x="130" y="534" type="line"/>
      <point x="130" y="567" type="line"/>
      <point x="155" y="567" type="line" smooth="yes"/>
      <point x="200" y="567"/>
      <point x="221" y="591"/>
      <point x="221" y="626" type="curve" smooth="yes"/>
      <point x="221" y="661"/>
      <point x="196" y="685"/>
      <point x="154" y="685" type="curve" smooth="yes"/>
      <point x="108" y="685"/>
      <point x="82" y="657"/>
      <point x="77" y="619" type="curve"/>
      <point x="37" y="619" type="line"/>
      <point x="41" y="675"/>
      <point x="83" y="719"/>
      <point x="155" y="719" type="curve" smooth="yes"/>
      <point x="222" y="719"/>
      <point x="264" y="680"/>
      <point x="264" y="628" type="curve" smooth="yes"/>
      <point x="264" y="589"/>
      <point x="240" y="563"/>
      <point x="205" y="553" type="curve"/>
      <point x="245" y="544"/>
      <point x="275" y="515"/>
      <point x="275" y="468" type="curve" smooth="yes"/>
      <point x="275" y="405"/>
      <point x="227" y="368"/>
    </contour>
  </outline>
</glyph>
<glyph name="acute" format="2">
  <advance width="400"/>
  <unicode hex="00B4"/>
  <outline>
    <contour>
      <point x="175" y="605" type="line"/>
      <point x="243" y="752" type="line"/>
      <point x="308" y="752" type="line"/>
      <point x="216" y="605" type="line"/>
    </contour>
  </outline>
</glyph>
<glyph name="paragraph" format="2">
  <advance width="559"/>
  <unicode hex="00B6"/>
  <outline>
    <contour>
      <point x="271" y="-100" type="line"/>
      <point x="271" y="353" type="line"/>
      <point x="257" y="353" type="line" smooth="yes"/>
      <point x="133" y="353"/>
      <point x="45" y="412"/>
      <point x="45" y="530" type="curve" smooth="yes"/>
      <point x="45" y="655"/>
      <point x="137" y="715"/>
      <point x="257" y="715" type="curve" smooth="yes"/>
      <point x="465" y="715" type="line"/>
      <point x="465" y="-100" type="line"/>
      <point x="419" y="-100" type="line"/>
      <point x="419" y="677" type="line"/>
      <point x="316" y="677" type="line"/>
      <point x="316" y="-100" type="line"/>
    </contour>
  </outline>
</glyph>
<glyph name="cedilla" format="2">
  <advance width="400"/>
  <unicode hex="00B8"/>
  <outline>
    <contour>
      <point x="210" y="-212" type="curve" smooth="yes"/>
      <point x="156" y="-212"/>
      <point x="119" y="-181"/>
      <point x="114" y="-134" type="curve"/>
      <point x="158" y="-134" type="line"/>
      <point x="162" y="-157"/>
      <point x="179" y="-176"/>
      <point x="208" y="-176" type="curve" smooth="yes"/>
      <point x="238" y="-176"/>
      <point x="258" y="-159"/>
      <point x="258" y="-132" type="curve" smooth="yes"/>
      <point x="258" y="-103"/>
      <point x="235" y="-93"/>
      <point x="213" y="-93" type="curve" smooth="yes"/>
      <point x="196" y="-93"/>
      <point x="183" y="-98"/>
      <point x="177" y="-101" type="curve"/>
      <point x="151" y="-80" type="line"/>
      <point x="196" y="0" type="line"/>
      <point x="239" y="0" type="line"/>
      <point x="204" y="-61" type="line"/>
      <point x="253" y="-50"/>
      <point x="305" y="-73"/>
      <point x="305" y="-134" type="curve" smooth="yes"/>
      <point x="305" y="-185"/>
      <point x="262" y="-212"/>
    </contour>
  </outline>
</glyph>
<glyph name="ordmasculine" format="2">
  <advance width="475"/>
  <unicode hex="00BA"/>
  <outline>
    <contour>
      <point x="238" y="344" type="curve" smooth="yes"/>
      <point x="322" y="344"/>
      <point x="384" y="408"/>
      <point x="384" y="510" type="curve" smooth="yes"/>
      <point x="384" y="516" type="line" smooth="yes"/>
      <point x="384" y="618"/>
      <point x="322" y="680"/>
      <point x="238" y="680" type="curve" smooth="yes"/>
      <point x="155" y="680"/>
      <point x="91" y="616"/>
      <point x="91" y="515" type="curve" smooth="yes"/>
      <point x="91" y="509" type="line" smooth="yes"/>
      <point x="91" y="409"/>
      <point x="153" y="344"/>
    </contour>
    <contour>
      <point x="237" y="302" type="curve" smooth="yes"/>
      <point x="125" y="302"/>
      <point x="39" y="387"/>
      <point x="39" y="509" type="curve" smooth="yes"/>
      <point x="39" y="515" type="line" smooth="yes"/>
      <point x="39" y="640"/>
      <point x="127" y="722"/>
      <point x="238" y="722" type="curve" smooth="yes"/>
      <point x="350" y="722"/>
      <point x="436" y="642"/>
      <point x="436" y="516" type="curve" smooth="yes"/>
      <point x="436" y="510" type="line" smooth="yes"/>
      <point x="436" y="383"/>
      <point x="349" y="302"/>
    </contour>
  </outline>
</glyph>
<glyph name="guillemotright" format="2">
  <advance width="448"/>
  <unicode hex="00BB"/>
  <outline>
    <contour>
      <point x="47" y="83" type="line"/>
      <point x="179" y="261" type="line"/>
      <point x="47" y="439" type="line"/>
      <point x="101" y="439" type="line"/>
      <point x="236" y="261" type="line"/>
      <point x="101" y="83" type="line"/>
    </contour>
    <contour>
      <point x="205" y="83" type="line"/>
      <point x="337" y="261" type="line"/>
      <point x="205" y="439" type="line"/>
      <point x="259" y="439" type="line"/>
      <point x="394" y="261" type="line"/>
      <point x="259" y="83" type="line"/>
    </contour>
  </outline>
</glyph>
<glyph name="onequarter" format="2">
  <advance width="661"/>
  <unicode hex="00BC"/>
  <outline>
    <contour>
      <point x="112" y="372" type="line"/>
      <point x="112" y="668" type="line"/>
      <point x="24" y="607" type="line"/>
      <point x="24" y="648" type="line"/>
      <point x="120" y="715" type="line"/>
      <point x="157" y="715" type="line"/>
      <point x="157" y="372" type="line"/>
    </contour>
    <contour>
      <point x="45" y="0" type="line"/>
      <point x="561" y="715" type="line"/>
      <point x="606" y="715" type="line"/>
      <point x="90" y="0" type="line"/>
    </contour>
    <contour>
      <point x="543" y="0" type="line"/>
      <point x="543" y="74" type="line"/>
      <point x="365" y="74" type="line"/>
      <point x="365" y="90" type="line"/>
      <point x="529" y="343" type="line"/>
      <point x="586" y="343" type="line"/>
      <point x="586" y="108" type="line"/>
      <point x="633" y="108" type="line"/>
      <point x="633" y="74" type="line"/>
      <point x="586" y="74" type="line"/>
      <point x="586" y="0" type="line"/>
    </contour>
    <contour>
      <point x="416" y="108" type="line"/>
      <point x="544" y="108" type="line"/>
      <point x="544" y="310" type="line"/>
    </contour>
  </outline>
</glyph>
<glyph name="onehalf" format="2">
  <advance width="665"/>
  <unicode hex="00BD"/>
  <outline>
    <contour>
      <point x="29" y="0" type="line"/>
      <point x="545" y="715" type="line"/>
      <point x="590" y="715" type="line"/>
      <point x="74" y="0" type="line"/>
    </contour>
    <contour>
      <point x="113" y="372" type="line"/>
      <point x="113" y="668" type="line"/>
      <point x="25" y="607" type="line"/>
      <point x="25" y="648" type="line"/>
      <point x="121" y="715" type="line"/>
      <point x="158" y="715" type="line"/>
      <point x="158" y="372" type="line"/>
    </contour>
    <contour>
      <point x="389" y="0" type="line"/>
      <point x="389" y="9" type="line"/>
      <point x="519" y="141" type="line" smooth="yes"/>
      <point x="560" y="182"/>
      <point x="581" y="212"/>
      <point x="581" y="249" type="curve" smooth="yes"/>
      <point x="581" y="288"/>
      <point x="555" y="312"/>
      <point x="515" y="312" type="curve" smooth="yes"/>
      <point x="471" y="312"/>
      <point x="446" y="285"/>
      <point x="440" y="234" type="curve"/>
      <point x="399" y="234" type="line"/>
      <point x="403" y="305"/>
      <point x="448" y="347"/>
      <point x="516" y="347" type="curve" smooth="yes"/>
      <point x="584" y="347"/>
      <point x="625" y="308"/>
      <point x="625" y="249" type="curve" smooth="yes"/>
      <point x="625" y="203"/>
      <point x="601" y="168"/>
      <point x="553" y="123" type="curve" smooth="yes"/>
      <point x="463" y="35" type="line"/>
      <point x="629" y="35" type="line"/>
      <point x="629" y="0" type="line"/>
    </contour>
  </outline>
</glyph>
<glyph name="threequarters" format="2">
  <advance width="675"/>
  <unicode hex="00BE"/>
  <outline>
    <contour>
      <point x="156" y="368" type="curve" smooth="yes"/>
      <point x="77" y="368"/>
      <point x="30" y="412"/>
      <point x="27" y="473" type="curve"/>
      <point x="68" y="473" type="line"/>
      <point x="73" y="434"/>
      <point x="100" y="402"/>
      <point x="155" y="402" type="curve" smooth="yes"/>
      <point x="205" y="402"/>
      <point x="233" y="427"/>
      <point x="233" y="469" type="curve" smooth="yes"/>
      <point x="233" y="508"/>
      <point x="207" y="534"/>
      <point x="160" y="534" type="curve" smooth="yes"/>
      <point x="133" y="534" type="line"/>
      <point x="133" y="567" type="line"/>
      <point x="158" y="567" type="line" smooth="yes"/>
      <point x="203" y="567"/>
      <point x="224" y="591"/>
      <point x="224" y="626" type="curve" smooth="yes"/>
      <point x="224" y="661"/>
      <point x="199" y="685"/>
      <point x="157" y="685" type="curve" smooth="yes"/>
      <point x="111" y="685"/>
      <point x="85" y="657"/>
      <point x="80" y="619" type="curve"/>
      <point x="40" y="619" type="line"/>
      <point x="44" y="675"/>
      <point x="86" y="719"/>
      <point x="158" y="719" type="curve" smooth="yes"/>
      <point x="225" y="719"/>
      <point x="267" y="680"/>
      <point x="267" y="628" type="curve" smooth="yes"/>
      <point x="267" y="589"/>
      <point x="243" y="563"/>
      <point x="208" y="553" type="curve"/>
      <point x="248" y="544"/>
      <point x="278" y="515"/>
      <point x="278" y="468" type="curve" smooth="yes"/>
      <point x="278" y="405"/>
      <point x="230" y="368"/>
    </contour>
    <contour>
      <point x="86" y="0" type="line"/>
      <point x="602" y="715" type="line"/>
      <point x="647" y="715" type="line"/>
      <point x="131" y="0" type="line"/>
    </contour>
    <contour>
      <point x="553" y="0" type="line"/>
      <point x="553" y="74" type="line"/>
      <point x="375" y="74" type="line"/>
      <point x="375" y="90" type="line"/>
      <point x="539" y="343" type="line"/>
      <point x="596" y="343" type="line"/>
      <point x="596" y="108" type="line"/>
      <point x="643" y="108" type="line"/>
      <point x="643" y="74" type="line"/>
      <point x="596" y="74" type="line"/>
      <point x="596" y="0" type="line"/>
    </contour>
    <contour>
      <point x="426" y="108" type="line"/>
      <point x="554" y="108" type="line"/>
      <point x="554" y="310" type="line"/>
    </contour>
  </outline>
</glyph>
<glyph name="questiondown" format="2">
  <advance width="477"/>
  <unicode hex="00BF"/>
  <outline>
    <contour>
      <point x="289" y="419" type="line"/>
      <point x="289" y="362" type="line" smooth="yes"/>
      <point x="289" y="282"/>
      <point x="244" y="238"/>
      <point x="189" y="183" type="curve" smooth="yes"/>
      <point x="142" y="137"/>
      <point x="103" y="100"/>
      <point x="103" y="37" type="curve" smooth="yes"/>
      <point x="103" y="-31"/>
      <point x="145" y="-80"/>
      <point x="234" y="-80" type="curve" smooth="yes"/>
      <point x="321" y="-80"/>
      <point x="381" y="-23"/>
      <point x="388" y="70" type="curve"/>
      <point x="439" y="70" type="line"/>
      <point x="432" y="-47"/>
      <point x="350" y="-125"/>
      <point x="233" y="-125" type="curve" smooth="yes"/>
      <point x="107" y="-125"/>
      <point x="49" y="-51"/>
      <point x="49" y="35" type="curve" smooth="yes"/>
      <point x="49" y="116"/>
      <point x="98" y="157"/>
      <point x="151" y="211" type="curve" smooth="yes"/>
      <point x="202" y="262"/>
      <point x="241" y="299"/>
      <point x="241" y="366" type="curve" smooth="yes"/>
      <point x="241" y="419" type="line"/>
    </contour>
    <contour>
      <point x="266" y="603" type="curve" smooth="yes"/>
      <point x="289" y="603"/>
      <point x="308" y="584"/>
      <point x="308" y="561" type="curve" smooth="yes"/>
      <point x="308" y="537"/>
      <point x="289" y="518"/>
      <point x="266" y="518" type="curve" smooth="yes"/>
      <point x="242" y="518"/>
      <point x="223" y="537"/>
      <point x="223" y="561" type="curve" smooth="yes"/>
      <point x="223" y="584"/>
      <point x="242" y="603"/>
    </contour>
  </outline>
</glyph>
<glyph name="Aacute" format="2">
  <advance width="654"/>
  <unicode hex="00C1"/>
  <outline>
    <contour>
      <point x="33" y="0" type="line"/>
      <point x="290" y="715" type="line"/>
      <point x="364" y="715" type="line"/>
      <point x="621" y="0" type="line"/>
      <point x="565" y="0" type="line"/>
      <point x="486" y="219" type="line"/>
      <point x="164" y="219" type="line"/>
      <point x="86" y="0" type="line"/>
    </contour>
    <contour>
      <point x="325" y="669" type="line"/>
      <point x="180" y="264" type="line"/>
      <point x="470" y="264" type="line"/>
    </contour>
    <contour>
      <point x="295" y="771" type="line"/>
      <point x="359" y="893" type="line"/>
      <point x="425" y="893" type="line"/>
      <point x="337" y="771" type="line"/>
    </contour>
  </outline>
</glyph>
<glyph name="Atilde" format="2">
  <advance width="654"/>
  <unicode hex="00C3"/>
  <outline>
    <contour>
      <point x="33" y="0" type="line"/>
      <point x="290" y="715" type="line"/>
      <point x="364" y="715" type="line"/>
      <point x="621" y="0" type="line"/>
      <point x="565" y="0" type="line"/>
      <point x="486" y="219" type="line"/>
      <point x="164" y="219" type="line"/>
      <point x="86" y="0" type="line"/>
    </contour>
    <contour>
      <point x="325" y="669" type="line"/>
      <point x="180" y="264" type="line"/>
      <point x="470" y="264" type="line"/>
    </contour>
    <contour>
      <point x="385" y="774" type="curve" smooth="yes"/>
      <point x="337" y="774"/>
      <point x="297" y="827"/>
      <point x="262" y="827" type="curve" smooth="yes"/>
      <point x="239" y="827"/>
      <point x="221" y="807"/>
      <point x="216" y="773" type="curve"/>
      <point x="175" y="773" type="line"/>
      <point x="183" y="837"/>
      <point x="218" y="872"/>
      <point x="262" y="872" type="curve" smooth="yes"/>
      <point x="309" y="872"/>
      <point x="349" y="819"/>
      <point x="385" y="819" type="curve" smooth="yes"/>
      <point x="407" y="819"/>
      <point x="426" y="839"/>
      <point x="431" y="873" type="curve"/>
      <point x="471" y="873" type="line"/>
      <point x="463" y="809"/>
      <point x="428" y="774"/>
    </contour>
  </outline>
</glyph>
<glyph name="Adieresis" format="2">
  <advance width="654"/>
  <unicode hex="00C4"/>
  <outline>
    <contour>
      <point x="33" y="0" type="line"/>
      <point x="290" y="715" type="line"/>
      <point x="364" y="715" type="line"/>
      <point x="621" y="0" type="line"/>
      <point x="565" y="0" type="line"/>
      <point x="486" y="219" type="line"/>
      <point x="164" y="219" type="line"/>
      <point x="86" y="0" type="line"/>
    </contour>
    <contour>
      <point x="325" y="669" type="line"/>
      <point x="180" y="264" type="line"/>
      <point x="470" y="264" type="line"/>
    </contour>
    <contour>
      <point x="233" y="788" type="curve" smooth="yes"/>
      <point x="212" y="788"/>
      <point x="196" y="805"/>
      <point x="196" y="825" type="curve" smooth="yes"/>
      <point x="196" y="844"/>
      <point x="212" y="861"/>
      <point x="233" y="861" type="curve" smooth="yes"/>
      <point x="253" y="861"/>
      <point x="269" y="844"/>
      <point x="269" y="825" type="curve" smooth="yes"/>
      <point x="269" y="805"/>
      <point x="253" y="788"/>
    </contour>
    <contour>
      <point x="413" y="788" type="curve" smooth="yes"/>
      <point x="393" y="788"/>
      <point x="377" y="805"/>
      <point x="377" y="825" type="curve" smooth="yes"/>
      <point x="377" y="844"/>
      <point x="393" y="861"/>
      <point x="413" y="861" type="curve" smooth="yes"/>
      <point x="433" y="861"/>
      <point x="449" y="844"/>
      <point x="449" y="825" type="curve" smooth="yes"/>
      <point x="449" y="805"/>
      <point x="433" y="788"/>
    </contour>
  </outline>
</glyph>
<glyph name="Aring" format="2">
  <advance width="654"/>
  <unicode hex="00C5"/>
  <outline>
    <contour>
      <point x="33" y="0" type="line"/>
      <point x="290" y="715" type="line"/>
      <point x="364" y="715" type="line"/>
      <point x="621" y="0" type="line"/>
      <point x="565" y="0" type="line"/>
      <point x="486" y="219" type="line"/>
      <point x="164" y="219" type="line"/>
      <point x="86" y="0" type="line"/>
    </contour>
    <contour>
      <point x="325" y="669" type="line"/>
      <point x="180" y="264" type="line"/>
      <point x="470" y="264" type="line"/>
    </contour>
    <contour>
      <point x="323" y="754" type="curve" smooth="yes"/>
      <point x="270" y="754"/>
      <point x="225" y="798"/>
      <point x="225" y="850" type="curve" smooth="yes"/>
      <point x="225" y="902"/>
      <point x="270" y="945"/>
      <point x="323" y="945" type="curve" smooth="yes"/>
      <point x="377" y="945"/>
      <point x="421" y="902"/>
      <point x="421" y="850" type="curve" smooth="yes"/>
      <point x="421" y="798"/>
      <point x="377" y="754"/>
    </contour>
    <contour>
      <point x="323" y="786" type="curve" smooth="yes"/>
      <point x="358" y="786"/>
      <point x="384" y="814"/>
      <point x="384" y="850" type="curve" smooth="yes"/>
      <point x="384" y="886"/>
      <point x="358" y="914"/>
      <point x="323" y="914" type="curve" smooth="yes"/>
      <point x="289" y="914"/>
      <point x="262" y="886"/>
      <point x="262" y="850" type="curve" smooth="yes"/>
      <point x="262" y="814"/>
      <point x="289" y="786"/>
    </contour>
  </outline>
</glyph>
<glyph name="AE" format="2">
  <advance width="946"/>
  <unicode hex="00C6"/>
  <outline>
    <contour>
      <point x="29" y="0" type="line"/>
      <point x="392" y="715" type="line"/>
      <point x="883" y="715" type="line"/>
      <point x="883" y="669" type="line"/>
      <point x="528" y="669" type="line"/>
      <point x="528" y="390" type="line"/>
      <point x="816" y="390" type="line"/>
      <point x="816" y="344" type="line"/>
      <point x="528" y="344" type="line"/>
      <point x="528" y="46" type="line"/>
      <point x="901" y="46" type="line"/>
      <point x="901" y="0" type="line"/>
      <point x="472" y="0" type="line"/>
      <point x="472" y="220" type="line"/>
      <point x="196" y="220" type="line"/>
      <point x="86" y="0" type="line"/>
    </contour>
    <contour>
      <point x="421" y="669" type="line"/>
      <point x="218" y="264" type="line"/>
      <point x="472" y="264" type="line"/>
      <point x="472" y="669" type="line"/>
    </contour>
  </outline>
</glyph>
<glyph name="Ccedilla" format="2">
  <advance width="725"/>
  <unicode hex="00C7"/>
  <outline>
    <contour>
      <point x="371" y="-212" type="curve" smooth="yes"/>
      <point x="317" y="-212"/>
      <point x="280" y="-181"/>
      <point x="275" y="-134" type="curve"/>
      <point x="319" y="-134" type="line"/>
      <point x="323" y="-157"/>
      <point x="340" y="-176"/>
      <point x="369" y="-176" type="curve" smooth="yes"/>
      <point x="399" y="-176"/>
      <point x="419" y="-159"/>
      <point x="419" y="-132" type="curve" smooth="yes"/>
      <point x="419" y="-103"/>
      <point x="396" y="-93"/>
      <point x="374" y="-93" type="curve" smooth="yes"/>
      <point x="357" y="-93"/>
      <point x="344" y="-98"/>
      <point x="338" y="-101" type="curve"/>
      <point x="312" y="-80" type="line"/>
      <point x="353" y="-7" type="line"/>
      <point x="167" y="7"/>
      <point x="53" y="148"/>
      <point x="53" y="353" type="curve" smooth="yes"/>
      <point x="53" y="361" type="line" smooth="yes"/>
      <point x="53" y="572"/>
      <point x="198" y="724"/>
      <point x="385" y="724" type="curve" smooth="yes"/>
      <point x="533" y="724"/>
      <point x="652" y="647"/>
      <point x="674" y="500" type="curve"/>
      <point x="618" y="500" type="line"/>
      <point x="596" y="615"/>
      <point x="518" y="679"/>
      <point x="386" y="679" type="curve" smooth="yes"/>
      <point x="226" y="679"/>
      <point x="110" y="551"/>
      <point x="110" y="362" type="curve" smooth="yes"/>
      <point x="110" y="354" type="line" smooth="yes"/>
      <point x="110" y="161"/>
      <point x="216" y="39"/>
      <point x="386" y="39" type="curve" smooth="yes"/>
      <point x="515" y="39"/>
      <point x="607" y="107"/>
      <point x="630" y="230" type="curve"/>
      <point x="682" y="230" type="line"/>
      <point x="656" y="79"/>
      <point x="544" y="-4"/>
      <point x="395" y="-8" type="curve"/>
      <point x="365" y="-61" type="line"/>
      <point x="414" y="-50"/>
      <point x="466" y="-73"/>
      <point x="466" y="-134" type="curve" smooth="yes"/>
      <point x="466" y="-185"/>
      <point x="423" y="-212"/>
    </contour>
  </outline>
</glyph>
<glyph name="Ecircumflex" format="2">
  <advance width="566"/>
  <unicode hex="00CA"/>
  <outline>
    <contour>
      <point x="165" y="771" type="line"/>
      <point x="275" y="893" type="line"/>
      <point x="325" y="893" type="line"/>
      <point x="433" y="771" type="line"/>
      <point x="391" y="771" type="line"/>
      <point x="299" y="849" type="line"/>
      <point x="206" y="771" type="line"/>
    </contour>
    <contour>
      <point x="92" y="0" type="line"/>
      <point x="92" y="715" type="line"/>
      <point x="503" y="715" type="line"/>
      <point x="503" y="669" type="line"/>
      <point x="148" y="669" type="line"/>
      <point x="148" y="390" type="line"/>
      <point x="436" y="390" type="line"/>
      <point x="436" y="344" type="line"/>
      <point x="148" y="344" type="line"/>
      <point x="148" y="46" type="line"/>
      <point x="521" y="46" type="line"/>
      <point x="521" y="0" type="line"/>
    </contour>
  </outline>
</glyph>
<glyph name="Edieresis" format="2">
  <advance width="566"/>
  <unicode hex="00CB"/>
  <outline>
    <contour>
      <point x="92" y="0" type="line"/>
      <point x="92" y="715" type="line"/>
      <point x="503" y="715" type="line"/>
      <point x="503" y="669" type="line"/>
      <point x="148" y="669" type="line"/>
      <point x="148" y="390" type="line"/>
      <point x="436" y="390" type="line"/>
      <point x="436" y="344" type="line"/>
      <point x="148" y="344" type="line"/>
      <point x="148" y="46" type="line"/>
      <point x="521" y="46" type="line"/>
      <point x="521" y="0" type="line"/>
    </contour>
    <contour>
      <point x="209" y="788" type="curve" smooth="yes"/>
      <point x="188" y="788"/>
      <point x="172" y="805"/>
      <point x="172" y="825" type="curve" smooth="yes"/>
      <point x="172" y="844"/>
      <point x="188" y="861"/>
      <point x="209" y="861" type="curve" smooth="yes"/>
      <point x="229" y="861"/>
      <point x="245" y="844"/>
      <point x="245" y="825" type="curve" smooth="yes"/>
      <point x="245" y="805"/>
      <point x="229" y="788"/>
    </contour>
    <contour>
      <point x="389" y="788" type="curve" smooth="yes"/>
      <point x="369" y="788"/>
      <point x="353" y="805"/>
      <point x="353" y="825" type="curve" smooth="yes"/>
      <point x="353" y="844"/>
      <point x="369" y="861"/>
      <point x="389" y="861" type="curve" smooth="yes"/>
      <point x="409" y="861"/>
      <point x="425" y="844"/>
      <point x="425" y="825" type="curve" smooth="yes"/>
      <point x="425" y="805"/>
      <point x="409" y="788"/>
    </contour>
  </outline>
</glyph>
<glyph name="Igrave" format="2">
  <advance width="250"/>
  <unicode hex="00CC"/>
  <outline>
    <contour>
      <point x="97" y="0" type="line"/>
      <point x="97" y="715" type="line"/>
      <point x="153" y="715" type="line"/>
      <point x="153" y="0" type="line"/>
    </contour>
    <contour>
      <point x="110" y="771" type="line"/>
      <point x="22" y="893" type="line"/>
      <point x="88" y="893" type="line"/>
      <point x="152" y="771" type="line"/>
    </contour>
  </outline>
</glyph>
<glyph name="Iacute" format="2">
  <advance width="250"/>
  <unicode hex="00CD"/>
  <outline>
    <contour>
      <point x="97" y="0" type="line"/>
      <point x="97" y="715" type="line"/>
      <point x="153" y="715" type="line"/>
      <point x="153" y="0" type="line"/>
    </contour>
    <contour>
      <point x="97" y="771" type="line"/>
      <point x="161" y="893" type="line"/>
      <point x="227" y="893" type="line"/>
      <point x="139" y="771" type="line"/>
    </contour>
  </outline>
</glyph>
<glyph name="Icircumflex" format="2">
  <advance width="250"/>
  <unicode hex="00CE"/>
  <outline>
    <contour>
      <point x="97" y="0" type="line"/>
      <point x="97" y="715" type="line"/>
      <point x="153" y="715" type="line"/>
      <point x="153" y="0" type="line"/>
    </contour>
    <contour>
      <point x="-9" y="771" type="line"/>
      <point x="101" y="893" type="line"/>
      <point x="151" y="893" type="line"/>
      <point x="259" y="771" type="line"/>
      <point x="217" y="771" type="line"/>
      <point x="125" y="849" type="line"/>
      <point x="32" y="771" type="line"/>
    </contour>
  </outline>
</glyph>
<glyph name="Idieresis" format="2">
  <advance width="250"/>
  <unicode hex="00CF"/>
  <outline>
    <contour>
      <point x="97" y="0" type="line"/>
      <point x="97" y="715" type="line"/>
      <point x="153" y="715" type="line"/>
      <point x="153" y="0" type="line"/>
    </contour>
    <contour>
      <point x="35" y="788" type="curve" smooth="yes"/>
      <point x="14" y="788"/>
      <point x="-2" y="805"/>
      <point x="-2" y="825" type="curve" smooth="yes"/>
      <point x="-2" y="844"/>
      <point x="14" y="861"/>
      <point x="35" y="861" type="curve" smooth="yes"/>
      <point x="55" y="861"/>
      <point x="71" y="844"/>
      <point x="71" y="825" type="curve" smooth="yes"/>
      <point x="71" y="805"/>
      <point x="55" y="788"/>
    </contour>
    <contour>
      <point x="215" y="788" type="curve" smooth="yes"/>
      <point x="195" y="788"/>
      <point x="179" y="805"/>
      <point x="179" y="825" type="curve" smooth="yes"/>
      <point x="179" y="844"/>
      <point x="195" y="861"/>
      <point x="215" y="861" type="curve" smooth="yes"/>
      <point x="235" y="861"/>
      <point x="251" y="844"/>
      <point x="251" y="825" type="curve" smooth="yes"/>
      <point x="251" y="805"/>
      <point x="235" y="788"/>
    </contour>
  </outline>
</glyph>
<glyph name="Ntilde" format="2">
  <advance width="713"/>
  <unicode hex="00D1"/>
  <outline>
    <contour>
      <point x="429" y="774" type="curve" smooth="yes"/>
      <point x="381" y="774"/>
      <point x="341" y="827"/>
      <point x="306" y="827" type="curve" smooth="yes"/>
      <point x="283" y="827"/>
      <point x="265" y="807"/>
      <point x="260" y="773" type="curve"/>
      <point x="219" y="773" type="line"/>
      <point x="227" y="837"/>
      <point x="262" y="872"/>
      <point x="306" y="872" type="curve" smooth="yes"/>
      <point x="353" y="872"/>
      <point x="393" y="819"/>
      <point x="429" y="819" type="curve" smooth="yes"/>
      <point x="451" y="819"/>
      <point x="470" y="839"/>
      <point x="475" y="873" type="curve"/>
      <point x="515" y="873" type="line"/>
      <point x="507" y="809"/>
      <point x="472" y="774"/>
    </contour>
    <contour>
      <point x="92" y="0" type="line"/>
      <point x="92" y="715" type="line"/>
      <point x="168" y="715" type="line"/>
      <point x="568" y="77" type="line"/>
      <point x="568" y="715" type="line"/>
      <point x="621" y="715" type="line"/>
      <point x="621" y="0" type="line"/>
      <point x="555" y="0" type="line"/>
      <point x="146" y="653" type="line"/>
      <point x="146" y="0" type="line"/>
    </contour>
  </outline>
</glyph>
<glyph name="Oacute" format="2">
  <advance width="801"/>
  <unicode hex="00D3"/>
  <outline>
    <contour>
      <point x="372" y="771" type="line"/>
      <point x="436" y="893" type="line"/>
      <point x="502" y="893" type="line"/>
      <point x="414" y="771" type="line"/>
    </contour>
    <contour>
      <point x="403" y="39" type="curve" smooth="yes"/>
      <point x="574" y="39"/>
      <point x="691" y="173"/>
      <point x="691" y="356" type="curve" smooth="yes"/>
      <point x="691" y="364" type="line" smooth="yes"/>
      <point x="691" y="538"/>
      <point x="576" y="677"/>
      <point x="401" y="677" type="curve" smooth="yes"/>
      <point x="226" y="677"/>
      <point x="110" y="542"/>
      <point x="110" y="362" type="curve" smooth="yes"/>
      <point x="110" y="354" type="line" smooth="yes"/>
      <point x="110" y="172"/>
      <point x="237" y="39"/>
    </contour>
    <contour>
      <point x="403" y="-8" type="curve" smooth="yes"/>
      <point x="199" y="-8"/>
      <point x="53" y="153"/>
      <point x="53" y="353" type="curve" smooth="yes"/>
      <point x="53" y="361" type="line" smooth="yes"/>
      <point x="53" y="564"/>
      <point x="200" y="723"/>
      <point x="401" y="723" type="curve" smooth="yes"/>
      <point x="603" y="723"/>
      <point x="749" y="564"/>
      <point x="749" y="363" type="curve" smooth="yes"/>
      <point x="749" y="355" type="line" smooth="yes"/>
      <point x="749" y="153"/>
      <point x="603" y="-8"/>
    </contour>
  </outline>
</glyph>
<glyph name="Otilde" format="2">
  <advance width="801"/>
  <unicode hex="00D5"/>
  <outline>
    <contour>
      <point x="462" y="774" type="curve" smooth="yes"/>
      <point x="414" y="774"/>
      <point x="374" y="827"/>
      <point x="339" y="827" type="curve" smooth="yes"/>
      <point x="316" y="827"/>
      <point x="298" y="807"/>
      <point x="293" y="773" type="curve"/>
      <point x="252" y="773" type="line"/>
      <point x="260" y="837"/>
      <point x="295" y="872"/>
      <point x="339" y="872" type="curve" smooth="yes"/>
      <point x="386" y="872"/>
      <point x="426" y="819"/>
      <point x="462" y="819" type="curve" smooth="yes"/>
      <point x="484" y="819"/>
      <point x="503" y="839"/>
      <point x="508" y="873" type="curve"/>
      <point x="548" y="873" type="line"/>
      <point x="540" y="809"/>
      <point x="505" y="774"/>
    </contour>
    <contour>
      <point x="403" y="39" type="curve" smooth="yes"/>
      <point x="574" y="39"/>
      <point x="691" y="173"/>
      <point x="691" y="356" type="curve" smooth="yes"/>
      <point x="691" y="364" type="line" smooth="yes"/>
      <point x="691" y="538"/>
      <point x="576" y="677"/>
      <point x="401" y="677" type="curve" smooth="yes"/>
      <point x="226" y="677"/>
      <point x="110" y="542"/>
      <point x="110" y="362" type="curve" smooth="yes"/>
      <point x="110" y="354" type="line" smooth="yes"/>
      <point x="110" y="172"/>
      <point x="237" y="39"/>
    </contour>
    <contour>
      <point x="403" y="-8" type="curve" smooth="yes"/>
      <point x="199" y="-8"/>
      <point x="53" y="153"/>
      <point x="53" y="353" type="curve" smooth="yes"/>
      <point x="53" y="361" type="line" smooth="yes"/>
      <point x="53" y="564"/>
      <point x="200" y="723"/>
      <point x="401" y="723" type="curve" smooth="yes"/>
      <point x="603" y="723"/>
      <point x="749" y="564"/>
      <point x="749" y="363" type="curve" smooth="yes"/>
      <point x="749" y="355" type="line" smooth="yes"/>
      <point x="749" y="153"/>
      <point x="603" y="-8"/>
    </contour>
  </outline>
</glyph>
<glyph name="Odieresis" format="2">
  <advance width="801"/>
  <unicode hex="00D6"/>
  <outline>
    <contour>
      <point x="310" y="788" type="curve" smooth="yes"/>
      <point x="289" y="788"/>
      <point x="273" y="805"/>
      <point x="273" y="825" type="curve" smooth="yes"/>
      <point x="273" y="844"/>
      <point x="289" y="861"/>
      <point x="310" y="861" type="curve" smooth="yes"/>
      <point x="330" y="861"/>
      <point x="346" y="844"/>
      <point x="346" y="825" type="curve" smooth="yes"/>
      <point x="346" y="805"/>
      <point x="330" y="788"/>
    </contour>
    <contour>
      <point x="490" y="788" type="curve" smooth="yes"/>
      <point x="470" y="788"/>
      <point x="454" y="805"/>
      <point x="454" y="825" type="curve" smooth="yes"/>
      <point x="454" y="844"/>
      <point x="470" y="861"/>
      <point x="490" y="861" type="curve" smooth="yes"/>
      <point x="510" y="861"/>
      <point x="526" y="844"/>
      <point x="526" y="825" type="curve" smooth="yes"/>
      <point x="526" y="805"/>
      <point x="510" y="788"/>
    </contour>
    <contour>
      <point x="403" y="39" type="curve" smooth="yes"/>
      <point x="574" y="39"/>
      <point x="691" y="173"/>
      <point x="691" y="356" type="curve" smooth="yes"/>
      <point x="691" y="364" type="line" smooth="yes"/>
      <point x="691" y="538"/>
      <point x="576" y="677"/>
      <point x="401" y="677" type="curve" smooth="yes"/>
      <point x="226" y="677"/>
      <point x="110" y="542"/>
      <point x="110" y="362" type="curve" smooth="yes"/>
      <point x="110" y="354" type="line" smooth="yes"/>
      <point x="110" y="172"/>
      <point x="237" y="39"/>
    </contour>
    <contour>
      <point x="403" y="-8" type="curve" smooth="yes"/>
      <point x="199" y="-8"/>
      <point x="53" y="153"/>
      <point x="53" y="353" type="curve" smooth="yes"/>
      <point x="53" y="361" type="line" smooth="yes"/>
      <point x="53" y="564"/>
      <point x="200" y="723"/>
      <point x="401" y="723" type="curve" smooth="yes"/>
      <point x="603" y="723"/>
      <point x="749" y="564"/>
      <point x="749" y="363" type="curve" smooth="yes"/>
      <point x="749" y="355" type="line" smooth="yes"/>
      <point x="749" y="153"/>
      <point x="603" y="-8"/>
    </contour>
  </outline>
</glyph>
<glyph name="multiply" format="2">
  <advance width="483"/>
  <unicode hex="00D7"/>
  <outline>
    <contour>
      <point x="76" y="143" type="line"/>
      <point x="45" y="174" type="line"/>
      <point x="206" y="334" type="line"/>
      <point x="45" y="495" type="line"/>
      <point x="76" y="527" type="line"/>
      <point x="237" y="366" type="line"/>
      <point x="398" y="527" type="line"/>
      <point x="429" y="495" type="line"/>
      <point x="268" y="334" type="line"/>
      <point x="429" y="174" type="line"/>
      <point x="398" y="143" type="line"/>
      <point x="237" y="303" type="line"/>
    </contour>
  </outline>
</glyph>
<glyph name="Oslash" format="2">
  <advance width="801"/>
  <unicode hex="00D8"/>
  <outline>
    <contour>
      <point x="71" y="-24" type="line"/>
      <point x="41" y="5" type="line"/>
      <point x="138" y="112" type="line"/>
      <point x="84" y="176"/>
      <point x="53" y="260"/>
      <point x="53" y="353" type="curve" smooth="yes"/>
      <point x="53" y="361" type="line" smooth="yes"/>
      <point x="53" y="564"/>
      <point x="200" y="723"/>
      <point x="401" y="723" type="curve" smooth="yes"/>
      <point x="487" y="723"/>
      <point x="563" y="694"/>
      <point x="622" y="645" type="curve"/>
      <point x="707" y="739" type="line"/>
      <point x="736" y="709" type="line"/>
      <point x="652" y="617" type="line"/>
      <point x="713" y="552"/>
      <point x="749" y="462"/>
      <point x="749" y="363" type="curve" smooth="yes"/>
      <point x="749" y="355" type="line" smooth="yes"/>
      <point x="749" y="153"/>
      <point x="603" y="-8"/>
      <point x="403" y="-8" type="curve" smooth="yes"/>
      <point x="309" y="-8"/>
      <point x="227" y="26"/>
      <point x="167" y="82" type="curve"/>
    </contour>
    <contour>
      <point x="403" y="39" type="curve" smooth="yes"/>
      <point x="574" y="39"/>
      <point x="691" y="173"/>
      <point x="691" y="356" type="curve" smooth="yes"/>
      <point x="691" y="364" type="line" smooth="yes"/>
      <point x="691" y="450"/>
      <point x="665" y="525"/>
      <point x="618" y="580" type="curve"/>
      <point x="201" y="119" type="line"/>
      <point x="253" y="68"/>
      <point x="323" y="39"/>
    </contour>
    <contour>
      <point x="110" y="354" type="line" smooth="yes"/>
      <point x="110" y="273"/>
      <point x="133" y="204"/>
      <point x="173" y="151" type="curve"/>
      <point x="589" y="609" type="line"/>
      <point x="541" y="652"/>
      <point x="476" y="677"/>
      <point x="401" y="677" type="curve" smooth="yes"/>
      <point x="226" y="677"/>
      <point x="110" y="542"/>
      <point x="110" y="362" type="curve" smooth="yes"/>
    </contour>
  </outline>
</glyph>
<glyph name="Ucircumflex" format="2">
  <advance width="682"/>
  <unicode hex="00DB"/>
  <outline>
    <contour>
      <point x="207" y="771" type="line"/>
      <point x="317" y="893" type="line"/>
      <point x="367" y="893" type="line"/>
      <point x="475" y="771" type="line"/>
      <point x="433" y="771" type="line"/>
      <point x="341" y="849" type="line"/>
      <point x="248" y="771" type="line"/>
    </contour>
    <contour>
      <point x="338" y="-7" type="curve" smooth="yes"/>
      <point x="177" y="-7"/>
      <point x="82" y="85"/>
      <point x="82" y="256" type="curve" smooth="yes"/>
      <point x="82" y="715" type="line"/>
      <point x="137" y="715" type="line"/>
      <point x="137" y="262" type="line" smooth="yes"/>
      <point x="137" y="109"/>
      <point x="206" y="40"/>
      <point x="339" y="40" type="curve" smooth="yes"/>
      <point x="476" y="40"/>
      <point x="545" y="106"/>
      <point x="545" y="275" type="curve" smooth="yes"/>
      <point x="545" y="715" type="line"/>
      <point x="601" y="715" type="line"/>
      <point x="601" y="267" type="line" smooth="yes"/>
      <point x="601" y="96"/>
      <point x="516" y="-7"/>
    </contour>
  </outline>
</glyph>
<glyph name="Udieresis" format="2">
  <advance width="682"/>
  <unicode hex="00DC"/>
  <outline>
    <contour>
      <point x="338" y="-7" type="curve" smooth="yes"/>
      <point x="177" y="-7"/>
      <point x="82" y="85"/>
      <point x="82" y="256" type="curve" smooth="yes"/>
      <point x="82" y="715" type="line"/>
      <point x="137" y="715" type="line"/>
      <point x="137" y="262" type="line" smooth="yes"/>
      <point x="137" y="109"/>
      <point x="206" y="40"/>
      <point x="339" y="40" type="curve" smooth="yes"/>
      <point x="476" y="40"/>
      <point x="545" y="106"/>
      <point x="545" y="275" type="curve" smooth="yes"/>
      <point x="545" y="715" type="line"/>
      <point x="601" y="715" type="line"/>
      <point x="601" y="267" type="line" smooth="yes"/>
      <point x="601" y="96"/>
      <point x="516" y="-7"/>
    </contour>
    <contour>
      <point x="251" y="788" type="curve" smooth="yes"/>
      <point x="230" y="788"/>
      <point x="214" y="805"/>
      <point x="214" y="825" type="curve" smooth="yes"/>
      <point x="214" y="844"/>
      <point x="230" y="861"/>
      <point x="251" y="861" type="curve" smooth="yes"/>
      <point x="271" y="861"/>
      <point x="287" y="844"/>
      <point x="287" y="825" type="curve" smooth="yes"/>
      <point x="287" y="805"/>
      <point x="271" y="788"/>
    </contour>
    <contour>
      <point x="431" y="788" type="curve" smooth="yes"/>
      <point x="411" y="788"/>
      <point x="395" y="805"/>
      <point x="395" y="825" type="curve" smooth="yes"/>
      <point x="395" y="844"/>
      <point x="411" y="861"/>
      <point x="431" y="861" type="curve" smooth="yes"/>
      <point x="451" y="861"/>
      <point x="467" y="844"/>
      <point x="467" y="825" type="curve" smooth="yes"/>
      <point x="467" y="805"/>
      <point x="451" y="788"/>
    </contour>
  </outline>
</glyph>
<glyph name="Yacute" format="2">
  <advance width="578"/>
  <unicode hex="00DD"/>
  <outline>
    <contour>
      <point x="268" y="0" type="line"/>
      <point x="268" y="318" type="line"/>
      <point x="23" y="715" type="line"/>
      <point x="85" y="715" type="line"/>
      <point x="297" y="365" type="line"/>
      <point x="499" y="715" type="line"/>
      <point x="555" y="715" type="line"/>
      <point x="324" y="317" type="line"/>
      <point x="324" y="0" type="line"/>
    </contour>
    <contour>
      <point x="264" y="771" type="line"/>
      <point x="328" y="893" type="line"/>
      <point x="394" y="893" type="line"/>
      <point x="306" y="771" type="line"/>
    </contour>
  </outline>
</glyph>
<glyph name="Thorn" format="2">
  <advance width="568"/>
  <unicode hex="00DE"/>
  <outline>
    <contour>
      <point x="92" y="0" type="line"/>
      <point x="92" y="715" type="line"/>
      <point x="148" y="715" type="line"/>
      <point x="148" y="571" type="line"/>
      <point x="281" y="571" type="line" smooth="yes"/>
      <point x="420" y="571"/>
      <point x="525" y="519"/>
      <point x="525" y="375" type="curve" smooth="yes"/>
      <point x="525" y="371" type="line" smooth="yes"/>
      <point x="525" y="225"/>
      <point x="420" y="172"/>
      <point x="281" y="172" type="curve" smooth="yes"/>
      <point x="148" y="172" type="line"/>
      <point x="148" y="0" type="line"/>
    </contour>
    <contour>
      <point x="148" y="217" type="line"/>
      <point x="284" y="217" type="line" smooth="yes"/>
      <point x="400" y="217"/>
      <point x="469" y="261"/>
      <point x="469" y="371" type="curve" smooth="yes"/>
      <point x="469" y="375" type="line" smooth="yes"/>
      <point x="469" y="489"/>
      <point x="396" y="525"/>
      <point x="284" y="525" type="curve" smooth="yes"/>
      <point x="148" y="525" type="line"/>
    </contour>
  </outline>
</glyph>
<glyph name="germandbls" format="2">
  <advance width="570"/>
  <unicode hex="00DF"/>
  <outline>
    <contour>
      <point x="320" y="-7" type="curve" smooth="yes"/>
      <point x="279" y="-7"/>
      <point x="247" y="1"/>
      <point x="226" y="9" type="curve"/>
      <point x="226" y="55" type="line"/>
      <point x="250" y="45"/>
      <point x="280" y="38"/>
      <point x="318" y="38" type="curve" smooth="yes"/>
      <point x="395" y="38"/>
      <point x="474" y="75"/>
      <point x="474" y="208" type="curve" smooth="yes"/>
      <point x="474" y="215" type="line" smooth="yes"/>
      <point x="474" y="333"/>
      <point x="382" y="418"/>
      <point x="258" y="415" type="curve"/>
      <point x="258" y="461" type="line"/>
      <point x="370" y="459"/>
      <point x="417" y="533"/>
      <point x="417" y="603" type="curve" smooth="yes"/>
      <point x="417" y="607" type="line" smooth="yes"/>
      <point x="417" y="683"/>
      <point x="370" y="732"/>
      <point x="281" y="732" type="curve" smooth="yes"/>
      <point x="190" y="732"/>
      <point x="135" y="670"/>
      <point x="135" y="574" type="curve" smooth="yes"/>
      <point x="135" y="0" type="line"/>
      <point x="82" y="0" type="line"/>
      <point x="82" y="572" type="line" smooth="yes"/>
      <point x="82" y="697"/>
      <point x="169" y="776"/>
      <point x="281" y="776" type="curve" smooth="yes"/>
      <point x="397" y="776"/>
      <point x="468" y="705"/>
      <point x="468" y="607" type="curve" smooth="yes"/>
      <point x="468" y="603" type="line" smooth="yes"/>
      <point x="468" y="531"/>
      <point x="421" y="464"/>
      <point x="340" y="441" type="curve"/>
      <point x="443" y="420"/>
      <point x="529" y="333"/>
      <point x="529" y="215" type="curve" smooth="yes"/>
      <point x="529" y="209" type="line" smooth="yes"/>
      <point x="529" y="46"/>
      <point x="425" y="-7"/>
    </contour>
  </outline>
</glyph>
<glyph name="agrave" format="2">
  <advance width="529"/>
  <unicode hex="00E0"/>
  <outline>
    <contour>
      <point x="221" y="-8" type="curve" smooth="yes"/>
      <point x="118" y="-8"/>
      <point x="44" y="42"/>
      <point x="44" y="141" type="curve" smooth="yes"/>
      <point x="44" y="262"/>
      <point x="160" y="299"/>
      <point x="289" y="299" type="curve" smooth="yes"/>
      <point x="398" y="299" type="line"/>
      <point x="398" y="346" type="line" smooth="yes"/>
      <point x="398" y="444"/>
      <point x="358" y="486"/>
      <point x="266" y="486" type="curve" smooth="yes"/>
      <point x="187" y="486"/>
      <point x="131" y="452"/>
      <point x="119" y="375" type="curve"/>
      <point x="67" y="375" type="line"/>
      <point x="79" y="485"/>
      <point x="169" y="531"/>
      <point x="268" y="531" type="curve" smooth="yes"/>
      <point x="377" y="531"/>
      <point x="451" y="479"/>
      <point x="451" y="346" type="curve" smooth="yes"/>
      <point x="451" y="0" type="line"/>
      <point x="398" y="0" type="line"/>
      <point x="398" y="80" type="line"/>
      <point x="365" y="29"/>
      <point x="309" y="-8"/>
    </contour>
    <contour>
      <point x="225" y="35" type="curve" smooth="yes"/>
      <point x="321" y="35"/>
      <point x="398" y="91"/>
      <point x="398" y="169" type="curve" smooth="yes"/>
      <point x="398" y="258" type="line"/>
      <point x="291" y="258" type="line" smooth="yes"/>
      <point x="182" y="258"/>
      <point x="97" y="235"/>
      <point x="97" y="141" type="curve" smooth="yes"/>
      <point x="97" y="74"/>
      <point x="139" y="35"/>
    </contour>
    <contour>
      <point x="253" y="605" type="line"/>
      <point x="161" y="752" type="line"/>
      <point x="226" y="752" type="line"/>
      <point x="294" y="605" type="line"/>
    </contour>
  </outline>
</glyph>
<glyph name="atilde" format="2">
  <advance width="529"/>
  <unicode hex="00E3"/>
  <outline>
    <contour>
      <point x="221" y="-8" type="curve" smooth="yes"/>
      <point x="118" y="-8"/>
      <point x="44" y="42"/>
      <point x="44" y="141" type="curve" smooth="yes"/>
      <point x="44" y="262"/>
      <point x="160" y="299"/>
      <point x="289" y="299" type="curve" smooth="yes"/>
      <point x="398" y="299" type="line"/>
      <point x="398" y="346" type="line" smooth="yes"/>
      <point x="398" y="444"/>
      <point x="358" y="486"/>
      <point x="266" y="486" type="curve" smooth="yes"/>
      <point x="187" y="486"/>
      <point x="131" y="452"/>
      <point x="119" y="375" type="curve"/>
      <point x="67" y="375" type="line"/>
      <point x="79" y="485"/>
      <point x="169" y="531"/>
      <point x="268" y="531" type="curve" smooth="yes"/>
      <point x="377" y="531"/>
      <point x="451" y="479"/>
      <point x="451" y="346" type="curve" smooth="yes"/>
      <point x="451" y="0" type="line"/>
      <point x="398" y="0" type="line"/>
      <point x="398" y="80" type="line"/>
      <point x="365" y="29"/>
      <point x="309" y="-8"/>
    </contour>
    <contour>
      <point x="225" y="35" type="curve" smooth="yes"/>
      <point x="321" y="35"/>
      <point x="398" y="91"/>
      <point x="398" y="169" type="curve" smooth="yes"/>
      <point x="398" y="258" type="line"/>
      <point x="291" y="258" type="line" smooth="yes"/>
      <point x="182" y="258"/>
      <point x="97" y="235"/>
      <point x="97" y="141" type="curve" smooth="yes"/>
      <point x="97" y="74"/>
      <point x="139" y="35"/>
    </contour>
    <contour>
      <point x="330" y="616" type="curve" smooth="yes"/>
      <point x="282" y="616"/>
      <point x="241" y="669"/>
      <point x="206" y="669" type="curve" smooth="yes"/>
      <point x="185" y="669"/>
      <point x="166" y="649"/>
      <point x="161" y="616" type="curve"/>
      <point x="120" y="616" type="line"/>
      <point x="128" y="679"/>
      <point x="163" y="715"/>
      <point x="207" y="715" type="curve" smooth="yes"/>
      <point x="254" y="715"/>
      <point x="295" y="662"/>
      <point x="330" y="662" type="curve" smooth="yes"/>
      <point x="351" y="662"/>
      <point x="371" y="681"/>
      <point x="376" y="715" type="curve"/>
      <point x="416" y="715" type="line"/>
      <point x="408" y="652"/>
      <point x="373" y="616"/>
    </contour>
  </outline>
</glyph>
<glyph name="adieresis" format="2">
  <advance width="529"/>
  <unicode hex="00E4"/>
  <outline>
    <contour>
      <point x="221" y="-8" type="curve" smooth="yes"/>
      <point x="118" y="-8"/>
      <point x="44" y="42"/>
      <point x="44" y="141" type="curve" smooth="yes"/>
      <point x="44" y="262"/>
      <point x="160" y="299"/>
      <point x="289" y="299" type="curve" smooth="yes"/>
      <point x="398" y="299" type="line"/>
      <point x="398" y="346" type="line" smooth="yes"/>
      <point x="398" y="444"/>
      <point x="358" y="486"/>
      <point x="266" y="486" type="curve" smooth="yes"/>
      <point x="187" y="486"/>
      <point x="131" y="452"/>
      <point x="119" y="375" type="curve"/>
      <point x="67" y="375" type="line"/>
      <point x="79" y="485"/>
      <point x="169" y="531"/>
      <point x="268" y="531" type="curve" smooth="yes"/>
      <point x="377" y="531"/>
      <point x="451" y="479"/>
      <point x="451" y="346" type="curve" smooth="yes"/>
      <point x="451" y="0" type="line"/>
      <point x="398" y="0" type="line"/>
      <point x="398" y="80" type="line"/>
      <point x="365" y="29"/>
      <point x="309" y="-8"/>
    </contour>
    <contour>
      <point x="225" y="35" type="curve" smooth="yes"/>
      <point x="321" y="35"/>
      <point x="398" y="91"/>
      <point x="398" y="169" type="curve" smooth="yes"/>
      <point x="398" y="258" type="line"/>
      <point x="291" y="258" type="line" smooth="yes"/>
      <point x="182" y="258"/>
      <point x="97" y="235"/>
      <point x="97" y="141" type="curve" smooth="yes"/>
      <point x="97" y="74"/>
      <point x="139" y="35"/>
    </contour>
    <contour>
      <point x="185" y="636" type="curve" smooth="yes"/>
      <point x="164" y="636"/>
      <point x="148" y="653"/>
      <point x="148" y="673" type="curve" smooth="yes"/>
      <point x="148" y="693"/>
      <point x="164" y="709"/>
      <point x="185" y="709" type="curve" smooth="yes"/>
      <point x="205" y="709"/>
      <point x="221" y="693"/>
      <point x="221" y="673" type="curve" smooth="yes"/>
      <point x="221" y="653"/>
      <point x="205" y="636"/>
    </contour>
    <contour>
      <point x="351" y="636" type="curve" smooth="yes"/>
      <point x="331" y="636"/>
      <point x="315" y="653"/>
      <point x="315" y="673" type="curve" smooth="yes"/>
      <point x="315" y="693"/>
      <point x="331" y="709"/>
      <point x="351" y="709" type="curve" smooth="yes"/>
      <point x="372" y="709"/>
      <point x="388" y="693"/>
      <point x="388" y="673" type="curve" smooth="yes"/>
      <point x="388" y="653"/>
      <point x="372" y="636"/>
    </contour>
  </outline>
</glyph>
<glyph name="aring" format="2">
  <advance width="529"/>
  <unicode hex="00E5"/>
  <outline>
    <contour>
      <point x="221" y="-8" type="curve" smooth="yes"/>
      <point x="118" y="-8"/>
      <point x="44" y="42"/>
      <point x="44" y="141" type="curve" smooth="yes"/>
      <point x="44" y="262"/>
      <point x="160" y="299"/>
      <point x="289" y="299" type="curve" smooth="yes"/>
      <point x="398" y="299" type="line"/>
      <point x="398" y="346" type="line" smooth="yes"/>
      <point x="398" y="444"/>
      <point x="358" y="486"/>
      <point x="266" y="486" type="curve" smooth="yes"/>
      <point x="187" y="486"/>
      <point x="131" y="452"/>
      <point x="119" y="375" type="curve"/>
      <point x="67" y="375" type="line"/>
      <point x="79" y="485"/>
      <point x="169" y="531"/>
      <point x="268" y="531" type="curve" smooth="yes"/>
      <point x="377" y="531"/>
      <point x="451" y="479"/>
      <point x="451" y="346" type="curve" smooth="yes"/>
      <point x="451" y="0" type="line"/>
      <point x="398" y="0" type="line"/>
      <point x="398" y="80" type="line"/>
      <point x="365" y="29"/>
      <point x="309" y="-8"/>
    </contour>
    <contour>
      <point x="225" y="35" type="curve" smooth="yes"/>
      <point x="321" y="35"/>
      <point x="398" y="91"/>
      <point x="398" y="169" type="curve" smooth="yes"/>
      <point x="398" y="258" type="line"/>
      <point x="291" y="258" type="line" smooth="yes"/>
      <point x="182" y="258"/>
      <point x="97" y="235"/>
      <point x="97" y="141" type="curve" smooth="yes"/>
      <point x="97" y="74"/>
      <point x="139" y="35"/>
    </contour>
    <contour>
      <point x="268" y="633" type="curve" smooth="yes"/>
      <point x="303" y="633"/>
      <point x="329" y="660"/>
      <point x="329" y="696" type="curve" smooth="yes"/>
      <point x="329" y="733"/>
      <point x="303" y="760"/>
      <point x="268" y="760" type="curve" smooth="yes"/>
      <point x="234" y="760"/>
      <point x="207" y="733"/>
      <point x="207" y="696" type="curve" smooth="yes"/>
      <point x="207" y="660"/>
      <point x="234" y="633"/>
    </contour>
    <contour>
      <point x="268" y="601" type="curve" smooth="yes"/>
      <point x="215" y="601"/>
      <point x="170" y="644"/>
      <point x="170" y="696" type="curve" smooth="yes"/>
      <point x="170" y="748"/>
      <point x="215" y="792"/>
      <point x="268" y="792" type="curve" smooth="yes"/>
      <point x="322" y="792"/>
      <point x="366" y="748"/>
      <point x="366" y="696" type="curve" smooth="yes"/>
      <point x="366" y="644"/>
      <point x="322" y="601"/>
    </contour>
  </outline>
</glyph>
<glyph name="ae" format="2">
  <advance width="897"/>
  <unicode hex="00E6"/>
  <outline>
    <contour>
      <point x="638" y="-8" type="curve" smooth="yes"/>
      <point x="538" y="-8"/>
      <point x="465" y="42"/>
      <point x="429" y="123" type="curve"/>
      <point x="395" y="35"/>
      <point x="318" y="-8"/>
      <point x="221" y="-8" type="curve" smooth="yes"/>
      <point x="118" y="-8"/>
      <point x="44" y="41"/>
      <point x="44" y="140" type="curve" smooth="yes"/>
      <point x="44" y="262"/>
      <point x="158" y="299"/>
      <point x="287" y="299" type="curve" smooth="yes"/>
      <point x="400" y="299" type="line"/>
      <point x="400" y="345" type="line" smooth="yes"/>
      <point x="400" y="443"/>
      <point x="357" y="486"/>
      <point x="266" y="486" type="curve" smooth="yes"/>
      <point x="187" y="486"/>
      <point x="131" y="452"/>
      <point x="119" y="375" type="curve"/>
      <point x="67" y="375" type="line"/>
      <point x="79" y="485"/>
      <point x="170" y="531"/>
      <point x="268" y="531" type="curve" smooth="yes"/>
      <point x="354" y="531"/>
      <point x="417" y="498"/>
      <point x="439" y="417" type="curve"/>
      <point x="478" y="488"/>
      <point x="546" y="531"/>
      <point x="632" y="531" type="curve" smooth="yes"/>
      <point x="755" y="531"/>
      <point x="855" y="450"/>
      <point x="855" y="276" type="curve" smooth="yes"/>
      <point x="855" y="258" type="line"/>
      <point x="452" y="258" type="line"/>
      <point x="454" y="118"/>
      <point x="517" y="37"/>
      <point x="639" y="37" type="curve" smooth="yes"/>
      <point x="724" y="37"/>
      <point x="781" y="73"/>
      <point x="798" y="146" type="curve"/>
      <point x="851" y="146" type="line"/>
      <point x="830" y="46"/>
      <point x="747" y="-8"/>
    </contour>
    <contour>
      <point x="226" y="35" type="curve" smooth="yes"/>
      <point x="321" y="35"/>
      <point x="400" y="91"/>
      <point x="400" y="181" type="curve" smooth="yes"/>
      <point x="400" y="258" type="line"/>
      <point x="288" y="258" type="line" smooth="yes"/>
      <point x="179" y="258"/>
      <point x="97" y="234"/>
      <point x="97" y="140" type="curve" smooth="yes"/>
      <point x="97" y="73"/>
      <point x="139" y="35"/>
    </contour>
    <contour>
      <point x="453" y="299" type="curve"/>
      <point x="801" y="299" type="line"/>
      <point x="796" y="427"/>
      <point x="732" y="486"/>
      <point x="632" y="486" type="curve" smooth="yes"/>
      <point x="533" y="486"/>
      <point x="463" y="413"/>
    </contour>
  </outline>
</glyph>
<glyph name="ccedilla" format="2">
  <advance width="556"/>
  <unicode hex="00E7"/>
  <outline>
    <contour>
      <point x="274" y="-212" type="curve" smooth="yes"/>
      <point x="220" y="-212"/>
      <point x="183" y="-181"/>
      <point x="178" y="-134" type="curve"/>
      <point x="222" y="-134" type="line"/>
      <point x="226" y="-157"/>
      <point x="243" y="-176"/>
      <point x="272" y="-176" type="curve" smooth="yes"/>
      <point x="302" y="-176"/>
      <point x="322" y="-159"/>
      <point x="322" y="-132" type="curve" smooth="yes"/>
      <point x="322" y="-103"/>
      <point x="299" y="-93"/>
      <point x="277" y="-93" type="curve" smooth="yes"/>
      <point x="260" y="-93"/>
      <point x="247" y="-98"/>
      <point x="241" y="-101" type="curve"/>
      <point x="215" y="-80" type="line"/>
      <point x="257" y="-5" type="line"/>
      <point x="134" y="11"/>
      <point x="43" y="111"/>
      <point x="43" y="256" type="curve" smooth="yes"/>
      <point x="43" y="264" type="line" smooth="yes"/>
      <point x="43" y="424"/>
      <point x="155" y="531"/>
      <point x="293" y="531" type="curve" smooth="yes"/>
      <point x="399" y="531"/>
      <point x="497" y="475"/>
      <point x="511" y="357" type="curve"/>
      <point x="459" y="357" type="line"/>
      <point x="446" y="445"/>
      <point x="375" y="486"/>
      <point x="293" y="486" type="curve" smooth="yes"/>
      <point x="184" y="486"/>
      <point x="98" y="402"/>
      <point x="98" y="264" type="curve" smooth="yes"/>
      <point x="98" y="256" type="line" smooth="yes"/>
      <point x="98" y="118"/>
      <point x="183" y="37"/>
      <point x="293" y="37" type="curve" smooth="yes"/>
      <point x="380" y="37"/>
      <point x="454" y="87"/>
      <point x="467" y="181" type="curve"/>
      <point x="516" y="181" type="line"/>
      <point x="502" y="70"/>
      <point x="415" y="-5"/>
      <point x="298" y="-8" type="curve"/>
      <point x="268" y="-61" type="line"/>
      <point x="317" y="-50"/>
      <point x="369" y="-73"/>
      <point x="369" y="-134" type="curve" smooth="yes"/>
      <point x="369" y="-185"/>
      <point x="326" y="-212"/>
    </contour>
  </outline>
</glyph>
<glyph name="ecircumflex" format="2">
  <advance width="554"/>
  <unicode hex="00EA"/>
  <outline>
    <contour>
      <point x="148" y="605" type="line"/>
      <point x="258" y="740" type="line"/>
      <point x="308" y="740" type="line"/>
      <point x="416" y="605" type="line"/>
      <point x="374" y="605" type="line"/>
      <point x="282" y="695" type="line"/>
      <point x="189" y="605" type="line"/>
    </contour>
    <contour>
      <point x="291" y="-8" type="curve" smooth="yes"/>
      <point x="140" y="-8"/>
      <point x="43" y="99"/>
      <point x="43" y="256" type="curve" smooth="yes"/>
      <point x="43" y="264" type="line" smooth="yes"/>
      <point x="43" y="422"/>
      <point x="143" y="531"/>
      <point x="283" y="531" type="curve" smooth="yes"/>
      <point x="409" y="531"/>
      <point x="512" y="449"/>
      <point x="512" y="276" type="curve" smooth="yes"/>
      <point x="512" y="257" type="line"/>
      <point x="98" y="257" type="line"/>
      <point x="100" y="117"/>
      <point x="167" y="37"/>
      <point x="291" y="37" type="curve" smooth="yes"/>
      <point x="378" y="37"/>
      <point x="437" y="73"/>
      <point x="455" y="146" type="curve"/>
      <point x="508" y="146" type="line"/>
      <point x="486" y="46"/>
      <point x="403" y="-8"/>
    </contour>
    <contour>
      <point x="100" y="300" type="curve"/>
      <point x="457" y="300" type="line"/>
      <point x="452" y="427"/>
      <point x="385" y="486"/>
      <point x="283" y="486" type="curve" smooth="yes"/>
      <point x="182" y="486"/>
      <point x="110" y="414"/>
    </contour>
  </outline>
</glyph>
<glyph name="igrave" format="2">
  <advance width="221"/>
  <unicode hex="00EC"/>
  <outline>
    <contour>
      <point x="84" y="0" type="line"/>
      <point x="84" y="523" type="line"/>
      <point x="137" y="523" type="line"/>
      <point x="137" y="0" type="line"/>
    </contour>
    <contour>
      <point x="93" y="605" type="line"/>
      <point x="1" y="752" type="line"/>
      <point x="66" y="752" type="line"/>
      <point x="134" y="605" type="line"/>
    </contour>
  </outline>
</glyph>
<glyph name="idieresis" format="2">
  <advance width="221"/>
  <unicode hex="00EF"/>
  <outline>
    <contour>
      <point x="36" y="636" type="curve" smooth="yes"/>
      <point x="16" y="636"/>
      <point x="0" y="653"/>
      <point x="0" y="673" type="curve" smooth="yes"/>
      <point x="0" y="693"/>
      <point x="16" y="709"/>
      <point x="36" y="709" type="curve" smooth="yes"/>
      <point x="56" y="709"/>
      <point x="73" y="693"/>
      <point x="73" y="673" type="curve" smooth="yes"/>
      <point x="73" y="653"/>
      <point x="56" y="636"/>
    </contour>
    <contour>
      <point x="185" y="636" type="curve" smooth="yes"/>
      <point x="165" y="636"/>
      <point x="148" y="653"/>
      <point x="148" y="673" type="curve" smooth="yes"/>
      <point x="148" y="693"/>
      <point x="165" y="709"/>
      <point x="185" y="709" type="curve" smooth="yes"/>
      <point x="205" y="709"/>
      <point x="221" y="693"/>
      <point x="221" y="673" type="curve" smooth="yes"/>
      <point x="221" y="653"/>
      <point x="205" y="636"/>
    </contour>
    <contour>
      <point x="84" y="0" type="line"/>
      <point x="84" y="523" type="line"/>
      <point x="137" y="523" type="line"/>
      <point x="137" y="0" type="line"/>
    </contour>
  </outline>
</glyph>
<glyph name="eth" format="2">
  <advance width="594"/>
  <unicode hex="00F0"/>
  <outline>
    <contour>
      <point x="159" y="584" type="line"/>
      <point x="140" y="615" type="line"/>
      <point x="261" y="685" type="line"/>
      <point x="222" y="717"/>
      <point x="180" y="746"/>
      <point x="137" y="773" type="curve"/>
      <point x="208" y="773" type="line"/>
      <point x="237" y="757"/>
      <point x="270" y="736"/>
      <point x="304" y="710" type="curve"/>
      <point x="402" y="768" type="line"/>
      <point x="421" y="735" type="line"/>
      <point x="334" y="685" type="line"/>
      <point x="442" y="593"/>
      <point x="548" y="453"/>
      <point x="548" y="278" type="curve" smooth="yes"/>
      <point x="548" y="260" type="line" smooth="yes"/>
      <point x="548" y="102"/>
      <point x="436" y="-8"/>
      <point x="295" y="-8" type="curve" smooth="yes"/>
      <point x="153" y="-8"/>
      <point x="43" y="103"/>
      <point x="43" y="257" type="curve" smooth="yes"/>
      <point x="43" y="265" type="line" smooth="yes"/>
      <point x="43" y="422"/>
      <point x="156" y="531"/>
      <point x="282" y="531" type="curve" smooth="yes"/>
      <point x="369" y="531"/>
      <point x="424" y="492"/>
      <point x="462" y="440" type="curve"/>
      <point x="425" y="521"/>
      <point x="364" y="595"/>
      <point x="291" y="660" type="curve"/>
    </contour>
    <contour>
      <point x="295" y="37" type="curve" smooth="yes"/>
      <point x="408" y="37"/>
      <point x="493" y="122"/>
      <point x="493" y="258" type="curve" smooth="yes"/>
      <point x="493" y="271" type="line" smooth="yes"/>
      <point x="493" y="402"/>
      <point x="409" y="486"/>
      <point x="293" y="486" type="curve" smooth="yes"/>
      <point x="184" y="486"/>
      <point x="98" y="401"/>
      <point x="98" y="265" type="curve" smooth="yes"/>
      <point x="98" y="257" type="line" smooth="yes"/>
      <point x="98" y="123"/>
      <point x="182" y="37"/>
    </contour>
  </outline>
</glyph>
<glyph name="ntilde" format="2">
  <advance width="583"/>
  <unicode hex="00F1"/>
  <outline>
    <contour>
      <point x="82" y="0" type="line"/>
      <point x="82" y="523" type="line"/>
      <point x="135" y="523" type="line"/>
      <point x="135" y="421" type="line"/>
      <point x="159" y="478"/>
      <point x="227" y="531"/>
      <point x="320" y="531" type="curve" smooth="yes"/>
      <point x="431" y="531"/>
      <point x="506" y="471"/>
      <point x="506" y="322" type="curve" smooth="yes"/>
      <point x="506" y="0" type="line"/>
      <point x="453" y="0" type="line"/>
      <point x="453" y="325" type="line" smooth="yes"/>
      <point x="453" y="436"/>
      <point x="401" y="485"/>
      <point x="308" y="485" type="curve" smooth="yes"/>
      <point x="221" y="485"/>
      <point x="135" y="427"/>
      <point x="135" y="317" type="curve" smooth="yes"/>
      <point x="135" y="0" type="line"/>
    </contour>
    <contour>
      <point x="352" y="616" type="curve" smooth="yes"/>
      <point x="304" y="616"/>
      <point x="263" y="669"/>
      <point x="228" y="669" type="curve" smooth="yes"/>
      <point x="207" y="669"/>
      <point x="188" y="649"/>
      <point x="183" y="616" type="curve"/>
      <point x="142" y="616" type="line"/>
      <point x="150" y="679"/>
      <point x="185" y="715"/>
      <point x="229" y="715" type="curve" smooth="yes"/>
      <point x="276" y="715"/>
      <point x="317" y="662"/>
      <point x="352" y="662" type="curve" smooth="yes"/>
      <point x="373" y="662"/>
      <point x="393" y="681"/>
      <point x="398" y="715" type="curve"/>
      <point x="438" y="715" type="line"/>
      <point x="430" y="652"/>
      <point x="395" y="616"/>
    </contour>
  </outline>
</glyph>
<glyph name="oacute" format="2">
  <advance width="591"/>
  <unicode hex="00F3"/>
  <outline>
    <contour>
      <point x="267" y="605" type="line"/>
      <point x="335" y="752" type="line"/>
      <point x="400" y="752" type="line"/>
      <point x="308" y="605" type="line"/>
    </contour>
    <contour>
      <point x="296" y="37" type="curve" smooth="yes"/>
      <point x="408" y="37"/>
      <point x="493" y="122"/>
      <point x="493" y="257" type="curve" smooth="yes"/>
      <point x="493" y="265" type="line" smooth="yes"/>
      <point x="493" y="403"/>
      <point x="407" y="486"/>
      <point x="296" y="486" type="curve" smooth="yes"/>
      <point x="184" y="486"/>
      <point x="98" y="401"/>
      <point x="98" y="265" type="curve" smooth="yes"/>
      <point x="98" y="257" type="line" smooth="yes"/>
      <point x="98" y="123"/>
      <point x="182" y="37"/>
    </contour>
    <contour>
      <point x="295" y="-8" type="curve" smooth="yes"/>
      <point x="153" y="-8"/>
      <point x="43" y="103"/>
      <point x="43" y="257" type="curve" smooth="yes"/>
      <point x="43" y="265" type="line" smooth="yes"/>
      <point x="43" y="422"/>
      <point x="156" y="531"/>
      <point x="296" y="531" type="curve" smooth="yes"/>
      <point x="437" y="531"/>
      <point x="548" y="425"/>
      <point x="548" y="266" type="curve" smooth="yes"/>
      <point x="548" y="258" type="line" smooth="yes"/>
      <point x="548" y="100"/>
      <point x="436" y="-8"/>
    </contour>
  </outline>
</glyph>
<glyph name="otilde" format="2">
  <advance width="591"/>
  <unicode hex="00F5"/>
  <outline>
    <contour>
      <point x="296" y="37" type="curve" smooth="yes"/>
      <point x="408" y="37"/>
      <point x="493" y="122"/>
      <point x="493" y="257" type="curve" smooth="yes"/>
      <point x="493" y="265" type="line" smooth="yes"/>
      <point x="493" y="403"/>
      <point x="407" y="486"/>
      <point x="296" y="486" type="curve" smooth="yes"/>
      <point x="184" y="486"/>
      <point x="98" y="401"/>
      <point x="98" y="265" type="curve" smooth="yes"/>
      <point x="98" y="257" type="line" smooth="yes"/>
      <point x="98" y="123"/>
      <point x="182" y="37"/>
    </contour>
    <contour>
      <point x="295" y="-8" type="curve" smooth="yes"/>
      <point x="153" y="-8"/>
      <point x="43" y="103"/>
      <point x="43" y="257" type="curve" smooth="yes"/>
      <point x="43" y="265" type="line" smooth="yes"/>
      <point x="43" y="422"/>
      <point x="156" y="531"/>
      <point x="296" y="531" type="curve" smooth="yes"/>
      <point x="437" y="531"/>
      <point x="548" y="425"/>
      <point x="548" y="266" type="curve" smooth="yes"/>
      <point x="548" y="258" type="line" smooth="yes"/>
      <point x="548" y="100"/>
      <point x="436" y="-8"/>
    </contour>
    <contour>
      <point x="357" y="616" type="curve" smooth="yes"/>
      <point x="309" y="616"/>
      <point x="268" y="669"/>
      <point x="233" y="669" type="curve" smooth="yes"/>
      <point x="212" y="669"/>
      <point x="193" y="649"/>
      <point x="188" y="616" type="curve"/>
      <point x="147" y="616" type="line"/>
      <point x="155" y="679"/>
      <point x="190" y="715"/>
      <point x="234" y="715" type="curve" smooth="yes"/>
      <point x="281" y="715"/>
      <point x="322" y="662"/>
      <point x="357" y="662" type="curve" smooth="yes"/>
      <point x="378" y="662"/>
      <point x="398" y="681"/>
      <point x="403" y="715" type="curve"/>
      <point x="443" y="715" type="line"/>
      <point x="435" y="652"/>
      <point x="400" y="616"/>
    </contour>
  </outline>
</glyph>
<glyph name="odieresis" format="2">
  <advance width="591"/>
  <unicode hex="00F6"/>
  <outline>
    <contour>
      <point x="212" y="636" type="curve" smooth="yes"/>
      <point x="191" y="636"/>
      <point x="175" y="653"/>
      <point x="175" y="673" type="curve" smooth="yes"/>
      <point x="175" y="693"/>
      <point x="191" y="709"/>
      <point x="212" y="709" type="curve" smooth="yes"/>
      <point x="232" y="709"/>
      <point x="248" y="693"/>
      <point x="248" y="673" type="curve" smooth="yes"/>
      <point x="248" y="653"/>
      <point x="232" y="636"/>
    </contour>
    <contour>
      <point x="378" y="636" type="curve" smooth="yes"/>
      <point x="358" y="636"/>
      <point x="342" y="653"/>
      <point x="342" y="673" type="curve" smooth="yes"/>
      <point x="342" y="693"/>
      <point x="358" y="709"/>
      <point x="378" y="709" type="curve" smooth="yes"/>
      <point x="399" y="709"/>
      <point x="415" y="693"/>
      <point x="415" y="673" type="curve" smooth="yes"/>
      <point x="415" y="653"/>
      <point x="399" y="636"/>
    </contour>
    <contour>
      <point x="296" y="37" type="curve" smooth="yes"/>
      <point x="408" y="37"/>
      <point x="493" y="122"/>
      <point x="493" y="257" type="curve" smooth="yes"/>
      <point x="493" y="265" type="line" smooth="yes"/>
      <point x="493" y="403"/>
      <point x="407" y="486"/>
      <point x="296" y="486" type="curve" smooth="yes"/>
      <point x="184" y="486"/>
      <point x="98" y="401"/>
      <point x="98" y="265" type="curve" smooth="yes"/>
      <point x="98" y="257" type="line" smooth="yes"/>
      <point x="98" y="123"/>
      <point x="182" y="37"/>
    </contour>
    <contour>
      <point x="295" y="-8" type="curve" smooth="yes"/>
      <point x="153" y="-8"/>
      <point x="43" y="103"/>
      <point x="43" y="257" type="curve" smooth="yes"/>
      <point x="43" y="265" type="line" smooth="yes"/>
      <point x="43" y="422"/>
      <point x="156" y="531"/>
      <point x="296" y="531" type="curve" smooth="yes"/>
      <point x="437" y="531"/>
      <point x="548" y="425"/>
      <point x="548" y="266" type="curve" smooth="yes"/>
      <point x="548" y="258" type="line" smooth="yes"/>
      <point x="548" y="100"/>
      <point x="436" y="-8"/>
    </contour>
  </outline>
</glyph>
<glyph name="divide" format="2">
  <advance width="510"/>
  <unicode hex="00F7"/>
  <outline>
    <contour>
      <point x="255" y="122" type="curve" smooth="yes"/>
      <point x="231" y="122"/>
      <point x="212" y="141"/>
      <point x="212" y="165" type="curve" smooth="yes"/>
      <point x="212" y="188"/>
      <point x="231" y="207"/>
      <point x="255" y="207" type="curve" smooth="yes"/>
      <point x="278" y="207"/>
      <point x="297" y="188"/>
      <point x="297" y="165" type="curve" smooth="yes"/>
      <point x="297" y="141"/>
      <point x="278" y="122"/>
    </contour>
    <contour>
      <point x="36" y="319" type="line"/>
      <point x="36" y="365" type="line"/>
      <point x="474" y="365" type="line"/>
      <point x="474" y="319" type="line"/>
    </contour>
    <contour>
      <point x="255" y="477" type="curve" smooth="yes"/>
      <point x="231" y="477"/>
      <point x="212" y="496"/>
      <point x="212" y="520" type="curve" smooth="yes"/>
      <point x="212" y="543"/>
      <point x="231" y="562"/>
      <point x="255" y="562" type="curve" smooth="yes"/>
      <point x="278" y="562"/>
      <point x="297" y="543"/>
      <point x="297" y="520" type="curve" smooth="yes"/>
      <point x="297" y="496"/>
      <point x="278" y="477"/>
    </contour>
  </outline>
</glyph>
<glyph name="oslash" format="2">
  <advance width="591"/>
  <unicode hex="00F8"/>
  <outline>
    <contour>
      <point x="61" y="-25" type="line"/>
      <point x="31" y="0" type="line"/>
      <point x="103" y="80" type="line"/>
      <point x="65" y="126"/>
      <point x="43" y="187"/>
      <point x="43" y="257" type="curve" smooth="yes"/>
      <point x="43" y="265" type="line" smooth="yes"/>
      <point x="43" y="422"/>
      <point x="156" y="531"/>
      <point x="296" y="531" type="curve" smooth="yes"/>
      <point x="358" y="531"/>
      <point x="414" y="510"/>
      <point x="458" y="473" type="curve"/>
      <point x="522" y="545" type="line"/>
      <point x="551" y="520" type="line"/>
      <point x="485" y="447" type="line"/>
      <point x="524" y="401"/>
      <point x="548" y="339"/>
      <point x="548" y="266" type="curve" smooth="yes"/>
      <point x="548" y="258" type="line" smooth="yes"/>
      <point x="548" y="100"/>
      <point x="436" y="-8"/>
      <point x="295" y="-8" type="curve" smooth="yes"/>
      <point x="231" y="-8"/>
      <point x="174" y="14"/>
      <point x="130" y="52" type="curve"/>
    </contour>
    <contour>
      <point x="296" y="37" type="curve" smooth="yes"/>
      <point x="408" y="37"/>
      <point x="493" y="122"/>
      <point x="493" y="257" type="curve" smooth="yes"/>
      <point x="493" y="265" type="line" smooth="yes"/>
      <point x="493" y="323"/>
      <point x="477" y="372"/>
      <point x="451" y="409" type="curve"/>
      <point x="162" y="88" type="line"/>
      <point x="197" y="55"/>
      <point x="243" y="37"/>
    </contour>
    <contour>
      <point x="98" y="257" type="line" smooth="yes"/>
      <point x="98" y="201"/>
      <point x="112" y="154"/>
      <point x="137" y="118" type="curve"/>
      <point x="425" y="437" type="line"/>
      <point x="391" y="469"/>
      <point x="346" y="486"/>
      <point x="296" y="486" type="curve" smooth="yes"/>
      <point x="184" y="486"/>
      <point x="98" y="401"/>
      <point x="98" y="265" type="curve" smooth="yes"/>
    </contour>
  </outline>
</glyph>
<glyph name="ucircumflex" format="2">
  <advance width="579"/>
  <unicode hex="00FB"/>
  <outline>
    <contour>
      <point x="155" y="605" type="line"/>
      <point x="265" y="740" type="line"/>
      <point x="315" y="740" type="line"/>
      <point x="423" y="605" type="line"/>
      <point x="381" y="605" type="line"/>
      <point x="289" y="695" type="line"/>
      <point x="196" y="605" type="line"/>
    </contour>
    <contour>
      <point x="261" y="-8" type="curve" smooth="yes"/>
      <point x="153" y="-8"/>
      <point x="77" y="48"/>
      <point x="77" y="192" type="curve" smooth="yes"/>
      <point x="77" y="523" type="line"/>
      <point x="130" y="523" type="line"/>
      <point x="130" y="195" type="line" smooth="yes"/>
      <point x="130" y="84"/>
      <point x="182" y="38"/>
      <point x="273" y="38" type="curve" smooth="yes"/>
      <point x="358" y="38"/>
      <point x="444" y="95"/>
      <point x="444" y="205" type="curve" smooth="yes"/>
      <point x="444" y="523" type="line"/>
      <point x="497" y="523" type="line"/>
      <point x="497" y="0" type="line"/>
      <point x="444" y="0" type="line"/>
      <point x="444" y="100" type="line"/>
      <point x="420" y="43"/>
      <point x="353" y="-8"/>
    </contour>
  </outline>
</glyph>
<glyph name="udieresis" format="2">
  <advance width="579"/>
  <unicode hex="00FC"/>
  <outline>
    <contour>
      <point x="206" y="636" type="curve" smooth="yes"/>
      <point x="185" y="636"/>
      <point x="169" y="653"/>
      <point x="169" y="673" type="curve" smooth="yes"/>
      <point x="169" y="693"/>
      <point x="185" y="709"/>
      <point x="206" y="709" type="curve" smooth="yes"/>
      <point x="226" y="709"/>
      <point x="242" y="693"/>
      <point x="242" y="673" type="curve" smooth="yes"/>
      <point x="242" y="653"/>
      <point x="226" y="636"/>
    </contour>
    <contour>
      <point x="372" y="636" type="curve" smooth="yes"/>
      <point x="352" y="636"/>
      <point x="336" y="653"/>
      <point x="336" y="673" type="curve" smooth="yes"/>
      <point x="336" y="693"/>
      <point x="352" y="709"/>
      <point x="372" y="709" type="curve" smooth="yes"/>
      <point x="393" y="709"/>
      <point x="409" y="693"/>
      <point x="409" y="673" type="curve" smooth="yes"/>
      <point x="409" y="653"/>
      <point x="393" y="636"/>
    </contour>
    <contour>
      <point x="261" y="-8" type="curve" smooth="yes"/>
      <point x="153" y="-8"/>
      <point x="77" y="48"/>
      <point x="77" y="192" type="curve" smooth="yes"/>
      <point x="77" y="523" type="line"/>
      <point x="130" y="523" type="line"/>
      <point x="130" y="195" type="line" smooth="yes"/>
      <point x="130" y="84"/>
      <point x="182" y="38"/>
      <point x="273" y="38" type="curve" smooth="yes"/>
      <point x="358" y="38"/>
      <point x="444" y="95"/>
      <point x="444" y="205" type="curve" smooth="yes"/>
      <point x="444" y="523" type="line"/>
      <point x="497" y="523" type="line"/>
      <point x="497" y="0" type="line"/>
      <point x="444" y="0" type="line"/>
      <point x="444" y="100" type="line"/>
      <point x="420" y="43"/>
      <point x="353" y="-8"/>
    </contour>
  </outline>
</glyph>
<glyph name="thorn" format="2">
  <advance width="612"/>
  <unicode hex="00FE"/>
  <outline>
    <contour>
      <point x="82" y="-182" type="line"/>
      <point x="82" y="773" type="line"/>
      <point x="135" y="773" type="line"/>
      <point x="135" y="401" type="line"/>
      <point x="166" y="470"/>
      <point x="243" y="531"/>
      <point x="335" y="531" type="curve" smooth="yes"/>
      <point x="467" y="531"/>
      <point x="569" y="430"/>
      <point x="569" y="267" type="curve" smooth="yes"/>
      <point x="569" y="259" type="line" smooth="yes"/>
      <point x="569" y="95"/>
      <point x="469" y="-8"/>
      <point x="334" y="-8" type="curve" smooth="yes"/>
      <point x="230" y="-8"/>
      <point x="163" y="55"/>
      <point x="135" y="119" type="curve"/>
      <point x="135" y="-182" type="line"/>
    </contour>
    <contour>
      <point x="330" y="37" type="curve" smooth="yes"/>
      <point x="440" y="37"/>
      <point x="514" y="117"/>
      <point x="514" y="257" type="curve" smooth="yes"/>
      <point x="514" y="265" type="line" smooth="yes"/>
      <point x="514" y="409"/>
      <point x="430" y="486"/>
      <point x="330" y="486" type="curve" smooth="yes"/>
      <point x="226" y="486"/>
      <point x="134" y="409"/>
      <point x="134" y="265" type="curve" smooth="yes"/>
      <point x="134" y="257" type="line" smooth="yes"/>
      <point x="134" y="114"/>
      <point x="221" y="37"/>
    </contour>
  </outline>
</glyph>
<glyph name="ydieresis" format="2">
  <advance width="508"/>
  <unicode hex="00FF"/>
  <outline>
    <contour>
      <point x="137" y="-182" type="line"/>
      <point x="232" y="45" type="line"/>
      <point x="25" y="523" type="line"/>
      <point x="82" y="523" type="line"/>
      <point x="261" y="106" type="line"/>
      <point x="428" y="523" type="line"/>
      <point x="482" y="523" type="line"/>
      <point x="192" y="-182" type="line"/>
    </contour>
    <contour>
      <point x="176" y="636" type="curve" smooth="yes"/>
      <point x="155" y="636"/>
      <point x="139" y="653"/>
      <point x="139" y="673" type="curve" smooth="yes"/>
      <point x="139" y="693"/>
      <point x="155" y="709"/>
      <point x="176" y="709" type="curve" smooth="yes"/>
      <point x="196" y="709"/>
      <point x="212" y="693"/>
      <point x="212" y="673" type="curve" smooth="yes"/>
      <point x="212" y="653"/>
      <point x="196" y="636"/>
    </contour>
    <contour>
      <point x="342" y="636" type="curve" smooth="yes"/>
      <point x="322" y="636"/>
      <point x="306" y="653"/>
      <point x="306" y="673" type="curve" smooth="yes"/>
      <point x="306" y="693"/>
      <point x="322" y="709"/>
      <point x="342" y="709" type="curve" smooth="yes"/>
      <point x="363" y="709"/>
      <point x="379" y="693"/>
      <point x="379" y="673" type="curve" smooth="yes"/>
      <point x="379" y="653"/>
      <point x="363" y="636"/>
    </contour>
  </outline>
</glyph>
<glyph name="Amacron" format="2">
  <advance width="654"/>
  <unicode hex="0100"/>
  <outline>
    <contour>
      <point x="33" y="0" type="line"/>
      <point x="290" y="715" type="line"/>
      <point x="364" y="715" type="line"/>
      <point x="621" y="0" type="line"/>
      <point x="565" y="0" type="line"/>
      <point x="486" y="219" type="line"/>
      <point x="164" y="219" type="line"/>
      <point x="86" y="0" type="line"/>
    </contour>
    <contour>
      <point x="325" y="669" type="line"/>
      <point x="180" y="264" type="line"/>
      <point x="470" y="264" type="line"/>
    </contour>
    <contour>
      <point x="199" y="791" type="line"/>
      <point x="199" y="833" type="line"/>
      <point x="447" y="833" type="line"/>
      <point x="447" y="791" type="line"/>
    </contour>
  </outline>
</glyph>
<glyph name="Abreve" format="2">
  <advance width="654"/>
  <unicode hex="0102"/>
  <outline>
    <contour>
      <point x="33" y="0" type="line"/>
      <point x="290" y="715" type="line"/>
      <point x="364" y="715" type="line"/>
      <point x="621" y="0" type="line"/>
      <point x="565" y="0" type="line"/>
      <point x="486" y="219" type="line"/>
      <point x="164" y="219" type="line"/>
      <point x="86" y="0" type="line"/>
    </contour>
    <contour>
      <point x="325" y="669" type="line"/>
      <point x="180" y="264" type="line"/>
      <point x="470" y="264" type="line"/>
    </contour>
    <contour>
      <point x="321" y="771" type="curve" smooth="yes"/>
      <point x="253" y="771"/>
      <point x="199" y="823"/>
      <point x="195" y="893" type="curve"/>
      <point x="239" y="893" type="line"/>
      <point x="244" y="847"/>
      <point x="275" y="815"/>
      <point x="321" y="815" type="curve" smooth="yes"/>
      <point x="368" y="815"/>
      <point x="401" y="847"/>
      <point x="407" y="893" type="curve"/>
      <point x="450" y="893" type="line"/>
      <point x="446" y="823"/>
      <point x="388" y="771"/>
    </contour>
  </outline>
</glyph>
<glyph name="Aogonek" format="2">
  <advance width="654"/>
  <unicode hex="0104"/>
  <outline>
    <contour>
      <point x="581" y="-182" type="curve" smooth="yes"/>
      <point x="523" y="-182"/>
      <point x="488" y="-152"/>
      <point x="488" y="-107" type="curve" smooth="yes"/>
      <point x="488" y="-63"/>
      <point x="523" y="-25"/>
      <point x="565" y="0" type="curve"/>
      <point x="486" y="219" type="line"/>
      <point x="164" y="219" type="line"/>
      <point x="86" y="0" type="line"/>
      <point x="33" y="0" type="line"/>
      <point x="290" y="715" type="line"/>
      <point x="364" y="715" type="line"/>
      <point x="620" y="2" type="line"/>
      <point x="565" y="-32"/>
      <point x="539" y="-62"/>
      <point x="539" y="-98" type="curve" smooth="yes"/>
      <point x="539" y="-125"/>
      <point x="555" y="-142"/>
      <point x="588" y="-142" type="curve" smooth="yes"/>
      <point x="605" y="-142"/>
      <point x="623" y="-139"/>
      <point x="639" y="-132" type="curve"/>
      <point x="639" y="-171" type="line"/>
      <point x="623" y="-177"/>
      <point x="605" y="-182"/>
    </contour>
    <contour>
      <point x="325" y="669" type="line"/>
      <point x="180" y="264" type="line"/>
      <point x="470" y="264" type="line"/>
    </contour>
  </outline>
</glyph>
<glyph name="cacute" format="2">
  <advance width="556"/>
  <unicode hex="0107"/>
  <outline>
    <contour>
      <point x="261" y="605" type="line"/>
      <point x="329" y="752" type="line"/>
      <point x="394" y="752" type="line"/>
      <point x="302" y="605" type="line"/>
    </contour>
    <contour>
      <point x="293" y="-8" type="curve" smooth="yes"/>
      <point x="152" y="-8"/>
      <point x="43" y="97"/>
      <point x="43" y="256" type="curve" smooth="yes"/>
      <point x="43" y="264" type="line" smooth="yes"/>
      <point x="43" y="424"/>
      <point x="155" y="531"/>
      <point x="293" y="531" type="curve" smooth="yes"/>
      <point x="399" y="531"/>
      <point x="497" y="475"/>
      <point x="511" y="357" type="curve"/>
      <point x="459" y="357" type="line"/>
      <point x="446" y="445"/>
      <point x="375" y="486"/>
      <point x="293" y="486" type="curve" smooth="yes"/>
      <point x="184" y="486"/>
      <point x="98" y="402"/>
      <point x="98" y="264" type="curve" smooth="yes"/>
      <point x="98" y="256" type="line" smooth="yes"/>
      <point x="98" y="118"/>
      <point x="183" y="37"/>
      <point x="293" y="37" type="curve" smooth="yes"/>
      <point x="380" y="37"/>
      <point x="454" y="87"/>
      <point x="467" y="181" type="curve"/>
      <point x="516" y="181" type="line"/>
      <point x="502" y="69"/>
      <point x="412" y="-8"/>
    </contour>
  </outline>
</glyph>
<glyph name="Cdotaccent" format="2">
  <advance width="725"/>
  <unicode hex="010A"/>
  <outline>
    <contour>
      <point x="385" y="-8" type="curve" smooth="yes"/>
      <point x="181" y="-8"/>
      <point x="53" y="137"/>
      <point x="53" y="353" type="curve" smooth="yes"/>
      <point x="53" y="361" type="line" smooth="yes"/>
      <point x="53" y="572"/>
      <point x="198" y="724"/>
      <point x="385" y="724" type="curve" smooth="yes"/>
      <point x="533" y="724"/>
      <point x="652" y="647"/>
      <point x="674" y="500" type="curve"/>
      <point x="618" y="500" type="line"/>
      <point x="596" y="615"/>
      <point x="518" y="679"/>
      <point x="386" y="679" type="curve" smooth="yes"/>
      <point x="226" y="679"/>
      <point x="110" y="551"/>
      <point x="110" y="362" type="curve" smooth="yes"/>
      <point x="110" y="354" type="line" smooth="yes"/>
      <point x="110" y="161"/>
      <point x="216" y="39"/>
      <point x="386" y="39" type="curve" smooth="yes"/>
      <point x="515" y="39"/>
      <point x="607" y="107"/>
      <point x="630" y="230" type="curve"/>
      <point x="682" y="230" type="line"/>
      <point x="656" y="76"/>
      <point x="539" y="-8"/>
    </contour>
    <contour>
      <point x="384" y="787" type="curve" smooth="yes"/>
      <point x="363" y="787"/>
      <point x="346" y="804"/>
      <point x="346" y="825" type="curve" smooth="yes"/>
      <point x="346" y="845"/>
      <point x="363" y="862"/>
      <point x="384" y="862" type="curve" smooth="yes"/>
      <point x="405" y="862"/>
      <point x="422" y="845"/>
      <point x="422" y="825" type="curve" smooth="yes"/>
      <point x="422" y="804"/>
      <point x="405" y="787"/>
    </contour>
  </outline>
</glyph>
<glyph name="cdotaccent" format="2">
  <advance width="556"/>
  <unicode hex="010B"/>
  <outline>
    <contour>
      <point x="293" y="-8" type="curve" smooth="yes"/>
      <point x="152" y="-8"/>
      <point x="43" y="97"/>
      <point x="43" y="256" type="curve" smooth="yes"/>
      <point x="43" y="264" type="line" smooth="yes"/>
      <point x="43" y="424"/>
      <point x="155" y="531"/>
      <point x="293" y="531" type="curve" smooth="yes"/>
      <point x="399" y="531"/>
      <point x="497" y="475"/>
      <point x="511" y="357" type="curve"/>
      <point x="459" y="357" type="line"/>
      <point x="446" y="445"/>
      <point x="375" y="486"/>
      <point x="293" y="486" type="curve" smooth="yes"/>
      <point x="184" y="486"/>
      <point x="98" y="402"/>
      <point x="98" y="264" type="curve" smooth="yes"/>
      <point x="98" y="256" type="line" smooth="yes"/>
      <point x="98" y="118"/>
      <point x="183" y="37"/>
      <point x="293" y="37" type="curve" smooth="yes"/>
      <point x="380" y="37"/>
      <point x="454" y="87"/>
      <point x="467" y="181" type="curve"/>
      <point x="516" y="181" type="line"/>
      <point x="502" y="69"/>
      <point x="412" y="-8"/>
    </contour>
    <contour>
      <point x="289" y="635" type="curve" smooth="yes"/>
      <point x="268" y="635"/>
      <point x="251" y="652"/>
      <point x="251" y="673" type="curve" smooth="yes"/>
      <point x="251" y="693"/>
      <point x="268" y="710"/>
      <point x="289" y="710" type="curve" smooth="yes"/>
      <point x="310" y="710"/>
      <point x="327" y="693"/>
      <point x="327" y="673" type="curve" smooth="yes"/>
      <point x="327" y="652"/>
      <point x="310" y="635"/>
    </contour>
  </outline>
</glyph>
<glyph name="Ccaron" format="2">
  <advance width="725"/>
  <unicode hex="010C"/>
  <outline>
    <contour>
      <point x="361" y="771" type="line"/>
      <point x="252" y="893" type="line"/>
      <point x="294" y="893" type="line"/>
      <point x="387" y="816" type="line"/>
      <point x="481" y="893" type="line"/>
      <point x="522" y="893" type="line"/>
      <point x="411" y="771" type="line"/>
    </contour>
    <contour>
      <point x="385" y="-8" type="curve" smooth="yes"/>
      <point x="181" y="-8"/>
      <point x="53" y="137"/>
      <point x="53" y="353" type="curve" smooth="yes"/>
      <point x="53" y="361" type="line" smooth="yes"/>
      <point x="53" y="572"/>
      <point x="198" y="724"/>
      <point x="385" y="724" type="curve" smooth="yes"/>
      <point x="533" y="724"/>
      <point x="652" y="647"/>
      <point x="674" y="500" type="curve"/>
      <point x="618" y="500" type="line"/>
      <point x="596" y="615"/>
      <point x="518" y="679"/>
      <point x="386" y="679" type="curve" smooth="yes"/>
      <point x="226" y="679"/>
      <point x="110" y="551"/>
      <point x="110" y="362" type="curve" smooth="yes"/>
      <point x="110" y="354" type="line" smooth="yes"/>
      <point x="110" y="161"/>
      <point x="216" y="39"/>
      <point x="386" y="39" type="curve" smooth="yes"/>
      <point x="515" y="39"/>
      <point x="607" y="107"/>
      <point x="630" y="230" type="curve"/>
      <point x="682" y="230" type="line"/>
      <point x="656" y="76"/>
      <point x="539" y="-8"/>
    </contour>
  </outline>
</glyph>
<glyph name="Dcaron" format="2">
  <advance width="686"/>
  <unicode hex="010E"/>
  <outline>
    <contour>
      <point x="288" y="771" type="line"/>
      <point x="179" y="893" type="line"/>
      <point x="221" y="893" type="line"/>
      <point x="314" y="816" type="line"/>
      <point x="408" y="893" type="line"/>
      <point x="449" y="893" type="line"/>
      <point x="338" y="771" type="line"/>
    </contour>
    <contour>
      <point x="148" y="46" type="line"/>
      <point x="274" y="46" type="line" smooth="yes"/>
      <point x="477" y="46"/>
      <point x="576" y="174"/>
      <point x="576" y="356" type="curve" smooth="yes"/>
      <point x="576" y="364" type="line" smooth="yes"/>
      <point x="576" y="540"/>
      <point x="483" y="669"/>
      <point x="273" y="669" type="curve" smooth="yes"/>
      <point x="148" y="669" type="line"/>
    </contour>
    <contour>
      <point x="92" y="0" type="line"/>
      <point x="92" y="715" type="line"/>
      <point x="278" y="715" type="line" smooth="yes"/>
      <point x="514" y="715"/>
      <point x="634" y="563"/>
      <point x="634" y="364" type="curve" smooth="yes"/>
      <point x="634" y="355" type="line" smooth="yes"/>
      <point x="634" y="157"/>
      <point x="520" y="0"/>
      <point x="276" y="0" type="curve" smooth="yes"/>
    </contour>
  </outline>
</glyph>
<glyph name="Dcroat" format="2">
  <advance width="697"/>
  <unicode hex="0110"/>
  <outline>
    <contour>
      <point x="28" y="337" type="line"/>
      <point x="28" y="381" type="line"/>
      <point x="103" y="381" type="line"/>
      <point x="103" y="715" type="line"/>
      <point x="288" y="715" type="line" smooth="yes"/>
      <point x="525" y="715"/>
      <point x="644" y="563"/>
      <point x="644" y="364" type="curve" smooth="yes"/>
      <point x="644" y="355" type="line" smooth="yes"/>
      <point x="644" y="157"/>
      <point x="531" y="0"/>
      <point x="286" y="0" type="curve" smooth="yes"/>
      <point x="103" y="0" type="line"/>
      <point x="103" y="337" type="line"/>
    </contour>
    <contour>
      <point x="159" y="46" type="line"/>
      <point x="284" y="46" type="line" smooth="yes"/>
      <point x="488" y="46"/>
      <point x="587" y="174"/>
      <point x="587" y="356" type="curve" smooth="yes"/>
      <point x="587" y="364" type="line" smooth="yes"/>
      <point x="587" y="540"/>
      <point x="494" y="669"/>
      <point x="283" y="669" type="curve" smooth="yes"/>
      <point x="159" y="669" type="line"/>
      <point x="159" y="381" type="line"/>
      <point x="367" y="381" type="line"/>
      <point x="367" y="337" type="line"/>
      <point x="159" y="337" type="line"/>
    </contour>
  </outline>
</glyph>
<glyph name="dcroat" format="2">
  <advance width="612"/>
  <unicode hex="0111"/>
  <outline>
    <contour>
      <point x="288" y="623" type="line"/>
      <point x="288" y="664" type="line"/>
      <point x="477" y="664" type="line"/>
      <point x="477" y="773" type="line"/>
      <point x="530" y="773" type="line"/>
      <point x="530" y="664" type="line"/>
      <point x="607" y="664" type="line"/>
      <point x="607" y="623" type="line"/>
      <point x="530" y="623" type="line"/>
      <point x="530" y="0" type="line"/>
      <point x="477" y="0" type="line"/>
      <point x="477" y="121" type="line"/>
      <point x="449" y="58"/>
      <point x="376" y="-8"/>
      <point x="278" y="-8" type="curve" smooth="yes"/>
      <point x="145" y="-8"/>
      <point x="43" y="88"/>
      <point x="43" y="254" type="curve" smooth="yes"/>
      <point x="43" y="262" type="line" smooth="yes"/>
      <point x="43" y="423"/>
      <point x="148" y="531"/>
      <point x="286" y="531" type="curve" smooth="yes"/>
      <point x="389" y="531"/>
      <point x="447" y="472"/>
      <point x="477" y="407" type="curve"/>
      <point x="477" y="623" type="line"/>
    </contour>
    <contour>
      <point x="283" y="37" type="curve" smooth="yes"/>
      <point x="389" y="37"/>
      <point x="478" y="114"/>
      <point x="478" y="258" type="curve" smooth="yes"/>
      <point x="478" y="266" type="line" smooth="yes"/>
      <point x="478" y="410"/>
      <point x="400" y="486"/>
      <point x="291" y="486" type="curve" smooth="yes"/>
      <point x="179" y="486"/>
      <point x="98" y="405"/>
      <point x="98" y="264" type="curve" smooth="yes"/>
      <point x="98" y="256" type="line" smooth="yes"/>
      <point x="98" y="113"/>
      <point x="179" y="37"/>
    </contour>
  </outline>
</glyph>
<glyph name="Emacron" format="2">
  <advance width="566"/>
  <unicode hex="0112"/>
  <outline>
    <contour>
      <point x="92" y="0" type="line"/>
      <point x="92" y="715" type="line"/>
      <point x="503" y="715" type="line"/>
      <point x="503" y="669" type="line"/>
      <point x="148" y="669" type="line"/>
      <point x="148" y="390" type="line"/>
      <point x="436" y="390" type="line"/>
      <point x="436" y="344" type="line"/>
      <point x="148" y="344" type="line"/>
      <point x="148" y="46" type="line"/>
      <point x="521" y="46" type="line"/>
      <point x="521" y="0" type="line"/>
    </contour>
    <contour>
      <point x="175" y="791" type="line"/>
      <point x="175" y="833" type="line"/>
      <point x="423" y="833" type="line"/>
      <point x="423" y="791" type="line"/>
    </contour>
  </outline>
</glyph>
<glyph name="Ebreve" format="2">
  <advance width="566"/>
  <unicode hex="0114"/>
  <outline>
    <contour>
      <point x="92" y="0" type="line"/>
      <point x="92" y="715" type="line"/>
      <point x="503" y="715" type="line"/>
      <point x="503" y="669" type="line"/>
      <point x="148" y="669" type="line"/>
      <point x="148" y="390" type="line"/>
      <point x="436" y="390" type="line"/>
      <point x="436" y="344" type="line"/>
      <point x="148" y="344" type="line"/>
      <point x="148" y="46" type="line"/>
      <point x="521" y="46" type="line"/>
      <point x="521" y="0" type="line"/>
    </contour>
    <contour>
      <point x="301" y="771" type="curve" smooth="yes"/>
      <point x="233" y="771"/>
      <point x="179" y="823"/>
      <point x="175" y="893" type="curve"/>
      <point x="219" y="893" type="line"/>
      <point x="224" y="847"/>
      <point x="255" y="815"/>
      <point x="301" y="815" type="curve" smooth="yes"/>
      <point x="348" y="815"/>
      <point x="381" y="847"/>
      <point x="387" y="893" type="curve"/>
      <point x="430" y="893" type="line"/>
      <point x="426" y="823"/>
      <point x="368" y="771"/>
    </contour>
  </outline>
</glyph>
<glyph name="ebreve" format="2">
  <advance width="554"/>
  <unicode hex="0115"/>
  <outline>
    <contour>
      <point x="291" y="-8" type="curve" smooth="yes"/>
      <point x="140" y="-8"/>
      <point x="43" y="99"/>
      <point x="43" y="256" type="curve" smooth="yes"/>
      <point x="43" y="264" type="line" smooth="yes"/>
      <point x="43" y="422"/>
      <point x="143" y="531"/>
      <point x="283" y="531" type="curve" smooth="yes"/>
      <point x="409" y="531"/>
      <point x="512" y="449"/>
      <point x="512" y="276" type="curve" smooth="yes"/>
      <point x="512" y="257" type="line"/>
      <point x="98" y="257" type="line"/>
      <point x="100" y="117"/>
      <point x="167" y="37"/>
      <point x="291" y="37" type="curve" smooth="yes"/>
      <point x="378" y="37"/>
      <point x="437" y="73"/>
      <point x="455" y="146" type="curve"/>
      <point x="508" y="146" type="line"/>
      <point x="486" y="46"/>
      <point x="403" y="-8"/>
    </contour>
    <contour>
      <point x="100" y="300" type="curve"/>
      <point x="457" y="300" type="line"/>
      <point x="452" y="427"/>
      <point x="385" y="486"/>
      <point x="283" y="486" type="curve" smooth="yes"/>
      <point x="182" y="486"/>
      <point x="110" y="414"/>
    </contour>
    <contour>
      <point x="276" y="616" type="curve" smooth="yes"/>
      <point x="208" y="616"/>
      <point x="158" y="666"/>
      <point x="154" y="737" type="curve"/>
      <point x="198" y="737" type="line"/>
      <point x="203" y="690"/>
      <point x="230" y="660"/>
      <point x="276" y="660" type="curve" smooth="yes"/>
      <point x="323" y="660"/>
      <point x="352" y="690"/>
      <point x="359" y="737" type="curve"/>
      <point x="401" y="737" type="line"/>
      <point x="397" y="666"/>
      <point x="343" y="616"/>
    </contour>
  </outline>
</glyph>
<glyph name="Edotaccent" format="2">
  <advance width="566"/>
  <unicode hex="0116"/>
  <outline>
    <contour>
      <point x="299" y="787" type="curve" smooth="yes"/>
      <point x="278" y="787"/>
      <point x="261" y="804"/>
      <point x="261" y="825" type="curve" smooth="yes"/>
      <point x="261" y="845"/>
      <point x="278" y="862"/>
      <point x="299" y="862" type="curve" smooth="yes"/>
      <point x="320" y="862"/>
      <point x="337" y="845"/>
      <point x="337" y="825" type="curve" smooth="yes"/>
      <point x="337" y="804"/>
      <point x="320" y="787"/>
    </contour>
    <contour>
      <point x="92" y="0" type="line"/>
      <point x="92" y="715" type="line"/>
      <point x="503" y="715" type="line"/>
      <point x="503" y="669" type="line"/>
      <point x="148" y="669" type="line"/>
      <point x="148" y="390" type="line"/>
      <point x="436" y="390" type="line"/>
      <point x="436" y="344" type="line"/>
      <point x="148" y="344" type="line"/>
      <point x="148" y="46" type="line"/>
      <point x="521" y="46" type="line"/>
      <point x="521" y="0" type="line"/>
    </contour>
  </outline>
</glyph>
<glyph name="Eogonek" format="2">
  <advance width="566"/>
  <unicode hex="0118"/>
  <outline>
    <contour>
      <point x="437" y="-182" type="curve" smooth="yes"/>
      <point x="379" y="-182"/>
      <point x="343" y="-152"/>
      <point x="343" y="-107" type="curve" smooth="yes"/>
      <point x="343" y="-63"/>
      <point x="378" y="-24"/>
      <point x="421" y="0" type="curve"/>
      <point x="92" y="0" type="line"/>
      <point x="92" y="715" type="line"/>
      <point x="503" y="715" type="line"/>
      <point x="503" y="669" type="line"/>
      <point x="148" y="669" type="line"/>
      <point x="148" y="390" type="line"/>
      <point x="436" y="390" type="line"/>
      <point x="436" y="344" type="line"/>
      <point x="148" y="344" type="line"/>
      <point x="148" y="46" type="line"/>
      <point x="521" y="46" type="line"/>
      <point x="521" y="0" type="line"/>
      <point x="470" y="0" type="line"/>
      <point x="421" y="-32"/>
      <point x="395" y="-62"/>
      <point x="395" y="-98" type="curve" smooth="yes"/>
      <point x="395" y="-125"/>
      <point x="410" y="-142"/>
      <point x="444" y="-142" type="curve" smooth="yes"/>
      <point x="461" y="-142"/>
      <point x="478" y="-139"/>
      <point x="494" y="-132" type="curve"/>
      <point x="494" y="-171" type="line"/>
      <point x="479" y="-177"/>
      <point x="460" y="-182"/>
    </contour>
  </outline>
</glyph>
<glyph name="eogonek" format="2">
  <advance width="554"/>
  <unicode hex="0119"/>
  <outline>
    <contour>
      <point x="374" y="-182" type="curve" smooth="yes"/>
      <point x="316" y="-182"/>
      <point x="281" y="-152"/>
      <point x="281" y="-107" type="curve" smooth="yes"/>
      <point x="281" y="-64"/>
      <point x="315" y="-25"/>
      <point x="358" y="1" type="curve"/>
      <point x="336" y="-5"/>
      <point x="314" y="-8"/>
      <point x="291" y="-8" type="curve" smooth="yes"/>
      <point x="140" y="-8"/>
      <point x="43" y="99"/>
      <point x="43" y="256" type="curve" smooth="yes"/>
      <point x="43" y="264" type="line" smooth="yes"/>
      <point x="43" y="422"/>
      <point x="143" y="531"/>
      <point x="283" y="531" type="curve" smooth="yes"/>
      <point x="409" y="531"/>
      <point x="512" y="449"/>
      <point x="512" y="276" type="curve" smooth="yes"/>
      <point x="512" y="257" type="line"/>
      <point x="98" y="257" type="line"/>
      <point x="100" y="117"/>
      <point x="167" y="37"/>
      <point x="291" y="37" type="curve" smooth="yes"/>
      <point x="378" y="37"/>
      <point x="437" y="73"/>
      <point x="455" y="146" type="curve"/>
      <point x="508" y="146" type="line"/>
      <point x="494" y="81"/>
      <point x="456" y="46"/>
      <point x="428" y="23" type="curve" smooth="yes"/>
      <point x="384" y="-14"/>
      <point x="332" y="-50"/>
      <point x="332" y="-98" type="curve" smooth="yes"/>
      <point x="332" y="-125"/>
      <point x="348" y="-142"/>
      <point x="381" y="-142" type="curve" smooth="yes"/>
      <point x="398" y="-142"/>
      <point x="416" y="-139"/>
      <point x="431" y="-132" type="curve"/>
      <point x="431" y="-171" type="line"/>
      <point x="416" y="-177"/>
      <point x="398" y="-182"/>
    </contour>
    <contour>
      <point x="100" y="300" type="curve"/>
      <point x="457" y="300" type="line"/>
      <point x="452" y="427"/>
      <point x="385" y="486"/>
      <point x="283" y="486" type="curve" smooth="yes"/>
      <point x="182" y="486"/>
      <point x="110" y="414"/>
    </contour>
  </outline>
</glyph>
<glyph name="Gcircumflex" format="2">
  <advance width="756"/>
  <unicode hex="011C"/>
  <outline>
    <contour>
      <point x="256" y="771" type="line"/>
      <point x="366" y="893" type="line"/>
      <point x="416" y="893" type="line"/>
      <point x="524" y="771" type="line"/>
      <point x="482" y="771" type="line"/>
      <point x="390" y="849" type="line"/>
      <point x="297" y="771" type="line"/>
    </contour>
    <contour>
      <point x="396" y="-8" type="curve" smooth="yes"/>
      <point x="181" y="-8"/>
      <point x="53" y="143"/>
      <point x="53" y="353" type="curve" smooth="yes"/>
      <point x="53" y="361" type="line" smooth="yes"/>
      <point x="53" y="570"/>
      <point x="198" y="724"/>
      <point x="394" y="724" type="curve" smooth="yes"/>
      <point x="531" y="724"/>
      <point x="654" y="660"/>
      <point x="681" y="511" type="curve"/>
      <point x="625" y="511" type="line"/>
      <point x="599" y="629"/>
      <point x="509" y="679"/>
      <point x="395" y="679" type="curve" smooth="yes"/>
      <point x="223" y="679"/>
      <point x="110" y="548"/>
      <point x="110" y="362" type="curve" smooth="yes"/>
      <point x="110" y="354" type="line" smooth="yes"/>
      <point x="110" y="164"/>
      <point x="212" y="38"/>
      <point x="396" y="38" type="curve" smooth="yes"/>
      <point x="563" y="38"/>
      <point x="647" y="141"/>
      <point x="649" y="298" type="curve" smooth="yes"/>
      <point x="649" y="302" type="line"/>
      <point x="429" y="302" type="line"/>
      <point x="429" y="349" type="line"/>
      <point x="703" y="349" type="line"/>
      <point x="703" y="308" type="line" smooth="yes"/>
      <point x="703" y="102"/>
      <point x="580" y="-8"/>
    </contour>
  </outline>
</glyph>
<glyph name="Gcommaaccent" format="2">
  <advance width="756"/>
  <unicode hex="0122"/>
  <outline>
    <contour>
      <point x="352" y="-204" type="line"/>
      <point x="318" y="-188" type="line"/>
      <point x="376" y="-41" type="line"/>
      <point x="427" y="-56" type="line"/>
    </contour>
    <contour>
      <point x="396" y="-8" type="curve" smooth="yes"/>
      <point x="181" y="-8"/>
      <point x="53" y="143"/>
      <point x="53" y="353" type="curve" smooth="yes"/>
      <point x="53" y="361" type="line" smooth="yes"/>
      <point x="53" y="570"/>
      <point x="198" y="724"/>
      <point x="394" y="724" type="curve" smooth="yes"/>
      <point x="531" y="724"/>
      <point x="654" y="660"/>
      <point x="681" y="511" type="curve"/>
      <point x="625" y="511" type="line"/>
      <point x="599" y="629"/>
      <point x="509" y="679"/>
      <point x="395" y="679" type="curve" smooth="yes"/>
      <point x="223" y="679"/>
      <point x="110" y="548"/>
      <point x="110" y="362" type="curve" smooth="yes"/>
      <point x="110" y="354" type="line" smooth="yes"/>
      <point x="110" y="164"/>
      <point x="212" y="38"/>
      <point x="396" y="38" type="curve" smooth="yes"/>
      <point x="563" y="38"/>
      <point x="647" y="141"/>
      <point x="649" y="298" type="curve" smooth="yes"/>
      <point x="649" y="302" type="line"/>
      <point x="429" y="302" type="line"/>
      <point x="429" y="349" type="line"/>
      <point x="703" y="349" type="line"/>
      <point x="703" y="308" type="line" smooth="yes"/>
      <point x="703" y="102"/>
      <point x="580" y="-8"/>
    </contour>
  </outline>
</glyph>
<glyph name="gcommaaccent" format="2">
  <advance width="612"/>
  <unicode hex="0123"/>
  <outline>
    <contour>
      <point x="312" y="607" type="line"/>
      <point x="260" y="622" type="line"/>
      <point x="335" y="770" type="line"/>
      <point x="370" y="753" type="line"/>
    </contour>
    <contour>
      <point x="288" y="-188" type="curve" smooth="yes"/>
      <point x="137" y="-188"/>
      <point x="67" y="-114"/>
      <point x="54" y="-30" type="curve"/>
      <point x="108" y="-30" type="line"/>
      <point x="122" y="-97"/>
      <point x="178" y="-143"/>
      <point x="287" y="-143" type="curve" smooth="yes"/>
      <point x="399" y="-143"/>
      <point x="477" y="-92"/>
      <point x="477" y="37" type="curve" smooth="yes"/>
      <point x="477" y="144" type="line"/>
      <point x="449" y="81"/>
      <point x="376" y="17"/>
      <point x="279" y="17" type="curve" smooth="yes"/>
      <point x="146" y="17"/>
      <point x="43" y="115"/>
      <point x="43" y="267" type="curve" smooth="yes"/>
      <point x="43" y="274" type="line" smooth="yes"/>
      <point x="43" y="423"/>
      <point x="148" y="531"/>
      <point x="286" y="531" type="curve" smooth="yes"/>
      <point x="389" y="531"/>
      <point x="447" y="474"/>
      <point x="477" y="410" type="curve"/>
      <point x="477" y="523" type="line"/>
      <point x="530" y="523" type="line"/>
      <point x="530" y="35" type="line" smooth="yes"/>
      <point x="529" y="-119"/>
      <point x="428" y="-188"/>
    </contour>
    <contour>
      <point x="284" y="62" type="curve" smooth="yes"/>
      <point x="390" y="62"/>
      <point x="478" y="139"/>
      <point x="478" y="270" type="curve" smooth="yes"/>
      <point x="478" y="278" type="line" smooth="yes"/>
      <point x="478" y="410"/>
      <point x="400" y="486"/>
      <point x="291" y="486" type="curve" smooth="yes"/>
      <point x="179" y="486"/>
      <point x="98" y="406"/>
      <point x="98" y="276" type="curve" smooth="yes"/>
      <point x="98" y="268" type="line" smooth="yes"/>
      <point x="98" y="138"/>
      <point x="180" y="62"/>
    </contour>
  </outline>
</glyph>
<glyph name="Hcircumflex" format="2">
  <advance width="717"/>
  <unicode hex="0124"/>
  <outline>
    <contour>
      <point x="92" y="0" type="line"/>
      <point x="92" y="715" type="line"/>
      <point x="148" y="715" type="line"/>
      <point x="148" y="382" type="line"/>
      <point x="569" y="382" type="line"/>
      <point x="569" y="715" type="line"/>
      <point x="625" y="715" type="line"/>
      <point x="625" y="0" type="line"/>
      <point x="569" y="0" type="line"/>
      <point x="569" y="335" type="line"/>
      <point x="148" y="335" type="line"/>
      <point x="148" y="0" type="line"/>
    </contour>
    <contour>
      <point x="224" y="771" type="line"/>
      <point x="334" y="893" type="line"/>
      <point x="384" y="893" type="line"/>
      <point x="492" y="771" type="line"/>
      <point x="450" y="771" type="line"/>
      <point x="358" y="849" type="line"/>
      <point x="265" y="771" type="line"/>
    </contour>
  </outline>
</glyph>
<glyph name="Hbar" format="2">
  <advance width="717"/>
  <unicode hex="0126"/>
  <outline>
    <contour>
      <point x="13" y="510" type="line"/>
      <point x="13" y="554" type="line"/>
      <point x="92" y="554" type="line"/>
      <point x="92" y="715" type="line"/>
      <point x="148" y="715" type="line"/>
      <point x="148" y="554" type="line"/>
      <point x="569" y="554" type="line"/>
      <point x="569" y="715" type="line"/>
      <point x="625" y="715" type="line"/>
      <point x="625" y="554" type="line"/>
      <point x="704" y="554" type="line"/>
      <point x="704" y="510" type="line"/>
      <point x="625" y="510" type="line"/>
      <point x="625" y="0" type="line"/>
      <point x="569" y="0" type="line"/>
      <point x="569" y="335" type="line"/>
      <point x="148" y="335" type="line"/>
      <point x="148" y="0" type="line"/>
      <point x="92" y="0" type="line"/>
      <point x="92" y="510" type="line"/>
    </contour>
    <contour>
      <point x="148" y="382" type="line"/>
      <point x="569" y="382" type="line"/>
      <point x="569" y="510" type="line"/>
      <point x="148" y="510" type="line"/>
    </contour>
  </outline>
</glyph>
<glyph name="Itilde" format="2">
  <advance width="250"/>
  <unicode hex="0128"/>
  <outline>
    <contour>
      <point x="97" y="0" type="line"/>
      <point x="97" y="715" type="line"/>
      <point x="153" y="715" type="line"/>
      <point x="153" y="0" type="line"/>
    </contour>
    <contour>
      <point x="188" y="774" type="curve" smooth="yes"/>
      <point x="140" y="774"/>
      <point x="100" y="827"/>
      <point x="65" y="827" type="curve" smooth="yes"/>
      <point x="42" y="827"/>
      <point x="24" y="807"/>
      <point x="19" y="773" type="curve"/>
      <point x="-22" y="773" type="line"/>
      <point x="-14" y="837"/>
      <point x="21" y="872"/>
      <point x="65" y="872" type="curve" smooth="yes"/>
      <point x="112" y="872"/>
      <point x="152" y="819"/>
      <point x="188" y="819" type="curve" smooth="yes"/>
      <point x="210" y="819"/>
      <point x="229" y="839"/>
      <point x="234" y="873" type="curve"/>
      <point x="274" y="873" type="line"/>
      <point x="266" y="809"/>
      <point x="231" y="774"/>
    </contour>
  </outline>
</glyph>
<glyph name="itilde" format="2">
  <advance width="221"/>
  <unicode hex="0129"/>
  <outline>
    <contour>
      <point x="84" y="0" type="line"/>
      <point x="84" y="523" type="line"/>
      <point x="137" y="523" type="line"/>
      <point x="137" y="0" type="line"/>
    </contour>
    <contour>
      <point x="174" y="616" type="curve" smooth="yes"/>
      <point x="126" y="616"/>
      <point x="85" y="669"/>
      <point x="50" y="669" type="curve" smooth="yes"/>
      <point x="29" y="669"/>
      <point x="10" y="649"/>
      <point x="5" y="616" type="curve"/>
      <point x="-36" y="616" type="line"/>
      <point x="-28" y="679"/>
      <point x="7" y="715"/>
      <point x="51" y="715" type="curve" smooth="yes"/>
      <point x="98" y="715"/>
      <point x="139" y="662"/>
      <point x="174" y="662" type="curve" smooth="yes"/>
      <point x="195" y="662"/>
      <point x="215" y="681"/>
      <point x="220" y="715" type="curve"/>
      <point x="260" y="715" type="line"/>
      <point x="252" y="652"/>
      <point x="217" y="616"/>
    </contour>
  </outline>
</glyph>
<glyph name="Imacron" format="2">
  <advance width="250"/>
  <unicode hex="012A"/>
  <outline>
    <contour>
      <point x="97" y="0" type="line"/>
      <point x="97" y="715" type="line"/>
      <point x="153" y="715" type="line"/>
      <point x="153" y="0" type="line"/>
    </contour>
    <contour>
      <point x="1" y="791" type="line"/>
      <point x="1" y="833" type="line"/>
      <point x="249" y="833" type="line"/>
      <point x="249" y="791" type="line"/>
    </contour>
  </outline>
</glyph>
<glyph name="imacron" format="2">
  <advance width="221"/>
  <unicode hex="012B"/>
  <outline>
    <contour>
      <point x="24" y="647" type="line"/>
      <point x="24" y="689" type="line"/>
      <point x="197" y="689" type="line"/>
      <point x="197" y="647" type="line"/>
    </contour>
    <contour>
      <point x="84" y="0" type="line"/>
      <point x="84" y="523" type="line"/>
      <point x="137" y="523" type="line"/>
      <point x="137" y="0" type="line"/>
    </contour>
  </outline>
</glyph>
<glyph name="Ibreve" format="2">
  <advance width="250"/>
  <unicode hex="012C"/>
  <outline>
    <contour>
      <point x="97" y="0" type="line"/>
      <point x="97" y="715" type="line"/>
      <point x="153" y="715" type="line"/>
      <point x="153" y="0" type="line"/>
    </contour>
    <contour>
      <point x="125" y="771" type="curve" smooth="yes"/>
      <point x="57" y="771"/>
      <point x="3" y="823"/>
      <point x="-1" y="893" type="curve"/>
      <point x="43" y="893" type="line"/>
      <point x="48" y="847"/>
      <point x="79" y="815"/>
      <point x="125" y="815" type="curve" smooth="yes"/>
      <point x="172" y="815"/>
      <point x="205" y="847"/>
      <point x="211" y="893" type="curve"/>
      <point x="254" y="893" type="line"/>
      <point x="250" y="823"/>
      <point x="192" y="771"/>
    </contour>
  </outline>
</glyph>
<glyph name="ibreve" format="2">
  <advance width="221"/>
  <unicode hex="012D"/>
  <outline>
    <contour>
      <point x="84" y="0" type="line"/>
      <point x="84" y="523" type="line"/>
      <point x="137" y="523" type="line"/>
      <point x="137" y="0" type="line"/>
    </contour>
    <contour>
      <point x="110" y="616" type="curve" smooth="yes"/>
      <point x="42" y="616"/>
      <point x="-8" y="666"/>
      <point x="-12" y="737" type="curve"/>
      <point x="32" y="737" type="line"/>
      <point x="37" y="690"/>
      <point x="64" y="660"/>
      <point x="110" y="660" type="curve" smooth="yes"/>
      <point x="157" y="660"/>
      <point x="186" y="690"/>
      <point x="193" y="737" type="curve"/>
      <point x="235" y="737" type="line"/>
      <point x="231" y="666"/>
      <point x="177" y="616"/>
    </contour>
  </outline>
</glyph>
<glyph name="Iogonek" format="2">
  <advance width="250"/>
  <unicode hex="012E"/>
  <outline>
    <contour>
      <point x="124" y="-182" type="curve" smooth="yes"/>
      <point x="66" y="-182"/>
      <point x="30" y="-152"/>
      <point x="30" y="-107" type="curve" smooth="yes"/>
      <point x="30" y="-63"/>
      <point x="61" y="-27"/>
      <point x="97" y="-1" type="curve"/>
      <point x="97" y="715" type="line"/>
      <point x="153" y="715" type="line"/>
      <point x="153" y="2" type="line"/>
      <point x="110" y="-27"/>
      <point x="82" y="-60"/>
      <point x="82" y="-98" type="curve" smooth="yes"/>
      <point x="82" y="-125"/>
      <point x="97" y="-142"/>
      <point x="131" y="-142" type="curve" smooth="yes"/>
      <point x="148" y="-142"/>
      <point x="165" y="-139"/>
      <point x="181" y="-132" type="curve"/>
      <point x="181" y="-171" type="line"/>
      <point x="166" y="-177"/>
      <point x="147" y="-182"/>
    </contour>
  </outline>
</glyph>
<glyph name="iogonek" format="2">
  <advance width="221"/>
  <unicode hex="012F"/>
  <outline>
    <contour>
      <point x="113" y="-182" type="curve" smooth="yes"/>
      <point x="55" y="-182"/>
      <point x="20" y="-152"/>
      <point x="20" y="-107" type="curve" smooth="yes"/>
      <point x="20" y="-62"/>
      <point x="49" y="-28"/>
      <point x="84" y="-2" type="curve"/>
      <point x="84" y="523" type="line"/>
      <point x="137" y="523" type="line"/>
      <point x="137" y="2" type="line"/>
      <point x="97" y="-29"/>
      <point x="71" y="-60"/>
      <point x="71" y="-98" type="curve" smooth="yes"/>
      <point x="71" y="-125"/>
      <point x="87" y="-142"/>
      <point x="120" y="-142" type="curve" smooth="yes"/>
      <point x="137" y="-142"/>
      <point x="155" y="-139"/>
      <point x="170" y="-132" type="curve"/>
      <point x="170" y="-171" type="line"/>
      <point x="155" y="-177"/>
      <point x="137" y="-182"/>
    </contour>
    <contour>
      <point x="110" y="635" type="curve" smooth="yes"/>
      <point x="89" y="635"/>
      <point x="72" y="652"/>
      <point x="72" y="673" type="curve" smooth="yes"/>
      <point x="72" y="693"/>
      <point x="89" y="710"/>
      <point x="110" y="710" type="curve" smooth="yes"/>
      <point x="131" y="710"/>
      <point x="147" y="693"/>
      <point x="147" y="673" type="curve" smooth="yes"/>
      <point x="147" y="652"/>
      <point x="131" y="635"/>
    </contour>
  </outline>
</glyph>
<glyph name="IJ" format="2">
  <advance width="616"/>
  <unicode hex="0132"/>
  <outline>
    <contour>
      <point x="97" y="0" type="line"/>
      <point x="97" y="715" type="line"/>
      <point x="153" y="715" type="line"/>
      <point x="153" y="0" type="line"/>
    </contour>
    <contour>
      <point x="351" y="-7" type="curve" smooth="yes"/>
      <point x="301" y="-7"/>
      <point x="270" y="4"/>
      <point x="251" y="13" type="curve"/>
      <point x="251" y="60" type="line"/>
      <point x="276" y="49"/>
      <point x="305" y="39"/>
      <point x="348" y="39" type="curve" smooth="yes"/>
      <point x="428" y="39"/>
      <point x="477" y="80"/>
      <point x="477" y="183" type="curve" smooth="yes"/>
      <point x="477" y="715" type="line"/>
      <point x="533" y="715" type="line"/>
      <point x="533" y="181" type="line" smooth="yes"/>
      <point x="533" y="49"/>
      <point x="455" y="-7"/>
    </contour>
  </outline>
</glyph>
